<mxfile host="Electron" modified="2023-09-23T23:48:47.228Z" agent="Mozilla/5.0 (Windows NT 10.0; Win64; x64) AppleWebKit/537.36 (KHTML, like Gecko) draw.io/21.7.5 Chrome/114.0.5735.289 Electron/25.8.1 Safari/537.36" etag="1YbUFkH6TBFWaA5wb1oW" version="21.7.5" type="device">
  <diagram name="Page-1" id="aaaa8250-4180-3840-79b5-4cada1eebb92">
    <mxGraphModel dx="9170" dy="2600" grid="0" gridSize="10" guides="0" tooltips="1" connect="0" arrows="0" fold="1" page="0" pageScale="1" pageWidth="850" pageHeight="1100" background="none" math="0" shadow="0">
      <root>
        <mxCell id="0" />
        <mxCell id="1" parent="0" />
        <mxCell id="MMg6F2xWOb4yAJsafZvW-28" value="" style="shape=image;verticalLabelPosition=bottom;labelBackgroundColor=default;verticalAlign=top;aspect=fixed;imageAspect=0;image=data:image/png,iVBORw0KGgoAAAANSUhEUgAAAfQAAAH0CAYAAADL1t+KAAAACXBIWXMAAAsTAAALEwEAmpwYAAAgAElEQVR4nOydB3hUZdr+k9OmTzIpQCgJTBJ676CI2LGLBgj2uva26tp2sfe2dsW+9q6rrvrZuyI2rOvakBogPQEkyf2/nvd9z8w5Z84kQffb//L53Nf1OhWQkMnv3E/NyWGxWCwWi8VisVgsFovFYrFYLBaLxWKxWCwWi8VisVgsFovFYrFYLBaLxWKxWCwWi8VisVgsFovFYrFYLBaLxWKxWCwWi8VisVgsFovFYrFYLBaLxWKxWCwWi8VisVgsFovFYrFYLBaLxWKxWCwWi8VisVgsFovFYrFYLBaLxWKxWCwWi8VisVgsFovFYrFYLBaLxWKxWCwWi8VisVgsFovFYrFYLBaLxWKxWCwWi8VisVgsFovFYrFYLBaLxWKxWCwWi8VisVgsFovFYrFYLBaLxWKxWCwWi8VisVgsFovFYrFYLBaLxWKxWCwWi8VisVgsFovFYrFYLBaLxWKxWCwWi8VisVgsFovFYrFYLBaLxWKxWCwWi8VisVgsFovFYrFYLBaLxWKxWCwWi8VisVgsFovFYrFYLBaLxWKxWCwWi8VisVgsFovFYrFYLBaLxWKxWCwWi8VisVgsFovFYrFYLBaLxWKxWCwWi8VisVgsFovFYrFYLBaLxWKxWCwWi8VisVgsFovFYrFYLBaLxWKxWCwWi8VisVgsFovFYrFYLBaLxWKxWCwWi8VisVgsFovFYrFYLBaLxWKxWCwWi8VisVgsFovFYrFYLBaLxWKxWCwWi8VisVgsFovFYrFYLBaLxWKxWCwWi8VisVgsFovFYrFYLBaLxfqv1/z587Wqqio9+zuQm5NDrzvPfC0nJyf3P/n/yWKxWCwWK7ucUM7NyRlq5ZRND+aMG2fm5OR0Ank/EeSd0KcLAYY+i8VisVj/EZhvsct5oyonnnRNr2GHvlw06ICPCwce8EWicr9Ficp57xaWV7+QXz73gURy7g2JyrnnFSSrji+umFNVVFE1vXBQ1aCSgdVFfftWhboPbnb5LBaLxWL9W8PsdDvvDzdtscXu5zUkJ5yEXkMP7ygeeBAKKw9EQeUBKKg4AImKA5GoPAgF4hwsbhMV+yORnNeRn6xuTSSraxLJuV8lyue8nCifc29B+ZxLCypmn5go33t2cbJqy+Jhc8rLyvbIV47/V7h8+f/JYrFYLBbLX8JR77zf5U8NnHw88kr32hAv3as91nePjmjq7NkR67tne6zfXm2xfrPa4qV7t8VLq9ri/Wcjr/8c5PWvRv6AechP7of8cgV/+yT3QyJZ3Z6frG7JT1YvSwyYuyiRnP33/PI5Nxck5/wlUb7PYUXJOTN7DNx7ZI8Bu/XsO5ldPovFYrFYvwrm869/NTppx1OWFPTfE5FeO3SEe+2AcM/tEeq5Peh+qNeO4oR77YRwyUyES3ZGuPcuiPTeFZE+uyHSZ3dE++4BAn+0314dBP0YQb+sqi1eRtCfi7wB1chLOqBfTg7/ICTKD0A+PT+gekMiWb02kZz7tXD5yTl/Ey6/sur4gorZe/cor5rSa8issoKKfeOdF+45/27s8lksFov1OwL6oSctKBg08ZC10d47IFS8dUewaDrcZ2sEi+nMQKh4GwSLt0GoeFuEemwroC+Pgn4JQX9ncSIEfQX8SB8BfAX9We0C+v0E8DukyyfoK+AnD0B+OTn8gxwuf15b/oDqpoLy6p/yk3PeSwyY83hhcvZ1hRVzTi8un31Aj8rZ2xVU7jmEcvkVFTsFuvfX9wU+V+yzWCwWa7OTgFfVoVcWJEfvuzbSaxsEC7fsCBZugUDBVAQKtkBA3N9S3he3WyJYOA3Bwq0QUMcN/hlp4Kegv4M8wuk7Xf6u4kR674ZoCvjC4QuXL8L6ZbPb4mVp4OcN2Bf5yf3dwC8XuXzkJ6vXJQZUr8ovn7s4Pzn3+URyzu2FydkXFFZUHVVYXrV7yeB54/pWVvXpOXK/iF070LUY+CwWi8XaXIB+9PXRsuFzl0YF0Kd2BAXMp6RPgm7puanu+zb0XccGvn18gF9E0N8WQYJ9j+0Q6rE9gj13QFiF9UO90mH9cO/d0mH9PsLhI9Zvr/ZYv73pqLD+nI54mQzr5zuAn1/hCOuX70t5/o2JZHV9Ijn3u0RyzpsFyTkPJcrnXJUorzqlqLKquldF1fTioVUVZWUH5o8bdwQX77FYLBZrM8uhz3/VKB02+9NorxkE8PZAwWQEEpM8Z7LPUbAXkFegT6jjC/wtESiUx+XwCxXsxSHgU1hfuXsCvgjpp3P5NvAjJTKPH07l8VPAJ4cvgB+TLr89r2xuBxXv5fVP5/HzRR7/4JTLz5cV+7J4Lzl3UUH53L8XlM++hYr3ispnH1Y0cM7MPo7iPXCLHovFYrH+S5TKF5cO3+eVWO9tESiY3BYoIIBPTB1LHXE/336chn36/mRYfrBPAX8KLBfsHcBXoJdnmjpbORy+F/jbZAG+w+GX7IJwiR3Sdzl8iLC+Xa2fCutXi5B+nsjj22H9g1MuP5Ek9z8vXbw3oPrlAlW8V2QX7w2WxXsVXLzHYrFYrP+wRC65dOjeD+T12R7BxKQU0C0b4PnO+xNgJSbIW/WaG/QS9vaxgZ8GPUHfA/uMML4T9lNd+ftAQRr2LodfqGAvcvjbZnX4rpC+yuOnCvdkpT7BHrF+e3eIsL4A/hxVvEfAn4e8pCOs73D54rnkvm35A+Y1JZLVPyXK57xXWE7Fe3OvKyiffUZxpSze61U5Z0jJuF25eI/FYrFY/05NN+i/ZcNnX57fb0eC88aUMxfQ7u5xAN2+CHBeDDihL553O3wb+PI2DXqCv5XK32dx907gK3cf9A3np4v20vn7NPAzcvjk8FXRXqT37unCPeHwCfj7dKQcfv+5be7Cvf2QX2Hn8dMuP19cDMjivYIB1YsLKuY+nyi3i/fmHFU4qGr3XoP2Hi+K97bfLzK/2wN1uHiPxWKxft+aLoHef+Tc4xOlO8EqmNT264CeBfL53QB8CurO17obyvdz9l3D3gV8bw5ftObZ7l4W7clKfRXSL5mJkAP4snBPteb12ROxviKkj1jpPu3x0qr2eKkI6RPwO2Q/vu3wDxDQl8C3c/kU7p+3MVE+rz6RnPddQfncVPFeobd4bxQV7/HkPRaLxWKR1JCWslHVexaU7YhgwZQOCXQnmMd3A97ju/k+J+gd933D+07gu0P5zpC+F/TOkD7l7DPz9l7oZ+bvJfSnI1CY2ZInYJ8R0t8xDXw/hy9y+BL4yuFDOfx2lcMn4LfnD6juEJX6VKSXmrp3MApcLp+K9+a1JJLzliWS1YsSonhv7i1FFdV/KRqYLt4bMHwuF++xWCzW70cypFs+bt+xRf13bAuKNrWJHZlA7+r8VjefxdlnwN0ntO8D+3S+Pp23t/yq8lUoP2uxnijYI8hn5u9lwd7WCKSK9WQOn2DvCun3sN296sN3AD/iF9IXDn9vxEr3Rrx0nw6ZwxfAbxOteamJe/srh38QEpUHI1F5iMzll+9LffkbEsl5axPJ6q8T5dUvJ8qrVfHe3OOLK2bv3Xtw9ZReQ+bx5D0Wi8X6v1bpPnzSoT2LkzPrQ0VTPUDvDsz/tyDvdPFZQO+CvAJ6vr+bTx93CF/m6dWtXzg/ka3n3hnOV6fAHdIPiGI9bzjfUaGfCudTDp+G7jgG73hy+HLa3l4K+CKkL4Hfv6o9rz8Bv5qA3+EEfoIW6wjY00IdurWX6uzblkjOa8pPVi9JJKtTxXvF5XMdxXt7DikZV11UsdOvnbzHa3NZLBbrPz9cpmq+1SO5yxfh4mkUbm8PbJI7/zWQ/63Qz5Kf78zdZ+Tv3Y7ech1P6D5rn303cveu6nxPSL+IjrNC3xPStyv0e1LBHp2ZLoefDunTcbblUUifHH5Vh6zQF0V7bXkD5rW5gS+36EngH4oC5fIT5PLL561LlKviveQ8WbxXMfuCYireK5+7e9HgqnF9R/HkPRaLxfqvg3qvil2fifbamoDeJlrTUme8PF44+z33mxz8v8vVZ3H0vq4+m5u3we68n67Cl8BPg991AdAp5H0G7TgK9twteXaxXjqc787f0/HM0neO1vUr2nOF9IXDR7xMOPx2cvj5NDM/uW9Hfvl+cqSuCunLlbmHyCPy+WIQz8ZEeXVdQXKuKt6rfrAgOffKovI5JxcNnDOnpHLOtOKKPcsTyaq86ar4svsOn+fqs1gs1q+QLIzrPXjPa+Ml2yAQHrUxkDdOwq5oEqwek+Vt4URYBQ7AO0GfDfr/X0L1v8LRe9vtOoW9F/qZwJdDdPyL9Lp29p27+3Q7nrc6f4YD9Haxnt2Db/fhz8zcmOcL/FmIk8Mvq4JaoNOeN6C6LU8Af157ony/Dhv4BZUHKdgfioKBdAj6Ytxue375vOZEsvrnRLL6g8LyarFQp7hizumFFXP36zloztb9FPC7sUFPwb67bXwsFov1u5R0T3367XRSfnImAqN2a7P6bQWraCLMyEhY+hCYgeEww6NgxsdI6BLYiybCKp4Mq3gSzMKJMAsmZsLeC/5NBvu/O1TfDcBng3uXufnOQJ/d1WeHfBd5+xTot3QX6tF9H9jb4XxXS55jRW5GDt+zIpdC+hHRhz/LHr4jgd+fVuTO6cgfkHL4bdR+J/L3TuAPPASFAvgU2qeK/X07EuXzmguS85YkknPfLayY81BBxZwrisvnHldUMWfXXhVVQ8vK9sivUhecHuUy4FksFsurhx+WDn2XY3bPf+VdRBrrO8L//BahF19H6I6HEDz3rwgcdjqsnQ+BNWIXWP2mwSTYR0fD1AfDNIfCDI0Qj628cTAJ3oU27B3u3hm+9wvlJ/5/ufdshXjdzMurQTmdtddlc/M24F2DdJwh/E4H6nQSzneN0LXz9tMcffcO4LtW43oq9BXw7aE7EvbpbXl+Dl/Cns4+tsMXwM8bMKedgJ8o349OB7n4gsoDUTDwIBQq2BcOIthTm97+KKiYty6RrF5akJz7duGA2XcWls/+Y3H5rB0T5Xv0syccSpFrFwV4LBaL9TsW5A/Cin/+M5C3ruWBGIDIuub26Mb1iKINUUCetg2INjcgsroGEYL9S28gdO9jCF58AwInnIvA3kfDmroPrOQMmCVTYeaPgxkcLoHvcvfjpLsnwBelgW8WTICZkbd3PBbAd46dzebWx/9nwN4dh28PyEnBvvuQzwzV+wBfFeqleu2zLsXxgr6zvL1nO16q/16txc0S0hewdzl8O5yfdvhylv5eqT58lb9HHjn8AXM7aOc9Vd8XVOzfVli5P4oGHoSiQQejaNChKB58GIoHH4LCyv06CsvnNhQkq15NDNjrnKLSXceq72T6Pmaos1gsVu/16+4mmEdbmtojrc2ItDQh2tKIaFODPHS/tRnR9S0g2MfQhhg6JOw72hBd14xo3VpElv6M8AeLEHrqeYRuvAfBP1+JwMGnIjDzEJjC3W8Fk0L0sTEwjSHyBEfAjIyCSXl7Ec5XufviyTAJ+gT/VP6+i/O/knfvZh6+y6l4dkudz31XEV5nsM8swnM7enfbHY3N7bTHPgV6BXtn7t7l7J2teFv5wp6cvbv/fjuPu5ewj9CmvN500hX60b6e/L2Cff6AOUgkqzsKK/ZtKxq4X3vxoAPRa+gh6D38cJQMPRQFyaoNsT47PRjsPZ5cO4mhzmKxfocCRNhy6rp15YUb1q2zWpsRbGnsCLU2IdTajPA6eSLOQ7AnsLc0IdLUQOF5RJsI9k2Irm9GdEMrou2/IIZ2iAsEOuT2yd3XrELku38h/OrbCD30FEKX34LAqRchMPd4WDP2hTVwe1h9toRZMB5meKQjnD8SVlTl7gnafuF8kb/3Absf8BP/JcD3DslxFuK5nH02F58J+ayhe+XgXaF850l04eq9/faeFjy3s8/m7h0O35G/F8AvobOTC/ZRsSVPwj7Wb0/E+81CXv+9kRgwG0WV1e29huzfXjL0gPZEcg5CRdM/D4Uq+6jvbIY6i8X6fYbbi5qbS6y6mga9sRZ6bU2HXr8GekMtjMZamI11MJsaEGhpFCfYImEvzjoH9BXopbtvRKSZ3H09ogT8Zre7j3ZsTLt7tMuLgMY6RFYsR3jxFwj/4xWE7nwIwQuuQ/CYvyAw6yhYk/aGNWBrWL2mpML5liOcb8XHpor1RH5fwH4yzEIC/iQJfA/0KcRvdgb+bMe5bS4F5C5C9d7lNH4gz9o77xe2z+7m3W11PlPysjwWIXyHs++67c4Be9/1t9Ldu9vw0rAPqdy9gL0L+CqcL2C/AyIlOyLSeyaivXdGtM8uiPXbDfHSPZDoPwtFFVVI9N/rFxq3a+SPvV1+Y3MlPIvF+p0CfRxgButqPtdb6qGtWdmur10Ffe1KaGtXQatdRZCHXrsaeh2dNTAa1grYGwL29bCabeA3IahgH0zBvkUcp7sXwBehfII9hfObZMh+fStibRuUu1fAb98oX6tdg8jPSxB+70OEn3wewRvuFuH84EGnpov1SqfD7DFZ5OpNY6g8Ipwvi/UExO1wfo8pMocvgG9DtRsh/WwRAHHfz7F34t6zbafL1jr3m6rs3ZvsOnPzGUV5Imzv3npnh/GtroCfUaC3pSuM76zMDxbZLl8W6tnAl6DfBuEe2yLccztEeu2AaO8dEe8zE4myXZFfunMHXQSY+ePXhEJ9+qrvbnbpLBbr9wn1YG3NE/ovrdDXrGyzgS6hLo/uOqsk7Ol9NvAF7FeD3L2Efa2AvdncIIHfSrCXwCfYh1Kwl7dph+/I3afcfRNi61sQ+2UdYo5wfiwVzm9EtKYGke++U+H8pxG8/FYERTj/BFjb7Adr4A4wRTh/gszXUyueOQxmaBSsmHT39JoAPLn7HlNgUrGe7e5TMPeGyn0cvg13+3Xv+xObWkGfDfaeDXWdDseZ6BOq98vP+7XVZcLfG673b71zgj392MpYiJPd3adgnwrpS9CHesxApOcMxHpvJ06oeHqHmTceeqh8d/Wd3VVfO4vFYv0f06uvih70SO3Ky42ODQT0jW54p48b7AR9G/wK7t4jnD3BviYNex93b7U0KXevHP66FnWaEVa5fHc4vyGzWG9DC2KiWE+G8yXw2xHb0IoYhfNXrkCEwvnPUTj/YYQuuB7BY/+CwF4Uzt8HZv8ZMHttQS5PhvH1IbACI2CJ6vxx8nkCeyHl7qfIU+QN53udvhv+soo/S5+77wS7LE7eb2FN6rEX6k6H73mtixy97wjczorxvC12fpC3q/ETXbTdeYAfFEdBvkieUPE0hHtshUjP6QgVbbmRLpaMcPJU+Y3dncl0LBaL9X9JgPjBF62rOdzc0KIcuj/Q/Y8b7O77zufcR0vB3nb2qyXsGzywb5a5+0BLMwIpd287e0fRXsrdN0nHTuH8pgbEWpoQW9cswB5v24A42hG3gd++Ub5Wu1aG899fhDBV599A1flXIXDQabB2PhTWyF1lOJ+q7uNjpbM3hsEMjoQVGQMzPh4mgZPgXmQD3y7Y87roLk42gHf2nk630HnduyeEn++Xj+989G1nTt4L+4wcfbbK++4M16FK/IItEKRTSGdLhIqmgfYPhAqnbqS/jx4uv1F+Y3c5eY7FYrH+b1a6RxtrtzSbaiWE16xo11cvp9suQJ4GttYZvLM4eO9zGWF8byjf6e6bVTifYN/apEL60tXL05KZv7dhTw5fVefH7HA+AV+F8+MqnB9rW48YvX+1O5wfumIBgqdeLML5gW32hzVwR5h9pslpeWEatjMUpjk8Fc4ndy9Aart7yt/TLT1Wzp4uCMRFQYbb7wL+3XH2vhD3VtL/upx8tiE52XL0mc6+s5B99hOkU0hnC4QI7gWT28ih6+GKB9R3No+IZbFYv88cet8lS0L6iiUL9eZaaK317VprHfTmOugNa2TInGBLgCfQr15BxXOduPVfd3zD9g7Q27B3F+qtEbDXU+6+FkYTAd929wT7ZhnOt8P4rmI9R/6eWvEc1fmxlkbl7mU4P46NaXevwvlUnR9docL5VJ1/lwznB46dj8Cso2FNroLVf1tYIpw/AWaA2vGGydvwGFjk7vPtYr3JMAn2zoI9AfhNdPmbfLqacvdbQd9FPt7ntUzHPsUf6grsAQV0LVLxnPrO5qI4Fov1+4V6+P33e+krv909ePd9r1i33wP9H8+2a58shPbDN9BqfobWvAba+gZo6+qhEfgb1kKrr5GAXb0yBXty9tpaOs4iOjsH332Ae9/TqcsXkJegp3C+lqrKXy0vShrWQhehfAl7p7u3C/XSwPdz981pd99Uj1gn4Xzh8Dvc4fyIN5x/8J8QmHkYrJG7wSrdWjh2kaunUL4xHGZwFMzIGFh5yt0T1IsI9lNV/t4D/N8MfqeD7wTs+b/VwTtb6yZ3E+6eI+A+BUH7FNLzk9qpsFEPV7zj+M5mqLNYrN8p1MeNM+lur8Jpf4jlU6vXwDazZCSM0VvDmLkPjMOOhf6X86DfugD6s09D++h96N9/BW3lT9AaV6dh31IHvWmtyIsL2BPMVy8XRwDf4+i9IfnugL4rJ58K3fsAPx3Kd7h75eyNVKFeI6xW292nK/OdwHcO20nn7hsQI+A3q3C+Dfz2XxTw0+F88f7VNYiqcH6YwvmXL0DwlIsRnHsiLBHO3wlWn61gFk4WgBfu3hoBMzQaVpQm6ymQi3D+1DTwRTh/kvt0251ney1bNb1fVb3P4/zsYO98vr3jsWMSXgroBZMRKJjYThc/eqT8Y0eFOwOdxWL9TqVWWJaMrto+3msKrOhAmKEkTLMUZm4JzJxiGHTMPjCiA2D0HApj+FQY2+0J/YAjoJ/+Z+jX3wD9sUehvf8WtH9+Dm3ZD9DqV0rQE/Bb66E11UIjkBJYCbYUwldHF6H87gG8O/n5dC+9/9E8oJfFeg7Y16cL9ezcPYXyXbl7n7y9092LKnyqxlfV+dLdE/CbZf5+4zrEO2Q4P+6szm9whPOfexXhux5B6EIK558Da9YxsKbMhjVgW1glW8LMnyhcvaUPhxUYJcL5VKwnQFowOe3u6dB9OhnA7+7prNDOdvGTHc93Z6Rt5hQ8eWygT3IBXrwmQD4ZwQJ6bUI71Sro4YrFOTk54sKUgc5isX7PEoVEZaPm9M8r2aI1EB8CK1rRYUYrYMYqYMTK5YkMgBHuDyNYCsPoAyO3F4ycInn0EhjhMhiFg2BUTIA+bWfosw+CfuJp0C+/Cvr990J//WVoX34Cbcm/oK1dBq21FtoGBXvK2zdS3l66e02E8tOw94bj/ULz7tY5h1Ovzeba3YDXfJ+rSUPf5e5V3p6Ab/fdp0L5TY5Qfvqk+++lwxfu3gY+5e43oTo/SuH8Dz5C+MkXELrxbwj95WoEDzkdgV0OgzVqd1ilM2D2mCrD+VSoZwyHFRwNKzIWZp7t7qlIj2C/hbwtokp0P4fvOH4XAN5wvWsL3W8L09uAd8FeAH1SCug0PEgPl3+dk5Njqe9ndugsFut3K1kgN/mkUH6frb4L5g2HGa1sF0CPJGGIQzBXQKcT6Q8jmoQRU4feEyqTsDf7wtBKYOT0gEmwz+0JI9gPRn4FjNLRMCZuC333auhHnwj9/Iuh33EH9Bf+Ae1Tn7z9+gaISXaNlLcnoNZIwNuwp1s/2Hsh7heWz3Drbrh35vD1bLAXwF+rgK9y900NMFuy5e697j4d0pfhfOXsGx3h/PXNiP/SinhHOpwvHD7149P7VXV+5LV30uH8Uy9BoFqF8wdROH+6DM+LcP5wmNZImCHl7m2nXWi7+y0k7As9IX1f5+6Fe5Z8vKNtLj3wxg18CXD79Ump+xLqdH+iE+jf0Zwk5/czi8Vi/a5V2HfrF0OJ0TBjlW1mtBJmpNxxkgrqHrh7D8GeLgBs4FOYnp4n4Af6wdB7w8jpKZ19bg8YVl/5vpJhMEZtBX3HWdAPORr62edAv+lm6E89Dm3hO9D+9SW0FT9Ca1gFbb07lC9cM7n7NdLd27D3uvZUxbwD6ja4na9ld+z+992wT4M+PTrXbsNb656X72rDa3Tk7rMU6tmw7yKcH6fqfL9wPrXt0bCdz2V1fpiG7Zx/PYLHzEdgr6NhTbKr8ymcP0GA3kq5+3GwyN0TeIsU6AnwvmF5u43OsV0udb/z0L4b4DbE06/J5ybaQO8w88ZSDv0nqu9U38YMdBaL9XuWzKMXlW53Y4SWnMQGbzSjg8ipyxOhUwFDHAl46dy9kO8C9nSiTtgnM0P5OXYovxiG0VteIBQNhjFoEvStd4NefQj0P54J/eq/Qn/oQWhvvQbt68+gLf0OWu0Kmbff0AhtXYOjKn+1hK0K5UtnL0P5rvx7rV+rnL9b78zFa53m6j3Ar10tHT7BnnL3jlC+5cndp9vw3CfiaMUTsKdhO6o6P+YI58fXNSOeLZxPv652DaJLliDy7kKEn/gHQn+9C8EzLkNw35NhbXMArModYZVMg5U3AZYxAlZ8ggzTO0PvviNrO4G471jb9AWCDXZ6jxvmExHIHy+BHi7/mQYfqm9mBjqLxfo9S47M7DFgp5OiPafCig1ts2KDYcYI6gMdJw1357FBLwFvh+kdoXob2r7HcRHgdPapUH7/dCg/V4byBfC1XtL1JwbCGDAGxpQdoM/aF/pxf4R+0WXQ774b2ssvQPv8I2g/fQtt9VJoLbVp2KdC+bLnXvTYpwr07LG3fi1y2cP1/qfGc+v3vPu4W/DSoXw5ZKdOuXs5L98Vylfb8Nx5e79iPQl8bzg/vq4F8V/WecL5HYj9QsV69YguX47Iwo8RfuRZBM+7FtawXWDFaNudI9yedf58Z/n1LKNsU/fTv48T6JYN9EhyCQOdxWKxHA69Z8Wuu8V6bQErb3iHFR9KTh3SqTuPG/BGRB7TcSTg5bFD9gL4YXVceXmvs/e7P8ADe/vigUL5pTCsfjA0n1B+XjmMPiNgjN0a+swq6KIF73zZgveMbMHTvnO04BHs185cJHIAACAASURBVDeKUL7eVCcgKlw1AZ1An5qi54a5N++ezdmnh+P4Az39e/hD3vVcKpS/JsPdywU50t275+Vnwj7l7r3V+TRRz+69b5bFevH1arJe+0aEARgPPgkrOtbdHtfZdrmsrXNZLgA8YXyXO09McDh0BjqLxWLlOHdJlwycNTheMm1DIH8krNiwDjM2REHdebyA94N9pdvRq9C9kQF75fBToKfbpM/xQt7j7m3YC+CXp0P5wf4wAqUwdArl95QteM68PbXgDdsCOrXg7X8E9D+dDf3a66E/+gi0996E9o1qwatbKXP2yt3b0/QolK+tVYV6NFjHbr/rlntPQ9wP5pnhea+D939fxoAdkbd3FurVOxbk2G146V33Qb9CvVY37CMNdTDo7//6y3LCHYXgszn0zvbBZ4Tkuxht6wN0K28sjHAFO3QWi8Vy5h0HTT0kltd766XBfBpPOrzDjJFLJ6g7wB7rLtwzQW84byN00u7edvpO4KePAr1w9o7Qvv1cKqyfxfXbsKecPOXpydEHqSq/DIZF4Xzb4feSoX36vShvb7fgVR0oW/AuuxL6vfdCe+1laF/YLXjLQSNz06H8OtVzT/nxGpmrT7XfreykyM7fkWdz7O73dA1+Z5Ee5ew1R8+9ON5teGLfvXT3ITqq5Y6gbjXVI3fZ99CeeRxmz24Avau1sd1ZHave4+/QuSiOxWKxcryFRIm+27wZKpwAKz6i3YwNh4S6OtEh8sTsW4I63fe6+ExXb3QKex/wE/A94Pd3+MrZ2yH9VP7eBn1S5uBjSZg77ANzx31gjt0GZt/RMAoGSXjbxXjk5AnwAvb908DX7dd7y357ytv3Gw1jwnbQd58L/cgToZ93EfTbb4f+/LPIGJ1rh/JbKJRfK909uWeCtXD2aXfvH3b3D8X7P+c+XvD7wd929bL9Lr0JT4TxPbn7IBXsrV2F3K8WQXv6YbF+lmbTbzLQO9353rlTFzAXO+gJ6GMo5M5V7iwWi+WQCLsXlm5/R4TGiMZHbLTiI2DGhjmO07H7nBTwvU7eH/J+x0jBPxP0ziPgrkL6wuVHK2BE3bCXj8sFkIPX3oxwcy3CK5Yg/OO3CH/xCYKvvoTgvfcicNlVsE48HVbVQTC33AVGcgKM4iHS1VN4PhvsKZxv9IORUyIL9uhxvAJGyXDoI7eCvsPe0A86CvqZ86HfeBO0J6gF721o334JbblqwaPhOhuaoLXaoXw5PlfAVuTt1VHrZ139790My3fl4rM/p/4/PLl7bdVS5H72HrS/PwKz95YK6F1Uuv9WuHuBnk9nnA30H7ltjcVisTyV7gUDdjwz2nNLWHkjN1p51JpELn24B+xeyNsnC+Q7uwhwwj82GAYdO7SfKsrrKsTvA3ty9rFB0HP7IvjnSxBBGyINtYjUr0WkQZ3mOkRa6xFZ34DIujqE1y5DeOl3CH/zOULvvIHgQw8hcPV1CJx6Fqx9D4c5Yw8Yg6bA6DFMgpv66gn2FK6nMH6gTFXl94dhlXlC+f1kyx5dKAycDH26asE7+XToV14N/YEHoL35KrSvPoP283fQUy14TdDXNfoM2LEL9ZzOPjuou3Lp7la6Li4WBNDfhfbMo7AI6LFxCrwTfj24M/Lq2R7TnyEdeiB/XDsDncVisbJUuhdX7FIV60W9xqPayaELoKeg7jzdAXwnoKcq+rxh7iMq67MAv0vX73T5A2HGB8PQShHdpgpFG9YhtL4F4ZYmhFub5G1LI8LNDQgLyK9BpG6NvLVh31SHSEs9IusaEFlfj0jdSoSX/YDwt18i9ME7CD7+OII33gLrzHNgHXy0COcbI7aC0WsEjPxK4eD13BLoub0lzAXsB8gjQvllqYl6Avp2C17ZGBiTtoe+xzzoR58M/YJLoN91F7QXn4f22SJoP/4TWg214K2Vzn59I/TWBpm3J3dPLXhi7a3t7r2V9J3l3mVffHbYe4D+3GMw+0777UDPBnFf8Cugi1sb6ANoUlxIfSNzHzqLxfq9S1a6967cY3SsZFpbQBTGjewwKewuQu9+UN9E0OePkCc6FGZoEEyzAoZZAdOqgBGkXPlQmPFhMAtGwkjQn0uPO7kocECfXL19BODzh4lQePT4MxHBRhj1tarQS+1LX+feqBZupaNAT5XcTQ2INNZJuNuwJ3dPt0210t2vU+6+oQbhFT8i/N3XCH+8EKFn/o7ggtsQOOdCBI44AdYuc2GM3QZGn5Ew8gdKoFOYniCfNxBGTKUGCPYEel2F+cVinJ7S/cfLYZSMgDFqOvSd9oF+yLHQzz4P+s23Qn/6SWiL3lMteEvSLXgEfDFgp04N2FmTAfv0IpsuIO68ECCgL34P2lMPwiyZqkLuNswlcNP3/70h+HS4fQKsvHHtZlwA/Z88+pXFYrG8M92HVhXk9d56dSAxLgV0KwX17oLdA/M8lYvXBgh4mz3Gwhy6Dczt5sLa5UBYO+8Pc/LuMMumwiwYBcMoh2HQchiC+yh5EUCgF6cb7p9O/nCYOaWwqo6AQeFqlYOWBV9qfSq1col56/Ww7HnrBHt7BKvdu63aupzOXsC+vlbCXgBfOvto41pEm2vTsG9ejciqJQj/8A3Cny1C6B/PInjLAgROOxvmpB1keD7qHMpDbXfqiOU4dpW/cvZ2zl4M2OkBw+grc/3FQ2EMngpjxu7Q5x0G/dSzoF99LfSHHob29hvQvlkMben3qgVPhvK1dVSoVwetUW7C08SAHXcoPxPuq6AT0L/+EPqJf4QVHuVyzr8K6F0589RRoXZx8SAduiUd+le8nIXFYrE8QJ8/H1p+n20WhgomUh693YqPJLCnoe49nYFdhOtHSJAXjERgzlEI3n4/Qp8tRnj1KoSb6iQcm+sRWVuDyE/fI/Tq6whedTMC+xwOs89ECffwYAfY6ffsRoiflszo/WFtNxsm5Z19trOlK8pVqNmu7u5km5o9lc3eky5A74Q9HQrXN6RhHxWhfHmiwt3XIty4CtbHb0OfuiMMvR+MWKWjSt8ewuOAvPO+gH2lPPZrdGFglsLIlT336VB+fxgFg2EMGA9jyk7QZ+0P/bhToF98OfR77oH+8ovQFjun6dmhfNvdq1C+vfqWZuU3rUXuEw/ALKJ5BWO7GW53vP6rK+KVO084HHreaOihAV/w+lQWi8VyS4TdE/22uy9MCzjyRrWZ8VEw4yNTAJd5dT+4e2CeNxJmeCgMqxKBOUcjunAR8tp+QR6NE6VpYxta1dCSJkRa1FnfgmjbOkTxCyKtDQh/+imCF10Nc/SO0rFTqJ7Abl8oZOT2nVGB4TADFbCGz4C5cpksJnPsXe9qv7p8zq7sVtXdtrO3YS+msakwfms2Z+/I21POvrEO4bo1CCz7Cbk/LIZ2xNEwcvrAiA/M7L3POEnPEB7n89RrT7BX1f0C+DS0J5kO5WsUyleb8HJ7waSq/LxKGH1GwRgzAwZN0zv0GOhnnQv9xpuhP/4YtHffhPb1YlGoJ3L3DTXQ/vU5jGm7wDQHwqILP1rkkoK006H7Pf41efW0808DfTwCeWOlQw8N4H3oLBaL5Vfpnijb4bxIz60I6But+Cjh0CXU02DPdOoOx04wDw2GXjgaebfdj9L2NiQ72lHa2oKezU0ooJnhagpZ2BvSVoVqAnzrmxDpWI/w0h8RuOw6mMktBdiNBLn1kTKUb4PdW7xH90ODYJWMhfXDd9Bo37oD6N6Vq671qj6QTz3vGgqTHtaSCuMT6FPjV9NhfBv00s03QluxBLmfvQ39hBNhGP1hxKmYzzlRL9uQnU6AnwJ8lpMK4yt3H3UAXzj8fjBynVX5SRhFQ2D0Hwedeu533Ad61UGyHsBKwqTNfPnjxWY2bxW6e+vaxF8BeO97HNXtDoduxYVD/zgnJ0cUdXJRHIvFYjmAXth/5/2jAuij2608AvqoroFun/xRMINDoPcch34vvooxAAa1tqCkpRlxAjflqAXk5BaxNPBoIhmNGG0Sh+AebKxHqH4tQk11CLWtQ+jLz2EdcDyM4CAJbOHWPVB3AN2IUKh+OAIffihDxxQu9tuPnm1veicuPuMiwDP1TeSjU0Na0jl7q7EWgcZa5P7wDXIXvgzt7LNhBMp95uYP9B+0o4CfnpufBn96WU5nYCcnX6Fa6/rJ50RFfm/o5N4pR0+vOZfsOEP6Wh8Ygf4yApI/BmZCufNuH4K9Y7JcxspVvzY2d35eVrjT7nYqihNAX8RAZ7FYLJ9K9x4Vu02O9ZrWEcgfSy69w8qTefQ01L2OfaR06OSaw0OhF4zGwBdfxQQAvZsaEGpphNHUIPLRVIRGDlaOGpWha13kqtMbxMjBxluakKfy0jSdLFi7GsGWBgRbG2DdfAfMXuNhhofALBidPfRPuXZykk88BR0bRXW3ALC9QlWsUc3u2LMB3e896WrxzO1sLlevCs1ov3vuBy9Du/Ri1TPvqdJ3nPSwnezQTx3XOF0fZ0/O3CyFWTYewbvuRejRxxG89XYEzrsEgWNOgbXn/jCn7ASz/zgYhUMk0FOT9PrKyvywKlgkoBdOlPPce0yFVTQZVuEkuaylwAFp5/3uHF/QO6E+Xp2xEujh5Ad2uogdOovFYjkK43oMn9szVjK9PpgYL4AuQujxbpzYCGjhoRj0yDMYS7lyVVRGzlQ4VDE3XK0DdZ4Gx0xxVXlO88IjLY3Ib2lEHkG9uR6B+jUIrK1BoK0VgZdfgTloBswAufAx/sV6ecNh6ANg7jAH+vtvQ/vpX9DqV0L7pQnaL82y6EvNXSdHLeatK9D7hec7C9VnvRhQO9ZToLff+/3XyF34CrQbroER72IAT5cT97IN3nEO25FOn8L6ulmK0IOPIooORJvrELWH67SsRWT1UoR/okl6nyL0+ssI3nc/ApdfjcBJZ8CacwjMbfeGOWwGzD6TYBaNBwHVNIfBNIbDCo2S29dotjtBvXAKzGIFe7ol4Nub2QocpzOwZ4TqHUDPk0DXggPedYCc+9BZLBbL/mE4btwRZl6fGYuDotJ9dLvMo3tD7+5jJUYjNzeJ0vOuEWH2cINy4QLkNryzDC0RRWf2StA1LrAHaIWnAnuIHDyFrdeshPVLE8yPPoQ5aicJ9cIxMndvRw1Eix31sQ+BYQ2Qw17GzYA+cx9oBx0F7bwLodHO9Ndfgfb1Z9CW/wCtaTW0jf6wT+1LTy1ayQ55G+LO+67n6PanfyL3w1eh3bMAZgH15tOwHb/Je9nm6Mvj7+gznb5w+XlDYOT0Q/iYMwTMaWua7LVXFfm1qxFVVflRVZEfba1DVE3Si9StQqRmGSLLliD8z28Qfu0thB96CqErFiB4ykUIzD0B1rRqWOXbwyyZJsPxwZES9sHRMCP0b2TDfjKs4qmwemyRhn3K3TvXqnrb4XyAHur/luPTy0BnsVgs5w/E/H7bPh4qok1ao9sojy6r3bMAPX8UdHMQ4lNnYQztzm5pUos9bIjbIHesFnXCLuVmnZCX28DI3ZuqvS2/maBeD5OeW70SxvoGmB8vgjlkW5ghO/zuhDoBcogcJxsuh55TAHPidrAOOBLmzrNhbjkTxrCp0IdvAX2rmdD3nAf9iOOgXXgptPvug/bO63KF6oqf5JKVtmbp7mkka2OtaHETve3Uu706vWTF18V7gb7kX8j95C1ot90gp+RFna14fv38Q7sxjU/dOuCfHqVL4fNBsPKHoejTxQijDcGWptR+dFmVb0/RU8WJFCUR/fZyuE6U+uyb6hFtbRJdCrGOXxBDB2IAYmhHbEMLotSbv2wpIgs/RvipFxC6/m4Ez7oCwQNOgbXDQbAGz4TVd7oAugC8TmmRkbDCo2HFaeKcDfspEuy+QBc96AT0Ngn0stccn14GOovFYjkL4/L77XBZpJhGwI7eaOWNhqmg7ufUrfzR0IxKVNz/BHqjQ2zuEuF1G+SufLRcI9ppMZqrglyCnSBOMI83NyBI+Xhy/qtXwFjfCOO112H2niRdOVVeu/LpQ2DkDRXtWtZ2eyG86meEW9YgvPJHhL7/GqHFixB6+UUEb78DgfkXIHDIMTB3mwOT+sOHTIE+Ykvo03eBPms/aEedCO3SK6E99CC0998SeXCxUa3JuVHNHtSi/u6rFexXOxetrBR71inkru+0F0xroBq+synT+DZx/C4N5AkNhNVrLEJLfoDR2ihqGEzVemf32Qc9ffbUhWB3Ioj2O1G02IxIC51GRJsbEG2sR7SpATEC/fpmCXtqTSTIC9h3IPrLOvGe6KqViHzxFcLPv4rQnY8geP71CB71FwT2OBLW+FmwymbAJNhb1B45PtUW53TnomVNOnTRVqmF+r/MQGexWJu3gNychx/WxW0OcnMATTymMx/ar3MrqnWtdIfDRaV7/hjh0CXEfYBO7jwwGNExu6Kybi0CzfUOV+7OHYt94OpIqKsd4a5bd9W4E+x0kRBqrEOsqUGE4kVovmY59F8aYdzxN5ihoRLoIvRu59GHwTCTsEZti8iPPyDc2ojwquUIr16OcM0yhGuWIrx6GcK1K8Swl3DjSgn7775E+NOFCL4gJ7sFz5wP68A/wNy5Cuak7WEMmiRhv8VO0Pc7XPZu33QLtL8/De3jD6D98LWEvRjUQrCnXelywYpYn9pUA+2UU2HqZe7Wv4wz3Oe2qwl9PrCni5vwYFjFo2F985Xc7CYiB461qWo/umy7S+9Gt/vsBegF7KWrDzuOnCnQnDpRAftG4ehjjZQ2aUJsnYJ92wbE0Y44gZ6A3/6LcP3RtWsQ+e47hP/ndQQvuQlm+XaewTVuqNtAN0L9X/xf+HSxWCzWf0gC4psgG/RV9gVA50taCst3nhHtOY0qicmld6TD7gTLdG+6VTAGWk5/9PzTReiJduhra2A4Q+wOV27DPPOxE/jpW3e1uISODXUChdVUJwe+1CwX4DQOPwWmXukpkhsucug9Hv074gCCjQ2pgS9UfR9uUn3vdWsQXrMS4RoH6Gt+RnjNMoTrCPY1CDesRHj59wh9+zlCC99B8OEHYR19Iox4fxg5hTDMPnKjWo+hMAj2O8yCfsjRcub6LWrmOg1qWbwI+jV/FRvbzPAgTx+/474f5F3P2ZD3juX1AT/9OpqVXzAC1qcfi+1t9uKWdBW+dzubgr3aja7X18q6CC/s7bbDddlhTy4/QqfV4ezJsRPsCfzC3bcg9ss6AfwgAOOyG2AZw2Ru3VXdLlrWYKaB/pz65uVwO4vF2sykgDz0vc+H9nh24WX5T7z1eP4jrz8ef+CVO/Lufem8vDuePyTvpie2zr/+0bKS+beEu/y9Uq6e2tZk61pJctfSaK+tWqQTkkD3LYzLGwXDGoSSh55CVLSGeSu63Y4822Ova/cPwdc4oF4rRqxS8ZzIXVPh2leLYQ6eIVrnTBo+QxCLDoOVNwzRN96G+Uur7AV3jXJVk93sY+eQqQiPcvcE+9rVCK9ZIWG/apkM26/8CeGfv4X5zULoxx0ne7pj9sz10nSrl1iwUiwfRwbAKBwkgR8ohRkqVyFxAq7f8J6RXcPeeZvV5cvXDAJ63lBYb78jV7JSvt8xJMdewOK3etW9oU1GYDS7S0E4eyqATA/Vsb/GqRB+qxvyadinXb2cGtiIMF04NK2BfvMCmVtPOXQ30FMh92DZ39V3MwOdxWJtRpKh9Jzxr368X5/H3lyf/+jbiD74ekf0wTcQfexdxJ54H/HH3kH8/lc64ve+1JR330vf5N374j/y7vzHjXm3P/vHvNue3jP/hkdGxq98uCBn+nwRXvdI/FAsm35gMK/3jG+D9MPUHjDjLY6j0HZsBAIFY1D84Uew1jenXbVy2l1B3P95Z/W47dodbp2g3rBGTJMLNNYJF6mt/Bla61oYV90A0xgIQ4TeFeRoYtyTz8gZ5VSlblfW2yFmMbvdCaL0zHYX7JWrDzXJgTeBZT9CW/Q6cs8/C0a4vwR2WB26T5PWCPJi+coAtSu9VMCcBrrQvnaZ3+5mW2DWOQDZYJ9uJ5TPUbX8IARefBn6+mZZue+7Q929gU3b1H3qdreCDfvUIhyanmc7+4bUMCGRn1dwj65rFvUSucv+Cf3SK2BGCOh+PeiOHHqw/xPO710Wi8XabJz5Tm98VFx8+3NLjAvvhXHmLRuNs25pM8++td2cf1ubdf6dbdbFf+sIXPUQgjc+ifDtzyNy36uIPvI2Yo+8jfh9ryB+9wu/xO/6x8q8O557L7bg2fvzbn3qgrzrHjs4evWDWyUuubs054j5wtXHe01/KlQ4NVXp7nbpo6Q7jwxDoGQSElRoRflzAnCqojs7uJ233uMHdme1uB2CN+vXIqwG1AiXXrNM5K6NsTPFtDozoS469AGwFtwDva1Vhuddf473907nk0XhnRp+Y49xJdiLUD2Nb121DLkLX4V2zcUifJ6ermZDXU1ZsyGfgj29p0INjBn2G4HunAOQfT6APMNghgfCeuZ56OubZAueC+h2F0LX8PZ7vitnT/n6dGui6mIQOXv5b2g11omLJX3VcuR++QH0iy6BJYDuzKE7HfqYNvr7acGyR9UnhIHOYrE2E1FYPCcnp8/f/mfrwAV3w/jT9TBPv0He0jntehh0/kTnBhj02uk3dRhn3ZKG/SX3QsD+hicRXvAcove8jNh9ryF29/8gdsvfO6I3PtEY/+vD/4zd/PSTeTMO/yacNx6BxNgOUenuDbmTYyeg95mE+JKfRG7VL9TuzZlnK45zQ9b5XJaJbHWr5bAZCruTS1/+E3IbVkG/8AqYRqUskEuMFstPrPOugIENAsLe39v5Z6Rby5ywr3GNczXq1oiLCVpHmvvOi8i9+0YYRUNhhNRYVd856zbc6XFFajqcLFqTdQnZz2+FvQI6RSy0/jDvug86IL9mBFj6+6oKfOna3bl1L6y7cunO0H3Xjj7T4Ws/f4/cT9+EfuHFCuhehz7OBXQ9VPqg+oTY0+JYLBZr8wB6/LrHtrfm3wbjtOtgnErnWhindHKyvG6edl2HecaNbebZN7eZ8xd0BC68B8HL7kfoyocQuuVZxA46H2HRG0w/PCXQ3SF3AvpwWCUTEPnhO+hNtY4Ja37Fb/659O64d1cY3jFWleAaFOs910JbtRTaqp+hvfcmjD4TZW93AQG9L6yTzobR3iqq4v2jA/ZFhDO6kG06nPr1P3+H3PdeRu5j98AoHQcjSOF1msrmXLDiN4J1YKo3PJ0/H/W/cDwunYBulcMctxO0Rx+F9sUnon1ObFCjSnxKSbTWy4E6DWvlBQz9fVV/vYy+ZLrxzBx7Jtiz/bqMXev0PAH9kzehX3CRADoNqHHnzync7gL6feoTwkBnsVibiUTRWk5O+OqHR1tn39wmgH7KtR3GH/8K1zn5GhgnX63ONTD+SI+vgem4b5x0tTpXwTjxShgn0LlC3h53eYd+0tXtwbmnd0SLt1BuaHRm6xoBPTocVmIUQh98AKO1QYZxbeARCNY6HnfRttY5/H2WpCgHadathlW/BrlrViCXILv0Wxi77S9detEYGDllMOceCaOlTgLdhpMrz++prndV3fsAfY3dS/4acp97GPrwrWBY5WqQC41blfPXhRNXY1flohV7VOsQ5c4due7/TajbIXc1317MZO87GsbUmdDnHgL91LOgX3u9XJm68B1o330FbeWSdI89HQV7Ob53tfw6CldvX2hlh3n34G4D/TvkfvIG9PMuhBUepRy6B+jSoW9UQL9bfUIY6CwWa/PKoceue7zQOvuWNSKs/se/OoCuYH3yVRLUdE5OH9OG90lXeiB+OYzjL4dx7GUwjr0UxtEXQz/6IgT2PwvR3lvT3mn64Smh7i2OE6tSByHw2FMwfmkROWo30DsLrXcnp+6GbhrCacAatTWwKC9bW4NcmsBW8yP0P18AU6+Q0+OsSpgjt4Oxejm0jc1ilapwn3RBIIa+LJdHRRfc/0/e4TeO/1dagbroTeS+/CT0iTvCNJNy1GzGYhU5Zz01klU4c9Uvnqpm7y6gR/8GoA8XFxKGmBpXIYvzaHtaTk+xI93Qe8scP61MHTQZxjZ7QN//COhnzBf70TVqu/vofWjffyN3o1OPvZiL3wS9tV60tGnUY09hfIK8gr3sd8+ec9f8gP7pG9CP/SMsa7gaLuMGekC0rY1WQO93u/qEMNBZLNZmIwH0+YAWPP+uhcbZCwjk7WmQ245bHRvqXhd+PJ3LJciPc4D8GDoXwzjqQhhHXgDz0HMQTe4ogZ4/Jl0M54QF5alzShG4+BqYHetSOWov0LPlzLuCfHYn73bqZm0NjLrVyF36g3Do2t13yZC7AOYwmIFy6FUHQ7//fjnl7fuvoK1aIke60tAXGudKK1ZpUQzlccWiluVqdrv8e7j+LvT6yiXI/WIhtPsWwOgzRlzYyDWo9vhV5zx1ew67PcJV9Yt3CvSu4D06y/ucj73FcUPlhYVIBSTTO9Ljlelcv70qNdcBe2q7o6r94qEwhm4Bffu9oB98NPQzz4F27fXQnnTAfs0y+TVta4EuYG/PxZcXXfJ7wzlEyBFyX7sKuSt/Qu5zj8ConAYrMqZrhx7sd6v6fNg70VksFmvzCbvHrn30ocDVj8G64K4287w7YP55AcyzbhbFcSKUfvQlMP5wMYyjL5PQdkLcvi9c+aUK5pdImB99EYw/XADjiPNgHH4uIiP2QjBuA90nj55PQO8Pa9ahMMWwknSIvasCuE2HeJY+dXLpyqnnkmv+4UtoLzwNo3isgrpcbmJofWFYvWUv+NAp0LdXg1/OuQD6HXdAe+l5aF98DO3nf0GrXQFtfb0a56ryymJ2O/2ZqqJ+9Qrkfvwm9C13gGkkYcSHwfBuTXMtVFE956njDLWP7uR4X3eCO9v7/Vz68PS8d0oDOHenpyr0PcV8tG6VDoE/NEDBvp9y9gUwI/1gjtxKOvryCdBHT4e+ze7QZx8E/eQzoV13o5ye98mH0H78Vn7tNjRAa29RF9ewcQAAIABJREFUzr5BOHsRxldgz61fDv3gP8DUB/q6c0cOXQG99Eb16WCgs1iszUjzZe944C+3nWudcyfMP92w0Tr7Fljn3A7z/DtgnX8nrHPvhDH/WuiX3yxujVMI3BfBOOoiGEdcAOPwCxTsbVd+SfoQ0I+k95wL4w/nIzx5X4SoME5OjPMUxylQhAfD7Dse5jdfQm9c49hItqLLgreuXHtn7/PmwA2C7cqfkfvtYuS+8iyMfpPkkBly6ORKY5TTTjoGv5D7LJKDX2jKW14SRt+R0CduJ2a36yecCv3Kq6E//BC099Ts9pU/QWtYBa21Drl1y6H94VhRRW/QghXX/HTnQhX7OccUt5Qzd7pzP3hnAXie577zccavc26gk/Ptxdcjo2DPpzo/BXx16L4N96LBCL7wAsLLf0R48UcIvfUagvffj+ClVyJw9Mmw9toP5la7whi+JYyKiTDGbgN9u72gVx8K/bSzoVEY/9lnJOx/+EYswdEbaqA/cB+MBP27UYW7jzMX7lzUdWykiyI92O9a55RDFovF2qwq3UMX3FllnnEzjBOvbhfhdQqnU1idwu7HXwntqluhffIe9Hffgv76q9Cffx76w49Bv+1v0K9aAOO8a2GcdhmMYy6E8Qdy4+fAOHg+jEPOgXHYueJWP/J8hLc9DBHRLjRWQcMbylXV0zn9YN6wAMYvzdBXLYVOMHdUR/u7cgK+u2jOz9F3L2SvLiJWLUXu1x8j94UnYPSfAoO2sNEccxECH6jApPrBaUxrjIa/qF7xYBmMQD+ZS6YwM8E+tyeMUKl09QMnQd96N+jVh0A/7o/Qd50jfg25Xbf79tuc5hjB6poE5wV6Z4DuxnH9Wo9LTwFdbqGTeX25Iz17Rb4P6OOV0HN6IHDB5Yh0bEBk5VI5PW/VEkTWLEWkdjnCDTRZ7yeEf/gK4c8/QuiNVxC8914EL74CgSNPgjVrf5jTd4UxYhqMyokwyNlvORP6hG1hhMpgmuUwE2NTIDfzfKAeH7OR/k65wdKr1aeDgc5isTa/kHv0ivsGW3+6YYPMn1/V4SqEO/Zy6PP/Cv2Dd6HT3O5PP0qfzz6C/slC6B+8A/3N16D/z4vQH3sS+h33Qb9mAfTzCfSXwjhyPvTD/4LgzCMRKZzicOhOSDj6m/X+MKftAUOBXMJcnjSIZdV7d8Pq3Q3by6pz9WcS0D9fiNzH7obRZzzMsFpMQrlrymUTtFLDXvpnnkh/z5Q3ei9NeCuDYfaFkVuiYF8II7eXcqyD/OHtmq3unObm7BH35r5/Bbh973vC7hTed818pwsQO79PlffpSnwZjlf3xWMH6GMDoev9EJqyC/JoYh5tY2uqlyc1JpcW3CxDZOXPiKz4GeEVSwTsw2uWIkywryfY/5iG/ZuvSmd/+VUInHQGrMNOhLXlLNlFQU7cL39O349xcugjkBvqd7lzsRCLxWJtJpKV7iW3PB22zrjpe9GHftLV7a7iN8qRn3KFdOaLP4H+8SLonyyStx/R+RD6x3TouQ/la58uygC99vTTsK6+BZHe02nMpqx0zyi0Uo6P8tRGGYz7H4ROeWfqCbeBvsbdwrYpYfXutLqJ35vC/FSpTiH3T95G7s1XwSgYqXLoai+6XXVuu04RQrYHvmSZ6uYFvgC9OmKka6WEorPQLes89ZHdgHknTj0bxH1D8X796M4xsSoV4Crcc1fnm46Tgn3+EGg5xYj95VKxGtVqrE+vW3Xe0ljX5ka5V73Rhn0NwqtXILxqqYL9EoRX/ITwyiUIr/5Zwr5lLSLNtQg1roEx/3JYwRGwCnznuDuAXnqJ/Gww0Fks1uYnAXXzrJueMU+/mUDellHNftwl0J99FvoXnylgkzN3gF0A/UMJ948WQv/wA+gL34f+oToL34O+6H0Yb72B6IjdEYiOloVxqVWqnv7mvKEw9VIYk2bCWLlEQly0gqWdesqh+7azrfgVOXQn0JfLQrVlPyLn/f+B9qeTYUYGexypyh2rMLPLeWaElhXgU7d+41vlIJn0xDefJSkZ4fXOes43JZze1WudDZqxd8XboXfPcT3ngX0+7ZbvhcC5l8NAm9zYpmbhG44NbEGxga0ZQbVXXe5TV7vV1fKbcHO9mMdvwz6yZiUia1YhvLYG5roGaC8+D1MMNbIL4VQxnMuhD0duqO8F8mPBQGexWJtrYdyfF1xinn0bgXxjql3NzqUffQn0+x6G/uWnmUBPQV2BnYBOZxGdDyTQKVz/3jsw3n8HkR0OQTA0ElbCGXb3KbTKGwIjpwTG+ZdC39AAfWXapadBrpy6CMX7heD9w/LZQ/TSnWurl8lw+5JvkfPiI9D3mAXTrFQLZOzQt+1IB8m8twoty+OXR/bJKduFYfb4VuFg1cQ3v01ovqNYfwXMNyW33qlLd+yKT+XTVdFelFraPBX6jiN66POHw8zpBWv+pTDwC7SaFZ4xr97d6u7FNzbsU25eHQI9AT9CFwKN9dBWL0XuA3+DWTAOZnwcTL+QuyiKG47cQJ9z5QeDgc5isTZToAfPuW1/68xbCOiyME4cBfSjLoZ+/Z3Qv/gE+ieOHDrdzwC6w6mngE4FdW9D+3QRwgedhlCAQp/jPA7dm5MdIoGXGATj5ZegN9cKqKfy6aoIzh4laoPbXSS3ae5c/N4EdBp0skpVuN92FfTKCTCDg3zgZQPKDiXLk8ojO6e6+cI+feSvoQsEvxWo2ZamdNZTvimw9kDeNxSfzaU7owjeIj5Ptb6AvONxQgH9rIuhp4Du3MxmD5FJ71i35+CnQU+LbxToG+vkhrvmBrH0JtbSKLet/eszaHfeCrNQuXJR7W67cwl0Mz56oxEbDiPY98/qk8E5dBaLtZmOgL3gztHWade1icr2E6/sSIXbaRLc0ZdCv+AG6J98mFkY94lP+N2Gug10Cr8T0L/4GKEzL0U4OFoBfbTPWs500ZkRHyz7vUdNh05tXvSDnIbNpPLptkPvJMzuGOTSWR7dzp2LcDvNcF/xE3I/egPakYfACFWkw+ApcDlC7yr8bkM9XRzmBr18LT221R7rmgpBO6e++ebJvTDvZjGcX/7cD+yd5tS7CLtnfG2yHbv9bphw6BRyt864IOXQ3Zva0icT8lmWt9hLYtTiGxrPm7v4XWi33wKrYDws0TaZLYc+DFqwz5nqk8FAZ7FYm2dhXOFtT8asM25capzyVwl0MQmOHPoVcvrb6VfKtrXFjrB7BtTtAjlH6N3Op7/3DrTPFiF43e0I5090tK55i6wcDp0cbXyQ+KFv7FwFfcWPsjXNA3Xbkbty6+KxqljvsrrdAXPKnS9fgtyf/4XcR2+HPmgsDKtCFsP5gmto9pByxthWe2SrDXrHJLgU6OxiuGyh9a5Gu25CFXs2wKsjL7i6Anu2feqqrS71tfIBfmKkSKtYp50HnbbXKYeudQpz26lnPp+xnIVmC1Bh46dvQ7vtJpiJ8e6Qu+g/9wK972nqg8FAZ7FYm6+sM298yfjTjQT0NplDvyJ19OMvhUZtaaIw7qPOXbpf2P39d6F9tBDWY08iUrIVAvExsPLtJS0+YVu7iIqgHhsoB7ZUHQh95Y8Swo7Kd9nO5imYS93vqvJdvc/Ona/8WS5K+fIDaNVzYRilYkmK26F7nagKvzvB7ps7dgKeDoHffr+zVa27hW+/AuidhdazhtxHdRPoHqh7i/q8XzvaMZ/TG+YJZ8HoUOto6d8yBej0ca9f9T5OA949y30VtBWyU0FbQEBXAE858zTQKeROXQxasPcf5aeBc+gsFmtzVJUcMBM46+ZrzLNuJaDLwjgb6KIw7mLojz4B/Usb6B/7AN3Oqdshd3ceXVv4HozXXkVk0M4IxGSle2bo1g301ApR2g1OUN+9Gtp3X0Krr5HwFS1m7l51J9idc+BlaN3h1FMgtwvhfpbrNml++5UXwYiUwQhXZgG6N2/snOzmzhv7gV7C3BF+zhpq/5UgzxujThe58a7A3mUePRvYHWkU77G/bjRzgMbcTt4V+vKf5LIbqkhvrpNTAil87li5Kv79aldmgN525E73ntpqR+N7P3sH2lVXwKTvOVcvug10MYq4jf69tFDJCepTwQ6dxWJtxpXu59x6qHkmTYy7ss21PY3C7kdeDP3Wez1A90LdAfQU1CXQNQL6B+/KSvet90PArnTPqJh29DWrCWSyqKxC9moT1CdtB/2tV6E1rVZ7y5dltrW52tsUvL3HGWan32fp98hd9j1yn3wARt9hMMwyMeLVVXmezW36FoS5q74zx7l6QN7lsJjf4MpTkHfeeg9dYNHJBvSuwK6K9mKdFPS5vnZq5kCgHMaUmdDPPg/6nXdDf+1laF9/Jver04UbzWsX+9Udi1monoLa3JzTA50ufa0j5P7R69B3nQszMELuQ3e1rEmgmymg9z5GfSoY6CwWa/MtjAude/sk89RrO1SFu8qjk0O/AsZRl0C/7Gboi31gngH0RR6gUx79PZFH1z/9EOF5JyEoKt0J6FTp7i2ssgeV2GFq5dKp6p0mrmk9YZQMg/7Xa6Gt+hFanfzBLcGuBsN4Jsxlh/lS+WvJmS//F3JffBLGsMlyYQiF+kXIv7tAd4LdD/Te+37T3zY11N7NnHkK5GMcOXLbxdvPOx931d7m/PO7cOouoHuGCImv7WAYej85Nc/qByO/Ekb/sTCm7gR9zsHQTzkL+l+vh/bE49A+fM+xcrVWgt5eetO4VsBerrJdKWstGldDu+UGub3Oduc+QLfyRrdRxEQL9DpSfSoY6CwWa/PdjR6/8uEC67QbasQI2BMI6HYO/XIYx1wG4+xroC98F/pnnzig/nF2oH+swu6pwjhV6X7KhQgHRqZa17IWxqVyz7LXO72mMwnD6gtDV8Vyz/0d2pqlEuzktFcQ3JeKfeqp/eT2qVGO3Ab5sh+hkSv/+Rvk3n8njMETYWglcg2oaDujRSx2K5mzH3zEJlZ3d2OM67/LnaeO04l74O1y6c7HWUL1fmH7rFD3C8d7YO9oUZRf40Hqa66WtVie/eqa2q9ePBQ6rVzdYR/ohx4L/dwLod95F7SXX4T25Sdi/7nYbtdaC21jE7R/fQ5j3LYwrUGyXS2VN7fz6amiuDb6d9YCJYepTwUDncVibZYSQCdZZ9z4pnHa9bSUpT0ddr9CrE3VT7oM2muvQv/cJ+yerX2NHLqdR6dK98UfIXDlLQjHx6tKd78cup1Hd7j0FNDph76atkYnt4fYbKZXHwztiUeh/fQ1tHqZa7UHxAhwr1jiPrR/nHZlL/snct9+CdoJJ8IoqIRh9JYXDJEKtSjFMYo1Y7hLd9x6F0BPFZBtSp95F2D3C6X7Ary7p4sQfLdy7D4V8WqnerpWQk3Vsyfs2fvVxcpVGsRD2+0GyJWrufbSm57S1edVwOg3GsbE7aHvMQ/6kSdAP/kM6FNnwrCS4v9Rjhz2wDwdcm+nugYt0Ptg9VFgoLNYrM27MM4666abTBowc8KVG10OnWa6U2Hc089A/3Kxz4CZLONg7cK4harS/ZOFsO5/FOGeW4id6JmDZbxQdw9vSe/eVotOaMsZrTCl3DoVsU2bCf2sv0B78lFon74P7fsvoa34Hrk1P0Gr+UmG1WnQyIdvQnvwHmjHHAejcrxcjkK/j1igUp5y5+necJ9weKeV3CO64cZ9nLnzzxD3N7UYzgfY+ZsK8LHdd+ubVDjn59Lpa2vPxbeh7j0K8s6VqwR4AXuHqw/0h6H3lW2OAvbFMIwy1XJIy1kI6D4uXYTcR0mgB3vtrz4RDHQWi7WZF8bNv+1oURh3whVtKZiLQ3n0i6Df/YCjMK477WueiXEfvg/zpZcQKd9BVrpnOPRs09gcm7xSULfXlyqwh8okmHOLxWO9Yhz0GbtCn70/9IOPgH7IH6BXHwh9+92hD5oII6YcPu0vF/PVaWlKUkUC5MAXOb7UAeQuC72yLVPxm83u+LW/qk3N2VI2SoKbxpsWjpeH7ieo73qs/8lzHF/oOy8Qugv1TXXpdtidqv7pa55t/arPTnUBesehfzsn7ONU/6AiLOJixw/oclGQGSegD4YWLKlWnwhen8pisTZvhx48/66tzNOuk0NlTriiQ7pzBXSqdL/mduife0bAep26cxSscOgL00CnSvd33kZkylwEwyNV65rTsfnNBncOa7GdnP0D315+Ym8wo73kCu6GnYMtlvvIxSmWe8kJ4rSbnN4fsdedylB7yp1Huzm5TTjpLmCe4cizhdl/ZasafR1DQ2HmlMPMrYRpDIYZov9vAv1YOVSlaALM4okwCyekYe8HfAH5LkLunYbh1f9fd+bApxa7DJXwdaxfTbUs+s7Gp5SIB/ip2fj2qVQRFmqRG6XgTfvQM4FuxUe16wLoPWerTwQDncVibd6FcZELF/Q0T7uuzjjpanLmqjDOduiXwjj3Oum6P8tW5e7pRferdP9oIcJ7H4tgYDishL1GNVuRmXc1pxyZKqHr/AHvcOvhMnXUTnKCtvNEvO8b4LMkZbCjvSybi842JS1b73VnS1a6A3TvkBcb5mNhmoNhTZ6F4JW3InDeNQgcdRas3Q6DOWpnmH22kAAPDIWpDYIZoFTGSAV6cvQ26CfCLBgPM2HDXcHeDtsLF58tL9/FYBqxj9wLdfvrkfnvnFpP65qPr/7tUyc77FPz8en3FH+GdOhumNtAF/+PHUZkMPRon33E52E6D5ZhsVibe2EcoFlnXP+Bccp1lDdvTzn041Wl+6lXQH/7DTUCtrM8unOlqiqMI6DTTPfPP0bouHMQMod7etH9Csvs/ePpcarpH/beH+pesDtPmRv04tirS1URHK1BTc1Wt8exZqtAzzZIxXHrgtbI3wjzLO6coBoaDqv3ZIQ/+wIRAJGODkTaNyLS0ojI6hqEvvoaoX+8hODN9yBwxiUw5x4Hc8reMMumwSyeADMyQoLeGgozrOBHMKewfZHt6Md73LwT8t1x8Vna2jIu4JwT9uyLOO/q1fS8/NTym5Sjl5vvUhdkqa+5nUMf5+PQFdCjg6FbPXfJcOgPP6yLQ1EsdeHLYrFYm0U/unXGTbcbZ9xMQN+YyqHbUD/2YujPPw/9i8Xume7ZiuJSle5qSYuqdA9edB3CERr/Sj9QHYVxGXl0R3Ec/aCPD4ERp/WqQ+XyFl+wq/Br2JNfTe0gt/eS267cDrPbznyIo/dcnW7B2AOp7r4/K9Cz9Xx7hsVYQxC+80EJ8/paRBobEGluRIRWiK5vQWTjekTRLl9Hh3yubi3CP/6A0KtvIXjXQwieezWsg0+BOWMezIoZMHtOkn+WPigdvrejAQL0E+Qh50/HC3lxRqePDfUU2DtpV0ydIf7HBrzqYXeDnly5o5hR/N70Z41xVblLqI915tA76N8/uOOBV/V4/P0peeffOqBk/i3hTj8vBHcb9vNBnx2GPYvF+u8qjLP+cstJojDu+MvbXEAXefSLoD/wqCqMywb0j3yWtLyvZrq/Iyvd73oA4aIptjvqpDBOAZ0qlYMDYZhJGPoAGDn9YBj9YdCUMRrPSlCnXmaCPN2mAF/RxVG/NsOZO3Pn3Q2Vb+L5VUNk3EVwhjkE4a2rUbhhHYLrWtVu8BZ5COitzQi3NCFMgCfQNzWKPeGRdS2I/LIOkY6NEvIE+43rEWmsQ3jZUoTeW4jgg08ieMmNsI46G9bOB8McugPMkikS1uYQCfsgXWxJ9yscvA36QjtHb4PeB+y0Xz4jktHVON3OIG8/VnMDUhdVo1whd98cet5oGOGBiJx2DeL3vNQRX/BMU94dz32bf9fzzxfc+cKNiTueO6VgwTOzim/6+6je1z1eOH26/KxkFbt6Fov1XzHT/dw7tjdPvc7RsuY4f/h/7L11lFVXtu8Pe619tAqLQYK7x4gLEeKeECdCAsEJrsHd3d2hcHd3d0ha76/vve91922JdLpfd4DvG3OutfZee9cpKJL0G78/9hpjjTp1IKQ5nVOf853zO79zIMTE2f5u9HCp3TPG2bvRLYV++KByum/cjFSZJ9jpnnsWPQR0yvx2KyBe7Smk+k5Aov1AJBq0Raze+3BrPAV5y10K5DFyrZeCFKUh42SMq2iBnoJL6No9WHOrhpR5hkjW/AD9arGnearxq8E8U8/c+r7oXZBOZSTeaoHE//kO4pu/wP3ua8S+/xbx779D/O/fIfkPAryCfOoff1P37+Z+hxSV5b/7xlf1BPp//h1Zl//lq/rL/0Lqb98g9YffI3X6DJKrNiIxejribfsi9loTuHe+qPv0d0HGq8F1KkNSv5769KR+ixpVT+57Ar8BPH0oseDOgLc/QOUVq2s+cBnAh6FvV1SMQY+gHe6fE9w9hc4fDGNN+lxJTFqD5JS1SM/fgezlB1B47TEUXncMhVfuR5GcXf8qkrPr90UX7zxcZOH2RTfM3zyg2Jytn9wwbe1jxacvKxOp+uhEJzr//zi6P5gcPK+k23Hsd2rj2rArCuZDFdybDoYYOIEjXHOb4Wyw28Y4Ky3OON3370WqzhuIs9M90xpVDfVCtSATVeAWvxfZOZuQfeE3yD5xEdnHziNrz3Fkbd6PdM4mpMbMQaLzECQ+aIc4g74e5C13Koi7BPqSGvRUbidVTpCvBsmle3JYq5t7UUqG8Jef7V7njHkuZ/tdcEVluC98BPHNn/z8cr0XXHz9J8hv/gL57ddw/0ag/wax779DglX835DQoFdXPeeD/jsN+q+D5ftL//RBf+US0n//Fqk//RGpL79CYuN2JCbPQ7zrEMTeba369KUfhntTHbipGnCdSpBuVbgp+v9Vw7zYnXBvJOAT+DXkGe76dTdfbcjztc10V1two932DPRMpjilzg3Q5fudIHvNgOwxDbF+s6/Ehi68HBu59FJ8/KpLienrkZq3Feklu5G96hAKbTiBIptOocjaoyiybM+VIjm7viuyZNdXxRbt2Fhs3taJRedsaV9sxobXikxbXfvWcXNuKJBfVQ84Ua8+OtGJzk89qge4c6eMdR5/WrYfQ6r8ckChNx8CQbvRD+2HOJuXSte70U9kAvpB5XQ/dhipl5ogkVBO9zyBnl0T8UK1UGzqEhT66j+QfeAksg6eQtb+k/qeQtaBU8g6dBrZR84i69AZpHceRnrDbqQXr0dy5CwkOg5CokEbxJ54F271JyFvJtBX4wQxWbC0Kt0nKsFNU4++hgKKUY/0geLfUW731Hl+gJ5HP52Ur1sF7mP1IfWGsdzrYQ3kFehpg5n4+s8Q3/wZ8tu/Wor+WwY9QT7hAd5S9Qb2Nujp69+/8/r0afzg9+n/SX36PyH529/4ffpeIxH7uD1ij78Lt8JjcG++BzKrJlxREa6oBDdpRsxqwy2qYU+gL3aHD/nCtSDpFroa6G0jnCnzm3G8qwCdqjXvdYTsPgWyywTIL6ZC9poO2XsGZN9ZcAfMgTtoPtwhC+AOW3QlPnrZpcSEVZcSU9ZeSc3ejPSinchavh+FSNET6DeeRJFVB1Fk6a5/FVmyk1T9oSILti28YcG2fsVmb2l444w1dUtMWVO65IicZL569W++GY3SRSc60fkRxrhuE+fzbvTWw5QxjmDeikxxQyFbD4azfRvEudPKAJdLmdvxr7qHbs+iH9zHxrhkk+7sdHfzAnrh2pCyErIffgs3nvwSqSNnkHX8ArJIoZ+4iKzj55F17Dyyj5xD9qHTyNp/All7jyNr3wl1959A9sHTyD58hoGftesIsjbsQWrJBlb0yS5DEf+oA+JPfwi31rNwi9+jgBGrAumUh+tWgkyS8Y5AYSBvVOTtP4Myz49Sz2NUjRX6HXDjVeHWqgf5+/9mVR7eAZ/5/sG6tHrUgN4oeg36v32jQa9UvQK9f/3SvQY99+kJ9F/rPv3fuE+fdYXK96ZP/w+kvv4LUv/1n0gePILkohWIDx6PWNMucJ/7AG61J/n/Bwa2rAjXKQ8ZJ39DdQV0+jvboC+iS/Wekrdf0ztyAT1cbvcX0dRmY6QgoHedBI4/Jh8JQb3nNMje0yH7zFRg7zfbv/3nwO0/F+7AeQz62LBFV2Kjci7Hxq28lJi89lJyxgak529H1tI9KLT6MApvOIHCm06jyDqt6pfs+rbI4p1fFlmwfWOxBVvHF5u7te0NMze+UnTK+lolR+QUywjxyG0fnehE57qMcd0mdXXZ6T7sB0+dt9K32QCI5auUMY6BbvfPM5Tb7b3oPLq2D865E0j0HoVk8nY9upahj04/qGmpxl0vwV26CXL5ZrhrdiC2cS/i2w8hsec4kgdPIX30HNJUgj9xQQGfHh87x4qdgG6DPptU/cFTDPns4xf4ssrffgjpVduRmrQIyS9GI/FpV8Sf/QRu7RfglriPAS5jVSGdCnBjleGm9Egbg952c99+DYBfD8xtoGeAOv27SNWWug/yd7Rq9E/5BHo+Lpftw6D/C6QFeurRq/L997lL95ai5z79t6HyPSn4y/9E2pTvL/2TPwikfv/fSJ48hcTKdUiMmoL45z3hvtoI7h3Pwb31PsiitSHp9af/H+IUMlTDqqbYr7k9C2+n4mU2xJH3gRS6oJJ75wmQ5CHpMlGpdYJ6j2lwe0/ny3DvPRMuXYb8TLh9Z2WGPYF+8Hy4QxchNmLxldiY5ZfiE1dfSk5bdyU1dwvSi3Yhe8UBFFqnVf2Gkyiy8gAKL939zyJLdv6vYot2HCi6YOvcIjM3di02bvlThQdNLKreqNQeUx++oxOd6ETn6pnuPaa9xMa41kOv+DAf6hvjps+HOH86M9AzKHTn2BE4Bug0unbyKGJT5yJZ7D7+gZoxXIaAnqoG97b7EJu5DHLeSsjZKyDnroSctxpy4Vq4ORvhrtgKd+0uxDbvQ2LHYST2EuhPK9Afv4A0gZ7uMbrnkHX0LLIPnUEWle/3n0T2gVP8ffbRc8g+eRHZZ36hLil/6tOv3YXUlBwke45F4tPuiD/zKWI1n4dbXI12GdCjdXZ0AAAgAElEQVSTsue0Nhv0xgCW7/ny/PTSrZuqrloIv/6FWh9Km+Roq9zPAfWAmrcee4r+f1Tp/htS9H9l0FP5PmH16VXZ3roZDXm6fP99hvI9z9N/g9Qff4/kxQtIbNiCxIRZiHfoh9hrjeHWfFqpcwZ7+HU2ATg+0M3omv9YK3QGehXIBp2VOu8wVgG926SgUqfbi+50uFSON5dhP8ODPIOevjLkfdBL+kql+wHzVPl+6EKl6kcvvZwYv5LK95dSszYhvYBU/V5W9UU2nEDRdcdRZPEuFJ6x4T8KjV46qnCvSWXtilp0ohOd6OQ++gdEfNCM8m7HsX/nXeittTHOAP2zQRDDp6jd6CfDvfMMQA8odL2khZzua9YjdVtdxCie1CjbcGwqlVqL1ERs5CyIhWsV0DNcMWcl5NxVkPNXQy5aB0mgX7kN7rpdiG/ej8TOI0jsO4EU9diPnmfQZ528yJdNdvT90XPIIlVP/XhdqmfIHz+P7NNfodC5XyGbLv0+Av2anUhPWqwUfcMuiD/9MWI1nuMZbkklXAK8U5GrDJJMYeSAp7+nDfrCPwbu9ve1IOMVIafMVOtC//G1ugT3v/5RgdhbH6t3wWtYi58MeBvyGvR/+R8Fe+7R/yUA+tyKnpS87tPboP+bDfpg+T595V+qR3/lB+28/1+Ir90IWf0pZbzzxiDDS2rySomzFDoZKD/oAtl5PGRHAvoEyK4TVQmeoT4FssdU62rA95wGl79OV9eCPPff6YYh74Few76/Ab0u3w/m8j1iI5ZciY9bcSk5dc3l7DlbUDhnz5XCSw8gMWzh/463HfGs/Z6NTnSiE53MxricczG387gvZbvRvjHOAJ2c7j1Gwzl2SK1PzQh0OynO6qGTQidjHDndd+9CqtZLiKUJdMbpHo6ArQE3VRmxbsMhczZAzFoOOYcAvoK/8iWo03O5IK9BP28VxII1kIvXQy7bBHfVNrjrdyO+5QASu44geeAkUofPIkWleob8l/pSn/4CO+oZ4qTiDxnQn0X2ifMoRKA//ytkn/0lK/qs3ceQXr0DqYmLkOo+ComPOyNe7yPEqj0L92aj6KlHX1H1v9MG9Bry5hbJtKI0BHcekasJmaoCeWNNiDc/hOgzEM6iRXCO7Ifzm6/UCtl//BXO//kWzvca9F8T6P/gg/6aZfpMhjv/e2GMd5muB3qt6lnRU+leg/5v33g9enuGPreip/K9BXqt6lPffQOJf0C07qpy7MkomKt3roAeDJUJA52MdlW4hy54s+BQyDajITuO10pdq/QeV7vT1Fej5EOK3lxW8r1IzRPoZyhFr0v2XLbnqyFvSvcE+kHzER+x5Ep60qof0rO2wO05/b8KPNWoHL9fI6hHJzrRyXzU+JrbZeJS2WkCld0veUCn22IIZLshELt3Kqc7gTuXOg+b4qweOjvd9/PX1DMNESenu72kJVB2rwkpyiLWpDvkiq2QM3IgZy/PrNI12O1rwG9/AGDQz10FMW+1Av2SDZDLNsNdvR2xDXsQ33oQid3HkDxwCqkjZ5E+dgFpreYN6LO5hH8+T0WfCfRZ1KMfvxDJbiOR+LATYk9+iFhVAv29CvRuVUhye9MsN412ceVCL14xAS0W2LkKkF1DOfZTFf2VofFSEDdUgajxEMQLb0G0bAcxfCScZTlwjh0Mgv6f38L5+199RU8AthV9nma6n+Hq8TpvxI4VPfXov0b8e+rTZyrd2/35bxH/+i8o+IffQjRtx2Nx/DoFsuTtRTN3W/euINDTtSCL1YCYOhNiwXKICXMghk2H6D0RovMYpdjptqevEyC7aNXefaoPegNwG/Ie2OlxqGzPX21FryDPVyt6N6Do/f58YuTiH+LDcyA+7NzXbpVFJzrRiU5GY5zbfVJvNsa1GvaD10On25LG1wbAWbtO9dFP5AF0o84DCl2PrpEx7vQxJD/uhIRbPbfT3Qt0obGmsnDrvgk5fw3kAn2ph069dIL4rBWs3AMKPaTe1V2pYU7l+ZXec4E7j8r2a1R5n0C/fIsy4m0yRrxjbMRLHTmHFPXnQ4qeQM8z8jRCd/h0SNFf8EBfiEF/Vin6lduRGrcAya4jkPigI+JPfIBYlacZ9DKbQF+FQc+hLZS77pXub4ekSQCeo6fQnEqQ2Trilna7e9vmblQb5ijH/qaqEDUfVqBv0Q5i2EiIpTlwjlqg/7sG/fca9F//jwIwKfkA6MOQtpX7j4W8Bv1fdI/+a6Xo3W//ith3CvSJ779Vrvrvv4P4n9+jwJdHID5tqZLripld7n7JXUHbz3EPK3T+vemakDfVhNi+FeLiWYgz9N/wUU42FHt2Q6zfBLF4JcT0RRBjZkMOJJCPh+w8ThnoaPdBh/FwCfRdpygznV2Wz1PRB9W83Zc3cDdl+wDo+868FBuyCPLDrtutd24UPRud6EQndGjmlQJmek2tz6tUWw29EgA6PW4yAGLuEm2MywT0UPTr8dAs+gHldI93G4JEvJbeupYpLY4Sx2gxS2WIu5+GqN8YotUXEP3GQoydDTFjqVLaBHu6pLwJzKzYCfJKzXuwt8Fug3wuPaeuD3sL/qZsv1D156la4K7dCZcc9zsOeUa81NFzSJ0g0BvIf8mGvGxTuie4E+R5bt4Y8S4g+8xXKHTh11rRa9Cv2Ib0uPlIdR6ORIMOiD/WAG6let5CFYa8Uw4yVlGl4plVslmhm62/0kKahF4rW9ACPa2avZFA/xDE829BNG8LMXQERE4OnCMH4PzmyyDo//41nO+CoBcE+VyK/mdW9Rr0pOjlX/+E2Nd/hvO7X6PgiZ0QjVpxQl0Q6Eqd+5nt4Rx3pc459jVdA+Lm2hA7tvuLh+jruTMQ589AXDirQE+THRSoRP8d79sLsWUrxLLVELNzIMbPhRxCffSJCvSdNOzbjwOPgHabkoein5a5XM+lel/Fe+qdbs8Zl93+8yA+7naBPKz6nRsBPTrRiU4es+gDZlV124/+J0fAMtRJnWugfzYAYgztRj8ZdLqfvFoPXZfdWaHv50z3+LgZSBapwyV3b3TN7p9roNMGLSlug3RugUyUgixaCaJcHYh7n4N48QOIT9pBdBkEMXQKxMQFSrGT0p6/VoGelLcGvddz90rxPsy9q0Fuf/Xg7j23Srvt1ygj3lIy4m1lI15s837EyXG/7wSSh84gRUa8E6H+PM/Sa+c9le6NoqfHBP+TF1Ho7C8CoM/edRTpnM1IjZiFZNsBiNdvidj9r8Et/QBk4WqQ8bIQBW+FdG6FdEtBEMB5q1y5DKC3dskHQH8DZMGbPdDLGg9CPP8mRLM2EEOGQyxZcnXQm9L9NRX9VXrvV7nqn1G9e/rfUPDYNh/opodeyDbD2TPo9mNrS1yqBsQtteHs3gGHAH76FJyzp+GcM1A/G7wE+Avn1CXQXzwDcfakai0dPACxYwfEqvUQ85ZBTJoPMXwmRJ/JkF3H+6AnVU8tLaqChRW9Mdn1ynQZ/pfdvnMgPuz66wIFCiT0OzcCenSiE528jHE5SbfTuN/wbvSWwy4HgN5kEETfsRAnj+js9kz98/As+mE/XIZ66McPw122CqniDyuYs+M7nBRHUNdb1XiZil6FGrsNUpaAdIpDyuKQyVIQ2eUgStSEqP4wxKOvQrzRCKJZN4ieIyFGzoCYulhB2ZTtyRGvQW8UvAG8Ue15wZwd9XxzPy+4bK9Bz0a8zdqItwuxLfuVEW//SSS1ES8IelL0lhnP9Ojpkpo/dh6FqHR/6ktkn/pKheZsO4j08i1IjZ2rUvHeb434k+/ArfkkZPHbuRQv4qUhCpaAcEpAuKUUwHlfvAZ7GPTZBvSmdF/cV/T03A1VIKs/CPFcfYimbSAGa9Af3q9B/18h0P9FKXru0ZPzXin6HwN0U9Znl/5vCejbIRq3DgI9BPPcs+im3K6hnqoOUeJ2iL27lSI/c0oFJ523FDrDW0M8/Dgj6DXsuYp1VCUk7t4FsW6jKt9PWwQ5ajbkAFLu47W7XkOe4B4y0ymVrp30X0y97PaZDdGg03nqjgXet9GJTnSiEzraGDd+DSuJlkMuMcwZ6EMhmw+G6DgMzoG9EGdOKnCfvIpCpwUttkKnH25HDkDu3IFUlee0052c2+HlLBroaQJ6JaU2CeYElMIVIZKlISSB6hYIUZwfM+BJybu3QqZKQxapCFHqDojbn4Co9xbEu80h2vRWZfsxsyGm53DZXi5YqxW9Ar0qyesyfS51vjKP51aFPgAo6BPkGfQL7P68MuK5G3YjvpUc90eRIMf9EQ36QH9ele5Z0RPYSc3TDD2F5VBozp5jKglv5yFkbT2ArLU7kaZEvOlLkRo8GYnP+yD+TkvEHn8Lbo3HIW8hQ10lyFhpSK3oRYxAr/fEG7BnlYfI8r8XWTboS1qgv9kHfbUHIJ55A6LJ5xCDhkEsWgzn0D4F+j8S6P+iQf9NAPTUDw+W7vMD9K9Q8MgWiLcawhVVLaDnhnhuQ5zehW6AftudcKiMTmBmoBuQG5if19fAOvy9dT3Qa9ib723Qc/n+uDKK0r930xaIpavgTl2K+MiliA1frEJpyOFODnjKmDcKnYDeexbEu+0PWiCPgB6d6ETnKsa4LhMHs9Gn5ZAfPKDzHQLZYgCczZtVrzEAdA3zTNGvxulOW9dIpR/ah+TjDdjprka1ageBnqV2odNGNDZ+FSiOxLMNkDV7BZKDJyHRti/iDVoj9vS7iN1ZD7LknRAE+lRpBfiCBvTFIQWBvrj6QJAuo5zg5e+BuOcZiOffh/ioLUSngRCDJ0GMn+eX7Qn0DPvVCswW6HOrdwK6gjrDfN5Vrvl1+nMZ9NSf3wS5gox421V/fvtBNuIR6JPkuNdGvLRXttcle1LqlGlPYN95mJPvSLkz3PnrQWRt2Y/0mh2ccZ+eloPUwIlItO6F+NvNEXvsTbjVHoO8WYFeMOhLQAgFesGgJwVfIQ9FX8Eq3ZfMreiLEejvh3j6dYjPWkMMHApB43UH98L59cUg6P/hg57G3Rjwf/zfEH/yZ+fpK31f8L9/g4JLZkHeVgduWm1V8w1x/siabYbzIa976EV0QE/Ju9jb4QHd651bAP/yAsSX5zPfi5luHqCnP5dVvf3cOYhfXoBctwOxQfMQH70EiTHLEB+7HIlxy5EYuxzxUTmID1uM2OD5yhT3focN9mKl6EQnOtHJE+iJnlPfdyk5q+UQv+SugS6a9IOzeJnvdD95DE4A5iGgU3/x6GE4Rw7BIaAf3MelyOR7bZFwa/hLWgIqXQHdLVQNQpRG/J6XUIhKzBTVunGPWsKybpcqOc9bheSkhUgOnIBE656Iv90MscfegFujLmRxmjMuD0EjXaTmScET5Fnd67J9oiQkqdGbq0NUeRDioZcgXmkI8VlniC+GQQyfBjF5oeqxE+BJaS/wFX1Yzfuwt+Ctr4J+HoA3l3r/9O/wgnKUES+3455Ar0v3fPVI3eGzyDLRt3uOImsHgf6gD3pzCfSrtyO9cB1SU5cgOWACEi17Iv5mM8QfrQ+3al3Im2pBZlWEcBXo2c8QKw1BfXY24mmop7Wqz6ZrniuXAfRa0RerDFFFg75xK4gBQyAWLuLKD4P+D/8J53sCPYXmfAPnb3+FQ5vleLad+vS/g6jfQAX4BPrn9Dh32d0oc7M21VPoyeqQpeuwt0OcO6vGMRnoGrRf0jVAv9oNQf/itYCvoW/K9r+4oEyXXSZ7bngKrWFne/85iA2eh/iwRUiMWHwpMXoFZIOOC/j9ShvaohOd6ETnasa49IDZtd12o1Wee8uhVzx1TnBv3B9i8myIc6c8oOfuoVtz6GYnuplFpx/aZ48j3r4/ErEw0O2Se3XIZGUkStTBzZv2clqbt3GNFOmOQ0gTlDbvQ3rDHqTX70aaSs4U8JKzEalZy5EaOweJXqOQaNIF8Vc/hfvgy5CVHoC8gfrz5SBit4XK9gSt4qpsnywNWbgC5K21IWrWhXjsdYi3mkC0/AKiz2iI0bMgpi9RCp5UNoN+jXLfeyNy4TK8BXZTjjewz1PVr9atAV22N0E5OhGPom8DjvsjJvo2twGPQU8LbHYT6LWa32ZBni69nqu3I0Wgn7wIyb7jkGjeA/H6TRF75HW4lR/hQBv2NshSStE7CvQyWdYHPV+l5rlkHwa9WxKyoAX6uAH9fZBPvcYjaaLfIIi585Rp7eIZOP/fr+D8+b8hZs6AzKqkMwvuyEf//K6MCl0mqkGWvRcOxRKfOwuHgH7BBnp+YJ6fa/85YYWvFfqi9cooR+V1e+SNkurIPNd9MjnmfyDXvHip8SR+v0Zz6NGJTnTyPrqEN31Vtuww7j/l5yMoUEYBnYJlWg1RTvdBtBv9aO5Sey5THGW5h8JlaHSNnO4jJiOZfRf/YI3lAjqt06wJKcshdd+rnK2e2H0UKVrKopWpt5CF16dqUJEbnJQ8QWmjhvy6nQr0FPCyaC1S05YgOWI6Ep0HIf5xW8SefR/u3c9AlrkbokglVp9+f76EAj1BXuiyPfXvyW1f5i6IO+tBPP0OxPutINr1VTvjx82FmLlMle0XrdOKXpvxwgY7C+RhwAdBr6Eefo7+TDNWZ4JyLCNefOdhL/o2dewc59tnVvSnkLXveAj0IUVPr+mq7UgvWIsUVUR6j0GiWXfEX2+M2EOvwq30MOSNNRToyYBHPXpS52TMC4OeR+004LmUT6X78uoDQRj01OM3foh7noR45HnIYtUgk1WsWFz6UJgfoKvSvKfQE9UgKt6vDJvnCejaEGf3yn8WoOcFef3v+OVFuPPXwiWFntf8Oo29fTGNgV7wxU+G8Pv0WrvWoxOd6ESHjttx7Bbejd5y6CXVOx+iVHrTQRBdh7OzWTndMwH9aAZTnAY6ldyPH4K7aBkSNz1obVwLGeMK1eB95bL8w3Cpf61jXN3lmxHj0Jd9DKwkj4j5S1nUelXqL5/V/eXjSO84jPRWo+Z3I71+l4I89ZaXb0F63iqkJi1ActBEJD7vjfg7zRB7/E24NR+DLFEbolAFiEQppeQJ9Kzmb/VBHy/JTnxxYzWICvdB3EdjdR8Gx+omLVAjc6acTl+NGc822GVQ7CLD5dE5+me59L868D2D3vx7TFDO6h1sxIttNY77E0gdPsMb63zQ69fvqPX6Eeh3HfX785kU/cqtSM9fg9TEBUj2Go1Ek66Iv9oIsQdfgVvhIcgbCPQVIGQpHq8TVLqPm9E6An1Fff3yvcw235dToCcFL/RoXorUOS3E0RvW8qXMrfQ4kyiXqApJbRaqIHHJnYBuOdt/NoV+jUsl99mrVMk9oM7Npe1vvAHuB55tf/qD7vwmjYAenehE56pHl/HczhNGubRSsoUxxhHUByune6uBcHZss5zu1+6h+/Gv5HQ/CLl1K5IV6iGWpZ3urNIthU7xpqkqcG+oDXf8PAU3Ur4zl/sJcQS3hWshTK/ZZLXvPqoiXA9ThCstZVE71AlUaYI/9ZcplpV68gSkTXu1mtegp5Izl+2XITVuDpK9RiFOZfvXqGz/EtxKD0LeWO3qZXtRQs3OU1+5eA2Iag9BPPwKxOuNIJp2heg5wh+ro78HqflFpkdPpXtrPC5DaT4A9/lBmDPQc10a21urQb9eGfGWb4FcvUNF326j6Nuj3mid6s+rPfRe6f6oZcQjlz057Kk/T9eGPF16TVdsQXr+aqQmzEey5ygkPuuK+MufInb/y3DLPwBZrDpkqgKX7hn0VML3ZuiNojfhOeX095SMV0W1ZfLYrpbX5ZE1Oyc/XgWi+iOqivT/DOgXM6p1OX2FKrmHFXoQ6pdoxM15/K1W/F6NgB6d6EQnX073bhM/4fnYFkMuyxYa6C0Hs1IXTfvBWbE61EfPVHK3gmUM0ClWk5zu+/cg+eDbiCcp051+yIZK7sYYl1UVsT5jGXZyxjJIgjkta6FLcDeXIb9cmc54+5qeBacRsY17kNgeTHZTZXsF+jQB7NAppPedQHrXkVDZ3lLzK7eq3vL0JUiNpLL9YC7bx59rgFidZ+GWqQNZpDJEqiyEeysb77h8Tz15Mz+v+/Psyi95B0StxyGeeBPi7WYQn/eE6G+l4ZEJj0GvS/dUxmegq4CbXOX6jCC3EvVCV7n5taOfyvbUn2fHvTbikeOeQW8Z8XgHvVW2J9Bz2+OM8jd4oCdFb0N+P7K2HFCvKYF+7iqkxs1F8osRSDTqjPhLDRG790W4Ze+HLEo59RUgBZXfVVgOhefwczT1UIg2rNXOsGEtvwpdb7+jhTm1HoNDq35pXM0AnUNjrrfkfvEav2bf0K9fPA85aana8Jap5E5A5z761Muy3Sg4j772Ib9X69aNSu7RiU50rm2MS/aZeY/bdpRyuVMfvYVW6AT1xv3gzJgPhxLjCNwG5CGF7hxXO9GDC1oOsDGOyu6J+i0Rd6sjVlRtvgob4zivXJZDrFVv5QKevlRB3ADdugz0vJ6n8BgCHkHR7FKnFauBwBcqP/ugp8ekRtMHTiJtl+036bL9OrtsvzlUtqf57xaIPfEm3FqPc9lectmexup0f17eqkBPSp4u9ecpPKdoZYiydVTk7XPvQXz4OUTH/hCDJ0JMmK8+tCwkyK8PmfG0og/33UOKPRPcVbqe9RyH8OixPVO2X7oJko14Ycc9fUA6G1hN68/OW6Cn1bM7taKncTrttCfIM+jpNV22Gem5K5EaMxvJrkORaNgR8ec/Quzu5+GWvheyKFVtKD2wHFxZUZviwutSr3btjWwE9MoQdz6pJjXOndE9dHtkLT/gtr+3gR2Gdxjo1q9dOAs5fkluhW6rczLFdZ9yRbYeCvHAi6/ye/XNN6PlLNGJTnSucvRsa+FBC4q6HUb/QdJayRaDryh17gOddqM7tMwiAPIMLncD9GNqdI0V+v49yuneuhcSkpa03JEhKa4GZOEakAVKwa3fHHLVdgVsAhqV3mdQ+V2V4D2lnk/I85/BCXGrFOwIWuQcp81rG/cgpufAA+NhVtmeTXhctj+K9Hat5qnEvMGCPBnIlmxEauYyJEmJ9h6NRNOuiL/WCLGHXoGs/BDkjdVV2T5eUql5Ktu7IdBTf55+D/XnKz0A8cALEC9/DNGoI0T3oWqsbspCNS5HSn6xrehtI50PeFOC98vzQbjnBr2uDmjQ04cI+kBBq22pCiKNEY920O84jORe5WtgIx69bpyKZxnxPCMjKXo9Q2/681sM6NXlVsiyTap0z2a8sUg27YH4s5/CLfGAXlpzfaY4X6FXhqzztM5wP6NT4q6n5H41VZ4X4DOo9PNnIEcvVJvcelq573b/vPvkK/S9aDYA4q6nnuD3agT06EQnOtc4XliF22H0Htl2NGSLoZcY5gbotKSlxyi1G52z3DOU20PBMo4xxtEs+v69cE4fRXzQOCTSd+RZcpc0upaoCFnyXojPe0MMm+rPhGszmLeUhcGuIB8GehjswefMEhcDed2zJnAt2QCXAl+o/EzjYTuPqJz2w2eCZXt6zGNhqrec3kll+wNKzVOJed0uTnFL6bK9N/s9YgYSXahs3w7xFz5A7J5nIcvWUSrdK9trEx5B3oCevpJJj/rzJWpxH1jF3jaGaN4dovcoiNEzIaYtUSCmUvpiUvSkujWwbdDnAXUf7hSwo1W7eWzy8k0ID0PelO03aiPedu1roEqIcdxrA6OBvN4/74GeZ+j90UTPcb/9MH+Ayj54EtnUIjlwCm63ET7Q86XS/cUsDHS3EsR9z8IxS1nCCj1fQM9LsWdS5Bmg/tUFnn+XIxb4QDfjavbtpoHeuM9lWbNuHX6DRvvQoxOd6OTfGDduImdMkzHOAL3FYAhyurcdBLFnp9pCxQC/mkKne8gHOo2uHT+M2OyFSN5wX2hBiwE6qVfVQ5eJCsosReayWo9BPPUWxAetrFL0PKXWtQpltUrQJ2hryDPwQ3BXil/nuc/SC1zoKz/2V7MGdqnzQpZNajyM96gfUGpe71Gn+FYCFPeaCVxctj+F9J5jqmxPqnMjqXl/bp4DXpZvRmquVbZv2wfxd1sg9uRbcGs/AXkr7ULXsbdcttf9+Bj15w3oaayuDGThSpCl7oS4/Ukde9sCok0fiAHj/bE6AjBBngCsFT2D2nPM22V5E6az1n9sXZOqF36e2wF86QOFLtuv2AK5Zgf7GlT0rWp5kOOeoU4qPi/Qs+ueAnOOIbFpL5wuA9WmNeqjFwlBvZCdGGepczO3boD+wPNwTp9U5XbPFKd76Pk2xeVVXr9WGV4D/fQpyKHzrGUtIaDT810J6NMgPu3xf2JV76ms3qiqPRad6EQnOtc0xsW7TmzGiXEtBvsK3Tjdm/aDWL9epWuREg+Mq2UAOvXQTfwrbV2jTPeNm5As/ZhyugdG11TJ3c2irWtV9JKW8qr8zFGuN0O6JSAoypUS3qrpxSy0ZtULflEKlUHM8a3+LnUDet9g5+9X94Hur19l5a6VfODShwZLzav4VuoxW2EvVumZA19I0VMZ38zO22V7reZV2X470qu2qWx2LtvP0WX7boi93gjuw6/CrfIw5E30wcek4VHZnkx4t/FVjvsSELGSELTgplgViHL3QN7zLMTzDSA+bgvReSDE0Ml6rI7K9gryfOnDi6foCfQW4D3IW/32EOy9VD0b7vZj+ncsWa9Bv5V30LvGiLdLOe7JsMhVEFpHq3fPk7eBPnAVfOMTuDeYMbR8mOG8krsGuqwI+dCLalqD16bqOfTrdrlnAnpe/fXQr311EeLkCciBs32gh8fVbKB/1PXbAqWq3KrfqVH0a3SiE51rHF3KS/SY+ojLW9fIGDf4imwxCOpSH70vnPlLlNOdgZ7H9UxxwTx3WtxBW66SdV5HLFnTWtLiK3Tjcqe96DJVUW8KU5dgzo8p0c2UpgleVIqmgJiyd0NQf/S59zW4BkEMmQwxURvLzIgXueKpzE7A5l68GY3TEDcjchTvagPeuv7GNg15/fZQAI4AACAASURBVCFCrVfVZrL1xoSnQOXNgDPklRJlNU/hOaZsv5XK9qTm9+iAHK3mySW+0A/JSXYZgvgn7RF/4UPE7nkOshwZyKrosv1t2m1PJfvb1KXHdGmszsTeVn4I4sGXIF79RMfeDocYOR1iymL1Oi3ZwFcu2qCCbDzQ6+speW2qs2FuIB6CO1cFwpCn14z682zE2+yBnkfr6PWg7IFtB+H0HAbn6fqQN96dD6e7pc7tHrqsCPHIyyrD/cxp3xT3o8fWwiDPVGYPl9wvQh47Btl/lgI3O9ozKfRJV2jNqmjQ6Y8FChQoot+pEdCjE53o5M8YlzUm5ybZbtRfeHWqDXTqozfqCzFuOsTZE3kDPTC2Zjvd9yun+9GDSLz0GeKx6nCL2FvXfIVOC1pcb41qBaXS46XYFS4K3KxAHrsVglapkmIn0JNbnIxmOgiGHeQEruK0ZvURyLqvQ771GUSLHhB9xkCMmQUxLUeD2MS3rtLK3C7RW0APA97atW7g7i1zMfvXTbKbt3Vth+UYNyN1Z5Eyav6Ymv1Oa6e4KttT5C2peZqd9+fm2YS3jMr2K1XZ3iyxebclYvXehnv7k5C33sFle+ml4SkTHqezEehNf57K+uTKp9jbGhR7+4aKvW3VA6LfmOBYHf1dGPTada9Vu9dnD5fkNcADJXpy7fO1VTw5+Nf5+fn0PcN+Hf//47TqBqfea5A33Q032wZ6BrB7SXI20O+EFBUgHntV7UA/45fcnfM20H/MLHp+wU6hMhchDx+F22eGD/QwzLsx0C8z0N9r/1saQtHv1Ajo0YlOdK551A8KoKDbcewh2WYUldkvB4DeuD+cvmPgUBpcpnL7iSNwQi53Ly2ORtf2aWNck+5IyGrK6R7Oczcb1wjoNH8sSiFW5RGk+o1TsHqnuUp0q/Yol565rEzjYAVuUpvWaPEKK3mj5kspYPGSFq3mi1aCLFcHwpShG1K622CV7jZxgYK1ARSVnees0r12PfduleINvH21bq7etU5Qt55jl703N6+WsUgKyKGMdlLzZMLzRup8NZ+2+spqdt6KvOVc+11Ir9GgX7kNqRwq2y/lbPtkH4ps7YbYG43hPvIa3KqPQN5Uwy/bU5WDy/SUz15S7UWnhDb6AEUflKj6UfpuiDufUrG3DSj2th/EIO1loNeC4E6QX2yB3pjo7JG4QJ/dUuy5rhrPU2X9NfzaOy26ouBTr8FloJuNa6GeuQE5w9xKidNAd0UFOE+8BodK7aTSbYX+o7PcM42m5WGeu6iBfuCQynDvbs2cexnunkK/LHtMh3i37ekCBQqY+fMI6NGJTnTycfRIjOw4bjrvRm8xWBvjCOiDlNO94xA4+/cop3smdW6S4riH7it0WoYh9u3hPPh4n5FIJGsphV4otymOFXp2NWWMu6EWsuesRDY5pQlgVIIl9/iidUhNWYxk37GIN+2K2CsN4d77PCQFvVCAC4GKVqqymr+NjWWqbE/l+zJeb978Oo+JkZqv8ShE3dd9ddp3TGCXOoeyaNAzoI2iN4a6ALzV9WJeDeTt3ep6mQtHwPJ6VWVcczmjXQXkBIJeSL0HQK9MeL7b/rBftje59makzpTtpy5GcuQMJLoOQbxhO8Rf/BAxeu102Z4S2rhsz7n2BPaSGvRkxLvVj729oSpEeYq9fV7H3raH6DpYTSZMWaQqHotV2Z6+clndUvQG9EEzXYZyPb0usxXQnSdfgbzxrpBCt8vsdphMWKHfAemUh6j3huqb2wrd21/+cyXF5R0oQznucs8BNX9ueuc2yFmhT/aA7rz1+V7rXRoBPTrRiU7+jXGy66TPZUcyxg26xDBvrm+zQRDN+8PZshniTIayuwF6WKFTD51n0ffBOXEY7tQ5SBS9xzLF2T103UfPrgo3URE3DJ+BQl/+VqWR7T2mUt2oBE0jYgQuCijhNLK9SFH5ec4KBav2/RF/rxXcx+vDrfYIBKl56i8TpKhsT+axREmlQA3kdW/eVvM8Tuap+Q+Can6SUfM66MUY8azSPF9dflcANz13e+2qlese+sqJcPPtHeo60W3zfsR32ItYNOTN3Lcu26epbM8mPIq83e8vsCHIc9l+m3rd5q5E0pTt2/VD/P2WiNd7B+7t9eDedie76NUSG8plp7n529h4l7s/Xx7ylpqQVR9WsbevfQrRrAtEz5EQo7Rpkf4+Szaq6gQBn0C/QPfobch7Lvs1PJ7otOoO547Hco+tkbvdU+ShPrpR56aHTkB/5k0F9NOngj10T6H/G/PcSaET0HfsDTrbAzDXQO826ZL8Yjqc+i3X8/sz2oUenehE53pH1+K9ptSTZIxjd7sFdBpfa9wHTs5yOGdPKiWeC+j22Jod/3oQzsF97HR316xD4tZHEOPUr9wrVFmpJyoiUeZBFKPxMCo/U7gLL2LxgZVlR7cSsIyCpzExXsyyHylarUqqdNJCJHqPRvyzzoi9+BHcOs9ClrxTpbmRI9zrzasys+rNl1WPdW9eml/PS833GwsxZo5S80ZtW+tVg6V5X8GHAR++4b3rngFPL69RG9e28yKW+Fadz65H6jw1bwW8KBOeFXlLap7d9kbNb1ORt+S2n7VUZdv3GYN48+6I1/8MsUdfVy2PW2qquXjyN1AvXgZBr5LxbuN96ILG726l2NvHIJ54Q8Xetu6pXrOxcyBmLlXl9yUbOafflO4Z6vwhaSWcJh0gilXPECwTehzOb2eFXlsDvRzEc2/zmJrjAf3fsT41L6ArhS627M7dMw/AXAO9+1SI15st4vdnr2gXenSiE538Hq0Akv1n3ybbjPxWOd0HKWOcAfqnfeDQbnQ2xh3JXG6nfehGoQfy3Pepu3snkrVfQixFTnd7QYs2xhWqDjdZGe4td6noV/oBT9Bau9OPbjXA8sxkBPmzepGICinhGfCAkt+vLs2DL92kRsOGTUWiTV/E326GGBnnKM2NSsmkRslAVvBmFfZCvXjbbW+peTabkUGP1fw9Ss2/8EGwBD1Jh+OYQBY7utWAPp9At1V8QMmbWXLKwCcFvFyreTLhcZpbMNfec9sfPR+MvOWyvZ6d93bO65G65VvUB6Rpi5GiSki3oUh80gHxlz6Ce98LcCvcr14/KtvTByUGverN0wcjfsxlfBN7S/15Wkv7FMRT70C81xKiTW+I/uMU6Mm4SH+3GTk8pujGKvpjaHafPOM1v88yxRUsB/Hie3AunvOA7tj70C/+PwD6ry5CbtypoB1W56bcru4PFA0rXv5sMr8/o13o0YlOdK7jqP7czp1Sth99inejNx90OaDSP+2rdqOfOppnyd3Lcs+woMUhp/uh/Ug809Byulsw1ypdpqtCZldDbOAkZSAj1UvjZdSvJlPZwnVwl+ro1k17OX40wfGjvplMqflzWpWeVqNhrOYPKtAbwNOlhDfan86bwuYh8cUIxD/pgNjzDeDe+ZQKeaE93sZpT/13Uu6s5stCZmnYe3Pzt0DGTW++llLzj5GabwrRupdWpsY5TiV13wDGoOd+uwm4CQN+VeAy8DjTXee6GxVvfo0qBNSTpvnvZZs4tjW23qxVzTBSZ69UJe8CVUHCZXuj5rUJjz8gGbf9kMlctk+83xqxp96Fe8dTcEvepcJvkmUhpOrPc1+epxds0JdUq1PpwxEF5dAim0dehbj3OcjsSqol40Ha6qOH4c7GuDDQ74BbsCzEKw3gfHnOKrmfgTifqeT+b4C76aGv3aZy3K8F9C6TIF5oOJTfl9GmtehEJzo/Zh5ddhw3T7YfSxD/wVfog5TTveswtRudol89ZZ5HD90quTPQyRh36ijiDTtaTnc//lXS2Fo29dCrw41XgNtuoJqDnp4DOXOpf0mxEQwp351GzAhiPB62kRPdYlR+3nYQyT3HkWIzmVLznOhG6tRki9s9Zk/Na8hv3ofUul1ILd6A1Iyl3F+Ot+qFeP0mKpu9wv0QNPtNI1+s5m/Rar60KtdrRU8l56CaL62AVV6pecdT80N01C0ZylZ6DnDh9eeNaz433AN71ek5Vv/WylX9nAd4Y/DjRSwbISi2lWa/NwaXsKTpdeP96Re9sn1al+1pb7qKvNVlezsJj9T8Cl22n6nL9n3HIEFl+zetsv3N9P85le3V7nMu0xPk9RUG9rR9LU2TDzUVnLmUfhV1ngvouuReoCzE6x9BfHUe4pQOl+GSu5lFDwP9/L9FoYuVWyA7TwrB3AO52sJGQKfUxmc+/ILfmxHQoxOd6PwoY1y3iZ3ZGEdAtxU6Od1b9Yeg3eiUh80ldrvcfiQz0NnproDunD6GeLchSMRrqh+ygQUtqofuFqoBWbAU3A/bq5I7malmEMgJ4qHrQV59r6C/XKlbAiG5xmkGnLat0TIRL3rUj21lUHm7v0/6QS92X54hr0rRqeVbObY1OXaOcot/1BaxZ96FW+sJSFLk1Ft2Q2reQD5L9ebDc/Pcm6ec9pp6DvxtreZN+Zn6zMYgx6YxmvteldtNr0vwHsC1Ws9rv3ow411VC7g3721boyUs+xCn141MeJRrb6ogvD/d3pt+MnfkrRmpI6f9yi1ctk8vMG776Uh2G4r4px25bB+77wXI8vf7ITmk5h1S7pQ1UBmSTJThFape/1yX4W13u3G4a6DLAmUg3mwI5xcXrgH0f1Pp3Sj0pRshO08MOdzDQJ90SbYfA/nE25/zezMCenSiE53rOrpPF+s25QVOjGs+6Irvch8I2XQg5Gd9IFat5vhMLq+HgE7POQGgq41rPLq2fy/EicOIjZuBROG7Lae7VXKnsmphDfRnP+SlH2LWMgY2l97pskI3Kl1B3MDdXAV52tJG3y9jpzSXsefa29Z00AvFtuolLOE0NxXbagx4OrbV9OUJ8ObqcbokLWHpPx6J5l8g9lojuPe/BLfcvRC0Nz2RSc2XUyV7ul5vvniwN09q/t7nIF78AOLT9hDdzNY1PR6md6grV7hS88FSvVHyQYjb11PzAdgbNa8T3bg3v9nbUqdG6o4iRdn1xtNgIM+v3Tk1O7/fLttTSI5eR2t687TAxi7bD6KQnD6Iv9cS8Wdp9/yLcG+7F25am+Iyld3t0nvAEOcrdFmgNMS7jeD88iKck2pBi5Mn0P8Nap2BfkGN73U0QCeIh8rtBPSuky/LNiPg1H39Y35vRrvQoxOd6PyYknu839Ryss2I72XLIR7UBQGd++i94cxcAIdG1zyg61AZBvrh4PpUG+i0pIUy3ZevQqL4g0qdW6NrkjauEdCpj56qBFn8LsjPe0FyJOkiiNm6P0xfZ1Fk61IFeIa8Ue3Ub/chbuDuf2+ueo6DYkjdErR00EvMOMa9/d/hbHZSpAQqKtnrNDfbfEfQIshv2MNjYcnZK5AcNROJTgMRb9AasSfehlvjMS45s4GMw3HMOJ024FHSHV122qsAGAY9qXmzdY1S3R7XrvHPtZqnZSyzdKqbWcLCal6n4RklH1Lp4e8zQ54AH1TzwlPzZqRun1qpqkfq0pnU/BFS86HI28ACm+1Ir96m8u319ynyTHzcCW6WtRM9F9DD7vbb/VtUA/2DphC/+pI3rvku90zxr5mAfv6nA/0XF1R0LgGdgmX8nrkF9Imk0K+IlkMgHnrpdX5vRqtToxOd6PwoY1xOTky2HXWRd6OTMa6ZVujNB0J+0hvOiClcOldAD93wPnS+ZIo7AEGjawf3QezYjkTVZ7TT3QJ6lh//yjdZQcWWUiTpXfVUstunHSC6D1MKlfrNNAuu89m9bWsG7JZql7mAnvuqX9dBMRzdqkbDXOoxG5f9TnLZnwxsWjPb1nixCG0IM6AiNR+GPBnwCFDkFp+8EAkaCWvSBfGXKRznOcjSFI5TKXc4jmfAK5crBc/05gUtYyl/r1bzHyo17+1QX6RgrNW8Ar0GtAZ9GPDB0rzZymagrp31+npZ+ZzrTmp+A0RgpE5tWkvp144nEwzkzUraQ/aHJB2SQzvTdxxCavsh/sAib6BgGV12D5Te7e9DhjgNdLdAKTgfN4fz6y95QYpa0KKA7vDNS6XbIM8E9nzCnoF+HnLWKg308KiaDfTJkLQLvc4z9fg9GQE9OtGJzvUfNb4W6zgmR7YbQxC/5JXc6TbqC6fnSLUb3e6de0C39qGbkrtxuhPMqex+YC8SjzdAPF49MLpGQGdTnBcBS0tayqkxJ3ELb12jHHdZqDxEqTsg7qwH8ey7EB+3gehCy1h0fKt2w3v57B7kTWk+E9Bpvzp9IFjuPWbAcyVAr2Glkr29UnWNlc1uSvas5hWoOMmNDXhngmVnY8BjyO9TkF+/B6mcTUjSON3waUi07YfYOy3gPlZfxbXeWE33lf1wHI6ypd68UfO0SpWd9jq3ncbFyHRWorbqzZOaf4fUfG9/tSr9vbzVqibJTc/OG8e83WfXKp2nD/Q1z5vHuSBPO9VNb56qICYgx8u1P4YUleap8qE3rfmZAyryNrZ0Iwo2aA5J29ZMUpw9vpZLnWcCekmIT1vB+fVXXsndV+hmL/r5fEL9Ryr0L89BTlsO2ckA3YY5ldrpTrzC3zfqdUXe/si9/LaMdqFHJzrR+bHGuFjncT05ArbZwB9E84Gq5M499P4QbQfCod3oJ4+ruXML6I4Hcx/oDgXLsELfryJgTxxG/P02iMuq1uiaVuj2XvQ0Ab2CmlnmVLcyEKnSqizNkFerVXnhCJvKakLUqgvx5JsQ7zWHaNcXYuAEfye4GfciMDPol3tmu6B698FulrV4j+3fozezMfTMSlXam75eK1I7slWDSrnszd50PfvNM/MHLSWvIU8GPMpmp3G6ifOR7DGCDWSx5z+Ee/czHI7DoS0EblLzZLKjx9SLN5C3NtRRyZ7Hw+h7W82/9BHEpx2Vmh8xHWKq3rhmevM0207Km1fS+q56v89uw94HvdmvrqCuYnO9nHyzhpXUvC7b84QCmRepEqJn57M5v/4knGFT4Dz3pl7Oop3uASf7VdQ5A/1OSAJ649ZwfvMVxInjPwLo+VHrma7+ffxnn4WclJMH0HX/vAsBfQpEwy/+WaDyA1X1GzPahR6d6ETnOk+OMcZNfMNtN4pAfoVK7aLpAEh9RZM+cDashzhNffTDeTjcNdCPapc79dFJoe/dzZnusQ79EXf1LHqhkNOdN65phU5b10ilkzqN36bnv0tDkIksuxwEXfo1MpAR5CU5x3U/mn7fTdUgqjyookhpf3qLL3RGu9m4pke+7Gx2NtOFAE9K3QK72a2eC/ge5M0o3Qa4tDddR7Yqlz25xVXJ3stl1+N0nOTmJeBZLnsDerprdyG9eAOSNE43ZAoSn/dG/M2miD36GmSlByGL2eE4tyiY0/hcqDfPc99azbOyv5qaHz9P/d0I8np3ejAkJzT7biv4wLWAHnrsfa/7/0bRu1S+b9dHLWe5uQ7cLDO6Zqlybxb9GkBv2hbiN7/gD6OOVXIPAN3A90cDPa+S/HmOmpXjFiuXe8AIZxT6RMguExTQP+zytwK31Sqp35lRjnt0ohOd6zy6tBfrO72K+/nwf3IELEHdAJ36ep/2grNgCWe6KxNcuIfuL2dxGOYK6LxGlUbXKNN9xGQksugHcO0MQLe2rqUrQWZVgoyVgntzLRU5mmUZyYS/gIUjW7PLQ9LNKqOeow8AvDr0FrWQJWE5x2mxyMsfQTTuqPaBkzqlXjPB3axUZdBbkGfQ5wHyq14d+Wo2rVF/efV2uJv2cNmZ1CjnsuuSPbnF+SvNgofXqW611DwpeXaO70FqhTVOR+NgH7dD7Nn34d5RD24JFY4jXIq6VbvkGeL0YchT8+UyqnmvN28WsTTSPoaRlpon+BLoF663ZudtwBulHlTuRskbsAe+culeeSOcVl/AqfcqJAE90EO3S+32QhYb6rV9oDdrD+e3v2CFroAe2omuFbpjgz1fiv1qSt36vedOQ45aEAI6z53rcjsp9AlXOPa1Qaf/KVCgcFH9zoyAHp3oROe6j/rBMSInKduO+hXvRm826LICen8GOhnjaDe6c+a4r9CP5Qa6w0C3FrQQ0PfvVU73RUuRuOl+aye63rgW6KFTmEhVCKck4nc+i+xlm5CatwrJwZMRb92bQ17cB1+GLHuvWvNJgSQFbvZz1wneZCbLLseQJ1XPypWeN4YyuqT8Kdfd68u/B/FRG4jOAyGGTvbXqpqyMqlvWrzCZXltqLsWzPmGnue96tqMRj1m6i+v2qqT3KhkfzS4Zc1AnhLwqGTPueyWAc/05TeZuxepNTuQWrQeqWlLkBwwAYkWPRB7vTFi9LpRVGtRMh+Smi8BUZD2pdOHI2pvlOP+O384SmXozWcbNU/57PUh3mmuYlsHkpqfqz4EsZr3N60ZNe+9jhmUe1CxE9BXaaB3V0C/yTLFeTC3lHnA4R6cQ6ceutOyA5zf/hKOKbmfU6NrzvlQyd2+1wS7DfS8FLu+Z05BDp+ng2UMzCf56twG+rvt/qNAgQKpwPsyOtGJTnSu8/APD7f96NW8qKXZwEtcatdAF5/00bvRc/fPc5fcg/GvPLpGpfctW5CoUA+xNOW3G2Oc3rZmgJ5dFZIS40rUQaFlm9VMOPWbqRzNM+GHufzM89/j5iLReTDiDT7nnemy8sN+Ljv1l00ue9yHPKt5Uvv0vSnZe4tYqC9fVvXlKbr1cQOtPr6hjGDuQV6rebvPfjWw653q9n5173IaHPXlaTPZBkhTst+yD/Gdh71gHA/ybMDTJftwXKtdsqdEN051U+N0KRqnGz0Lic6DEP/gcxXVWvMJyFtqq/I7wZ178yXUhyWvZF9ejdvpFDyGPKv5Mqrc7zntP4JoRNWPYbo3v8RT83bZnuFt+u9eD56e0+57AnqbHnDueVKPOoZ752FVnkGh8xz6bXBadWKgB3rotEL1akAPgzzPsnwY6KF/hu6pk5CD5miFngnoEyE7T7hMQHfebnOW3ob2ezI60YlOdH6UMc7tMHag7DCWjXFGoYtm/dnpLjoOhnOADG7HMo+skTrXQA+U3A/s5Z3qlBqXeOgtxCynux/9SkCvxo+lWx43Dp2Kwr/6L4YVQZ1nmPeYdaqH/UtKdcdhpDbsRipnI5JTFiPRc6TKZX/mPbg1H4e8qQb35BlC7BbXO765L68gz7An9zhBPkHxoyX8tapUgr6xKkTlB2hGGOL1RhDNu0H0GQ0xehbE9CV6I5rZtGac9suvDnkb6Bkhr8132qxmSvYc8ELBOFyyPx3IZOd71Bjw9Gu2M2TA05BPUclej9MlJy9CgnfNd0P8lU8Qu+9FyDL3QBaprLan0WvnWGpeQ55vqqyKbtVz89ynt9S85A9Gdm+enPbLtNN+gyrbE+h505paYEOvByl0cUttfw79mjC3+ucW0EWbLhAG6GdOw6EeOpfcrXCZvGCeF9xzPZ8H0OnriROQ/WeBctp9Z7sGeRjob7Xeb70rI6BHJzrR+fHGOLfrxPdYoTcd6JXcWaU36Q/RvK/ajU5Od1Lj9tpUdrobdW5K7gf9BS17dzPs4/VbIO4ap7sV/coKvRrnd1NqXNbsFWr5CkFLp7nZq1RZmXJQCQHriIIW9ZpJodLjnUeQ2rRPqVIaC+s/HvGmXdUq1TufhqT+clYFtQLUi2vVfXlS6cZ8Z2JbyWXPylQ7y7kvXwmi7N1q2xolupk+8wiT6Kb653znrlaADjnpZV4gt3arm+99yOs/l3emqyx7z2W/R69S5Sx7vXiFw11Cap6qHQx5UvN+uZ4vbVzL2YjUrGVIjpiud8235CqIW70uf0Ay4TiSevP0GrIBr4wPeerNx8O9+TIqC99sqPP2zQ/S++bnc9meDXLzVsN5sYGq1oThbX+fC+wa5h7QS0K07+YpdOeM6aHrBS2s0K+i0vNS7Pm55p85dgyyz4wQ0ENQ7zzhkuw6Bc4bLTZGP7+iE53o/CzGOPeLKbVk6+E/CJpDbzrgigG6oEz3Rr3gLFvOxjgF9BDUrbE1z+VOCp2d7rtQkJzurXuFRtd8oHtQpwzvrkNViZYyyynoZYVOc9tG898E+dO5tqyxKmXH+PGQkj/kq/ktB5BauRXJOSuVW7xVL+4v0ypQCnjxRsLsfekEeW0kYzWvIc8rVqlkT8Bi17hOdLvtdojbn4R4+h2ID1pDdBwAMcTqy5vesVey16C3++yZbhjsNuw5JEZtWTMl+5hJcaNgnH3WhjUvqlWreRPuYq+gNRvpDOQp1Y12ps9fjeTEBUj2GoV4486Iv/gRYnWeg1vqbohC5Gkorfrypu9Or1NIzdspeJxpTx8ObqoOUekBZcJ79n1+7eQNNSDT1SC93vi1biaFXhKi4xcZeuh2yT2fQA8r90yP7ecunOelMPLwEche00xeuwVzz+FO9xKvTn2t6RL1fox2oUcnOtH5ieEyN43PyZJtRv5OthhC6twDOhvjGvaCmDob4jQp9EOBQJnwHHqgh65H1wqePIzYoHFIpGtb4TJGpWuYF6oOKcrAbdwFcvE6Vrq8qIXGzaYvVaVaKssy5Ld4W9YSe4/p8rOe/6bLRjJblRolf1gpeQI9L2Q5xBvDUvPXcFxrvH1/xN5ujtgjr6kNa5zJbqW4cdm5tIpotfryXpobgZ1H6VR+O69ZvaUGRPVHIOq+rpawUGwr9+VpCcsyH/KWAS9Qog+DPXD1Rrbw8yYkhkbpyJHOWfZUslfhLmZfOkP9hAY9u+xVAp5nwKPXLUPJniFPefa0YY3G6YZOQaJNH8Tptav7BmQV8jRQpG85CNqsRq8fLV9JmDx7M51QDjJBI3XkZ9CgF7eqKGD+bySU5Z6pn56xh367Anrnnjy25hiFzurclN2tveg/FupXBfoFyP2HIHtM9R3tYXXOUJ+oVqe+9Nk0fjtGu9CjE53o/BxHthu1mZZEyKb9L3kKvakG+pAJcE4ehTgaSogzKXEhUxxvXKNwGeqhHz0AOWchEjfcY61QtcfWqkHSkpYCJeG+9hnkVRywqwAAIABJREFU4g0QUxZDMNDzuJTpTtBjyK9Tka0UVLLtgLUSVI+Fabe4GQtTkaNHM0BePzbLV2hfetchiH3QBu4Tb8GtSqCqBkG7vgvac9/afMfz8qovz5Dnkj2N0qmSPZf5zWhYxfshHngR4rVPIJp2heg1CmKUnpdnV7i/M13l2RPUl+cD7jr1Lfy8iXs1fXm9YY1c9vEt2mXvLV7R6XfagJeV0YCnF9XYkN/gj9Olxs9FovtwxBt2QOy5D1S749Y7IHjXfCnLgKfG6RjuhSpCFlLTDpT177vXrw/okoFeCqJbHzi/MWNrp9QcujeL7pfdnetR6vnpuxug796v9qCHjXA+zMkwx6tTxfMNR/CbMAJ6dKITnZ909A8Rt/3YEbQbXTQZ8EMA6J/25a1ftBudF7Pkcrj7c+hmJzqnxR3ax6Y4+io3bkCidF3E0jW9rWtmOQupdNco9Efqc1IZA53mnkMglwQ8vhkAz0peRcHS6BSvUuVcdmssjJLb7A1rxkhmcsXtnjyDniB/GCmKa12ykVeBJqjs/GlHuM+8D0lrVGlmnsrHwopqNQ57AhWX68t7kGel6uqSvVm5WrgiRJm7Ie5+WuXY0970bkOCm9aox0ygN47wPNW7gbq1hU2vXQ38ulHy5DQnBzqV7HWWPa9RJT8CB+P4JXul5q3XjVfQ6tct7LInyJMBj8fp1iFF2+kGTkS8VU/E3vgM7kOvwOUVqlUhEmUhHHpNSkEmKvpADwTKZDLH2eV2audQFeh23uAnevbnpDhPobMpjsbWCOp5ldzt566zLG8Bnda2yh17/Lz2TDCnkjsBvcM4OE836MXvxWh1anSiE52fxeneaVxDNsY1GXCZ59C1KU427gfRqh/Ezm0QJ48Fy+5HM/XQ1U50Lrmz030vnN07kajzGmIJ2oFeO7RGVbvdExXglr4XcsI8pbxNNjvBelomwOdkuAbwuSFPZjJ32WbEKJedIkd30/IVA3ntGNf70j3Is8Pe9OMN5BXoUxTXSua7GcuQYPNdN8Re+hjuXc+wGuVwFyo1s/lOqVEVimOUPIFeJeNRyZ57zzz/rXv49Ou0rKb24xBPvgXxfiuIDv0hBk+CmEhGshUK8gx6nbse6Ldbqj0A8WtdPT/ulezJZb9Dley3HURyj3HZ+8E4Ks/eSsDba62gzQT5dbt4q1py1nK1nY7GED/piPjzDeHWeFr/N2KV3PMcVbOhXtsHulMaos8gOL9WCp1mwg3Qg+EymQD+ExU7/dkE9M27MpfZPajrHnrb0XCefKctvxcjoEcnOtH5OYxxstvkOrLVsMs8f6776Ax0cro36g1n9epAH51groCux9YsoIvD+71ZdLFvN6v7+MuNESOne2Eb6Grjmop/rQKZKA9Z/VGINxpBtO7ph5fQohXTX2bIL1WzzgT5qRkgPz10+TkNebO0heC1cC1cb/mKNpJZW8I8852BvN1f3pFBzW/ez+a7FJnvhk5FvHUvpUYfeEmNg7GBrJRKcDMGMjbfqeQ7A3k1Suen3/EonenL31wdoupDEI++CvFmE4hWPfU6Vd2XpwqHF9WqevOea/66wB66JhSGSva8fjZYsqftamZXutmuphLwbAPeUX+7mtlIR6Cn7+kDgH4N3Q6DIBno+THG2UCnUbfakKI0xIChajmLN7amd6LnAvq1LqXJXQfoDdDX71BKPKM69xT6Zfn5cDiPvvEJvxejXejRiU50fg5jXOFRs4rINsN/L5oP9oxxDHP6+klPiNkLFNAJ3Ead6x66vz7VAJ366KTQ90Hs2Q3n1BHEaNZZ+E53mWF0jTPd3VIKYKRab6oKUe1hlTdOS1ja94UYNFHljRO8jBo1kM/Vb88D8OE7QxvvCHhUfl66kVVpfNNetTxEl579TPbz3oa1QCa7DXgD+a0H1dw3me9Gz0aiwwDE3m2B2KNvwK34IGRR+iBjQnFs853JsFcle1b2epROlewp4pb2qpdWY2EV7oW4/3mIVz6GaNIZotdIiFEz1evA425rVWmdVqmy0z5spLveqzPd9ShdIBhnkw7GsVz2WccvIuvERW8M0ZuZp+kE6s1ziNARJGl96sDxKvo1q3ZwFv1aDndq5xSqBSnLQAweAaGB7uSl0K8K9nApPj9AP6f+fAL6mq00lgbZLQ913nk8/foVilwWD7xQn9+K0erU6EQnOj/xeEEWbrtRu2TrYQTxS4LVeT/VS/+4J8SoKRCnyBhnqfMMQOfLPXQ1i+7s2QWHnO59RiKRrOmHy5hyeyDPvTJkVkUv7EXBi8rQujdNGe7kHKdEN4ohNZCnTWsEecpfNyYyvWEtF+BzwVxf+7HZsc7ler18hWe/TcDLYV6jSpns6TDkAw77o3n05Q8hRea7xeuRnDBf5bF/2BaxJ9+GW60uj24JDsWhmFYz813KD3fxcux1+h1BnRewFNez9dSXp4jbOyHufEqNhH3cFqLLYIhhU9V+ed2GUCV7reavG/LWjvW5QfMdf3iwXfYb9uiS/TGkPdNiaIXq4TOILdsMp0ELuBz9eg2ney6g14YkoLtlIYaNhvOrL0PBMmf80TXP6Z4XzPOv4AOX/uxfXoBYsRmy4/irA73LBPX+uvepp/kNGAE9OtGJzs9njBs9XrYbTcr8B9m0HwOdDXKU6d5zBMSxg1Z+u7mHco+t6dE1h+JfOVzmAOTUOYgXpZWYpKIU0EmlyzDQ9dY1BpWjl7Jw/5mMZqRcS0PGdNgLwZ6CTW6prsbDSMm/S+tU+/jrVBnyJpmNIG/K8HavPQTyANjNc/qafekUWbpkI9yV2+Bu2I2EGQkLpbixGjVOcbvs7Cn5gwrwdNfr5Dsy3/UejXijTog9+wHc2vUgb6mllLqgvryGPCW1JS3zHTnsdV+eVT69bjwSpvvyvHq2ltqy9gStnm2hVs9S1WOC7ssT5BcaAx6tUdWmOgvyMhfQM19pfq/JdacPRpQOxyX7rYit24k4baaj14NaGXtPQAyfioLPvQV5y91KoV8n0BnqBPQRYxnoDgUiBYJl/LQ457pK73nBPqTijUKnikUHAvqkzOX2TuOv0GNBu9Dvqns/vw+jXejRiU50fi5jXLzT+CayDRnj+l0ioAtW6P0gG/eFaDtA7UY/YVS6FfkaCpbxFPrBfRz9SuV3uWYtErc+DNdyurPD3QM67UXXUE+VZ1jFH3hJhb+UukstVSEoFbhJQ96Ev5RWc+AEeaEhT/Gu1Guu/jBE3dcg3m6mFoqYbHYCs5nhNmtUGewa8rmgboC+LAh30483wTCkdOkH+UprVn6PgnyuFaqmt2xHtRrA0/y3VvOpjX7yXWLgBCSadUfs5U/g1nkW8rY7IbIrqs1qZhSM+/Jq6QpnsVvz8vw8pd/xKF1xlYJHH5xurAZRmVbPvgzxRmOIlnr17FirL2/WqJrtagEn/VXAzrvUMzwOrGBVfX+aTnDa9+X1qbK4LrlnhPjVgF4LMlYOzujxEL+8qIFOJXfjdFdAD8DcHmP7kaCnPjv32unDwi/Oc/IdOdhzjayxOjdAnwTxUfd/udXuqaHfiNEu9OhEJzo/8WhlkOgx6SHZcojqnTfpd4WBTir9M/raG86GDWq/tIa4p87N+lRvhaqeQyenO7ncaXxt53Ykbn8RsWR1C+hWD90odNq6VqAEki81RPauo37/mcNf+iH2TjO4D78KSYtBilRU6r2gBXmCub4qtITUrIY89eTJUFb3VYi3mqigl/7jFbg8yOuRsJlLM5TmQyDnS4/19wb45tdmr1QLSCgQZ/kWZSLbetCblbejWpVL3BoH26PNd2HI092yX898r0Ri2DTekx4LbKSrwhGsKr1NQZ7XpZJyt/ry/rw8xbWaUTrqy5eCoK12FNdKy1de+hCicSeIHsODffnQrnQP8hboVU67DfAg3NWv6Q9XM5fBadMTBesR0O/5UQpdZteCjJeDGDsRjg10a0FLIFwmDPYfpdqtf57+7K/Oq7+7DXRbnXsKfRLEB13+VqBCjVL6nRjluEcnOtH5iQfKGJc1YMZNsvXQP8tmA0mle0Cnfrpo2APOwiW+Mc4eWcsFdF+hM9DJ6X5wL2LPfBxwuvNSltDWNSHLIFH7aRSm/jOVqA3EKNmNytJsMtuB1II1SIyZjUTHAYi/2wLuI69CVrgP0kA+oOSp/1xaXVL5jgV5WsBS5UGIR16BePMz5a7vNxZi7GwNeWvu24zRGSNdRsDb11L25jku1/uQd9fRdjU/3CUAeROK42XYG4e9BXkDeu91WYskvy4DEXuvFWJ168Ot9BBEMQrFKQPprU8tqUDO8bamJ18+ULLn15EAb/ryNIpX8g6IO3TE7YefQ3TWmeyTF/p9ea83vzpPJc8wNx8CDNB521ovOI+/DHnTnZn3oV8N6ARz8mfEy8MZP9kDOpnigjvRg0BXytpS53mo93yV4en3f3kOcsYKyPYG6BNMkEwQ6BT7+n7HPxfIvvUG/U6MgB6d6ETnJx/1gwQo6LYZflC0HEqq/DLD/DNjjOsBMWEGxKljuYBOpjh1Ncy9tLh9vjHuxGHEGnZEXFSxlrQYda5L7pQSFiuPG8fPQ+Ff/U5tXPMc0VbuuIEZQWzbQQ/yyQVrkBw7R8GMIP+oiXGtpJW8zmqnx0bFayXP8DeQv6GK2rJGJej6pgQ9FmLMbOWmN6qS+/I2uK8F+ExX9+Sp9LxovReIw7Pyu6wxOhvyZlGNPfNtvy4G8vSVk++0+a77MMQ/aqfWp1Z/DPKmmjoUhyJai3sRrZLS8Lgvr8v2Rs1Tv5769rR0hcfuKJO9LOQtNSFo3PCxN9SGNd6XPgGCMgVMX37Reg167bLXmfZ2j16SQm/XG07tRyF53W5epXb/OWmHypA/g4CeKA9n0hQOeDFAt3eiK6D7UPcgHr4/RrnTn3vxLOTUpb5CD6tzuh3HKaC/2/Z3BQoUSAfeh9GJTnSi85OOdtjK9qOmyTYjCeQ/cLndKPSPqTxNu9H9cnsuQ5yXFLffAvo+7r1TprvbfQji8RrWLLptiqvqzaTHh02DS2llm/exK9peFxoYe/KWi9iK9YACPC1k0UpeQX6QUvKPvs6QlwbyBcKQL6O+krInZUr57KTwCfKV7vNXqbborvrMDPmcXEoz0G/PC+R5PW+Md6RgF6lAHHeNWbqi96Trme9AvO0RmpW3Ylo9dz0B3irZa/NdaloOEn3GING4C2LPfwj39qcgi6uNdCoUh1zz2nxHqp3g7znsg6N0pmTPZj2qBNCOeoq4ffBFiFc/hWjaRUXcjqHVszmqTE+5/bxCdQ2X3uWcVXBadYMsRv9N1LIWtBgVnkdCXAjogoA+ZRqcry74pjgDdC/+NVR2z3AN6APK/Wojb1xyp997FnLiEgX0rhbQqXdubsfxlxnob39+vkCBAjH9LoyAHp3oROfnM8bJTmNbkzFOfNbvkrSALj/p4+9GtzLcfUOc2oeuVqge4B46w5yd7rvY6e6On454YRpHqhUCuim50170cpDNe6gf+BQcoxPRXBp/Ilf0Vn8pSyq0XjUroOQPsXpXSv6Aeqwh7yn5zgN5Rahb93W4FSmGVAe/eEpe9eR5h3rKlKCLW6tUK0NUuA+OyWVvZu9LJ8jrnrFJcJtpQ96AXq9WtVeserC3oG+Md/PMnnQ9DrZpb+6YVg/yJr3N3qxmWhi+kk9tP2iZ75YjMXAiEs2/QOyVRnDveQGypN6qRjnsDHkVb8vz8zwvryCvlLxJv1PtDSrXU1+eX1faakcGRxqle/pdVbKn9DtS8/TBiAyLdV/X61NtYGdS6pmBTiV3kawAZ9pMVugiV8nddrqHlfq1VXsY7AETnXn+3GnIsQs10H1lLgzMO7FCZ6A79VsetEAeAT060YnOzze6Fu8+8QnZcqgywzXpd4WB/llfiEZ9IZr1gbN1MzvdObs912IWf2wtUHKnHjo53ZevRLz4A3CzyOle0zLEaaBTpnvBUpDvtFTjTZMWqlx3yjOnS6lwJjWOXNHLNyO2fpcVSarCXzhv3GSO64Usqd3HkPKU/AGVTrZVw15DPjFuLhKdB3mQl2HIB4x3ZXQ2uz//TctY+PeXv0eFvLza0F++kgvyVLLXwGY1n0GlG7h7G9gyPG8gT3vSKfWOZ+X3Ir6DxuhOIMmQp81qNuRD8bbGYW8gz/eQSr7T5rvk8OlItOmL+JvN4D70Ktxy1MqoqlenUlZACUg235VRyl2vTmXI87w8bVejD0W+y55DdEj5k5ovdy9/OKIcAsr5l1dV5Jn75+aDokxVgDNzNpvTwiV3cS4TzPOn2PMsydswp3vmFOTIeWoO3QK6p847jSegX5KdJ8F5vdmW6OdXdKITnX+LMS7Za/qtsuXQb2gxi/is3xVyuLPLne6nPeAsXw6H++gHVdnd65/b+9CNKU6Hy9DWNXK6b9+KeLVntdNd7UXPBHS33nuQBCkKQOF419BlyFv57tqhTh8CPDf5NjUXHlStZr2qVvIUWWqU/FYL8l65fi2S4+Yi3nkQYu+3gkvrQSs+AFnUrFYNKnlVrg9Cnh6zG984xl/+SCW59bSS3Ex+urcrXYOdIX8VqOd12YSmFrpQ6h3FtLoU7JJhVl6lt9kLV05ZDnsf8KmA+W67MiVSlaMTvTatEXv8LbhVHuHVqSJpQnFKqJE6vVveC8Wx+vIMdCrR04eBWGmVFsjLWezoV6tXnvH6I2sM9HRFOLPnwvnSAP20r9ADJffMSv2nXFbrp09CDp1D0LZiXs0dr4DeaewlMsk5rzZZZr//ohOd6ETn5zTGCfn5sBMUSUnGOOmNrfWD+PgLONPmQJw+pnrlbI7zDXEe0K2d6Fxyp1n0vbt4nWr8iQaIxYzT3QZ6Nb/kXuspyLmrFagJ2gR2VukZ4J4J9ARJzmvXPegVGvLbDyK5LxjjGoDZ/nC5XkOe+vJWT56UfLzTYMQN5Cs9oMrvYcjzMhal5HkUjPrxxjFOkC97N8Q9z6qxsM86qfCekXlB3vTlQwo+35DXPXlqZXDq3VZ+TRLWwhXvNdFb1dSiGtthrxeu2B+AtmnIm+S7SQuR+GIE4h+3R+zp9+DWUBvpREqH4tjmO7svn1UBMquSbr3UgPSAnt/+uQZ6Vg0IAvq8+XC+PPd/2Xvv4KqurO0Tn33OzVcSGBNMMCYZME7dbrttt7MJBmOTc845g8k5I3LOIieRRBIiZzBJpHbb3e0O7zvz1kzVTM1Mzfe9X41tnqm19t7n7Ht0hen3a/qvs6t26epKoi0317/7rPWsZ6EI0FVaXHFld/25lfL4SWGv/qw7t2HP3qQUuk+da4U+eplcndqk5wZ+3U1GMIMenOAE5yksahm+cLM9eAEb41yFTmDvMhHWvBUQt7+BuK4UuZnjbpTd9cY1WXK/wBvXrJtXEeo4FCFRE06WGl0zFTqHy9SEnVELNvWjyUBFoNZLWRjwuyW0i1PvxV0D8qzk95/0VKuCvKta9WpVne6mDGaukie4U6neNN6xkp8jlfxHLRnylNMuIU/LWHTinYQ8X96XXj41rrXyryDerA/xRSeInqMgJmRDLNwgN85x6pqOaVWQ12r+FyG/P72S15DffYzf+Dg8K68WruiIVl62onLY/Q57vSPd8Cu4qp52pFPy3brdiExdijCb77rAeb0+7HKvy5hfuyLsZ8rDtivzxj3+O5D5Shqg/5JCVyX3OL1JrAFrxw4Z9mICvcgsuo6B9Zfe/c8Vr8bT9tpv3YQ9fYMEd1qY8+XVqc806rqIX3vBLvTgBCc4T8MYFxq5eLQyxv0oe+iqj951Mqyxcjc6p8XpUnvKPnRdcidj3CU1i05AP8OZ7s6oGQi7Ct0Ml9FO95e4B8qjUwS3dxpDtFTb1/RWMb0WlWBGfWkNee6zmyBXGe5rzWt8jX6W/hyCGs2F7z/JmeO8kCUF8lSqN9LdLhPIbsq4VletXvYgn6eMd9yT9yDv1HgXopQf8kZPniFPPWYN+QoyIa/yGxC/rqd2pY+EGD8fYsF6+XvwgpQ8CKpouKE46QC/3/fYf3VPXpfrDcgfPie3qp2Te+XjN+5LuJurU3kbnffvhs13KUpeQf74RURzTyDKyXcrESbzXdNecN7+Enal38r+eaimUXJ/EpirHjqlxCXqsIHP2r0b1rf3iwCdXO6mQvey3U0lLh9b/1CfXX2d+uk3bsCesk6C24T519IYJ6gUP2r5j/aIJXimQcep/NoLVqcGJzjB+acepRJCY5Y3sgfxLPoju/c00GWg95gCMWgarHOnONOdQ2R8i1ksP9Cp5E7hMhfOSqf7otUIc2BI3fRAd+NfX4TgONcyECG1mKWMkdneYaC3H5xyyHXOOit5DXkNeBPmj4H8OhPyFP5yjLPa9UIWuXXtfholr413NxjyrrOeEt0K1EfuOx9GZPkWRMbMQbjjYBfyNkO+cirkKdmNzGXUZ9aQN3elU8DLG59BfN4BovtwiHFzIRask7+zhrxW8ubq2SKQV1fn3fP36sfKdJejl67QjvRjsCkQ57DKYT/3DWJUkjdm5VP3o5sO++uG6U62Mjjelt4Y0X75fQWIrdiOUNO+sNk4+YQKPUkJcSolLl4bIqMmrNxcCWRzbI2BnqbsbgDdhbtRkk8tuT8G7A8V0K9dhz1xTVGgj9Z3mVTowxbB/qTtCH7tBUAPTnCC81QiYMevf8EeOOe/8QpVgjplufOdCtFzIkReHixyujPQVandTInTee4q/pWALmhJy9WLsHfnIlzmbel0pxAQNynOt6SFVDobpmhUqrS8FPGqL8GeYkyffwXi1Y8h6reB6DJEbhSj5LJV21X8qs5qV5vXUnrx/nWrftgT5CkVTv05BHlSrTQuRpA3ZsJj7Kw3XOSuklfz4Gkhr3ryy7ciMmYuQh3JXNYSds33HqPkqe+s/r1QFrsJ+QqvQbzxKUSDdnK72ti5ENkG5El16/Q2VvJ+w106qD/mupA/yhMHNCvvQp5+d3c/ul6dqqscPoc9gZ7+PZGJ8do92Ku2wy5L0a+03/z1Jy65c0pcvA5E5kuwDhyQgDbH1riP7q1RddW5T63zNUrvnlp/QqBfvgoxfhUDXXxN119uJ6Av+4k2G1ofNu3Fr71gF3pwghOcp2KMW3PTsQfPe2j3nw3Ra/rPrNI11LuOh7VlOzvdTaCnxL5qla6BfuUiBI2uXboAcbIA4ZqfwTGc7kVK7rxGtQaPOTmlXkKkbX84n3eA/crHEJRKlqgiDWYm5GkzG0EvsypEpddS1ev4eRJsFE+qweXuUN/1y4D3g54hr8bnKMaVTGaHTvFMeOTsNymQTx0V80Gex+Yup4H8YUQV5MPsIG/FkE+r5AnycQ35yjLYRae48RueVyFe/URGtfIbntnGCtUDUslzyf6gp+T9Cj7nCS6vXVXlenrTQC0MCsRRs/IpbQz696KUPENej9FdLUT42AVYA8fLbWtkdMt8MoXultxJoWe9BHE4Tyrxwluw7hpz6HpBi6nOfY/9QC/u+r+Hf45iYM9fkglxuszuKnMF9FFLOVhG9J8N670mrfk1F6xODU5wgvPUjHFDsnfbg7Op1P6TC3Qqu3eeAGvxGlh3yBinlLmh0mVSnDmHbsyik9P94jmEPmgLh/vorxQdXWOgv8RAF1YFJEbNQvL6A7ladDcZrHYhMpVWi45CqKGCPJXiCWg0J17i2VTI89hYNYgXtNlMOconkqN8gxdeo2fCtZI3y/DmPnW++rHva1wR2O/tTz90GuF8SnejCNdCL8JVQV666w3jHWfVk+lOQ/4yYjQLro13y7cgTJCncv3HreCkhbxKvCN3vYa8qeT1ClWqatRrDdFpMMToWRDzqaqxQ0KZVqfqkj3vl0+j4FNA/pjHJuR3GrPy5FWg35fc81fvInHjPpLfPOB2yTNfdVTrU3Va3BOa4gjosdqcW28dPQLr4d1UoLs9dG83ukh3Fdz9X9dK3bwpkKc/8w8PIE6fl/Pn5GLnm6LMFdCXyV0Jv6nfkF93AdCDE5zgPLXEuOELJ1IErN172o+kzAnoDPYuEyEmL4B1QwHcB3O+ag6dFDrD3HS637iCUNtB7HS3s6hMmgboGbUgrEpINOuFzMLv3K1jMT0+pmF35ByiO48gunonIhNpVGoYnHptYNd+HzYtXSGwEdQJ8vRRb2WjcnUp2ib2JsTbn0M07QrRbyzEFAqAUWNjuuxMJWndk2fA+yCvd6ungzx9TS1ksRnylO52Rka4nvNBvkjfWSn5U2kgr5R8dIdS8mPnItRpiFTyL/0OdqlaHuSfUSBnd73syXP4i4Y8hbtQxaNcXbkn/dPWEB0HQoyaCTF3tQd5Xrai+/Kk5g0lnxbwqqyv19QWuaovTwFB1MbYdwLhA6dgTcyW61PL/0bGvz5WoXs70N1gGQ30/OPcL+eSe1qgE7C90ntKCV7DOsUsZ4LbA7wf6OK7B7Dzz/pmzs27DPbIpY+4HN9jEuzXP35Xve6CsbXgBCc4T8kYN3ppczLGiZ5TVQ99qrzdJkMMmwHrIo2hXfeV3L3+uVToBtC1052WtIyYhpD9krd1zb+gJV4TTuIllN6Tj+TDP8swGDKh0bIWHpe6hRjFnZJrWqvYE5fk1dGuKzToSM22gFNTm8+oL/2cLNdryJt57dXflvnjzXv4lrLsSVXyeoRubToFb1wGvgK93tTGkCdI5knFmndG9Z7lxjXuM5u706kkbUKeolrdfvxlD/a6XL9iK8Jj5yFMkP+kNWwKfClVS8axaiVPkKcQHKNcz/vROcHteflc2ZchXv4A4pOWEO0HQIyYLk2I5E9wIX+YQ4B4yYou2RdR8Rrqer2qT83rNwYbaDnLVDzzWVPYz6seug/i9i+43J1YLYhn68AqyJfZ7dxDvyNhnmKKS6/Q/X11U627AE9TmufH9GaBNq0dPSVn0FPH1KRSJ4f7yCWP6Ouiy9gfnVrv1JUvvADowQlOcP6ubfAWAAAgAElEQVTZRymF0Ji1Ne0Bc/4Hj6z1mvbIBTo53XtPgnX8KKxbVHa/YvTPtcv9snevXIKgHjoDXTndF65CKPGal+zlW9AiZ9Frw1m4ETb1YA+fRYSS3y55yW8JN/XtPhKcbqaiXbWa1YDPv4TowVOIbj2E6JJNCPO61f5y3ap/p/ozpVUwTBkIp5x01vN61XfkelW9Q33mcpk7rteh5vh68mY/XkNcwz3dZYe+gjwp1twTCB0+gzBtXON5cAPyppIn4x31pRXktenOBTy90eEROgn5yLh5CHUaitCnrWHXolS3WpzSxoD3QV4qeSrXqz3pDHmaNHgZovb7arNaf4jh0yBmr4RYuV2q8u16P7phvktxzKdR6wrqtG1NjJiKZz79CnbZX6l96P+AQueSey2I0i/DOnUS1v1CWIW3UxS6u3HNhbL52FdmN8fafI54V9mbgH+gFPqhApnjXtQIB0HldgI6Ab7j6P9WosobL6hXXqDQgxOc4DwlY9ymsxExaN4fRb9ZlOP+s+hJDvcpSqWPh7VrN6w7NzygG6Y4F+pmD52ATmtUr16E2J2L0HNvwYnTTvSXfaY4pdIpZGTINAk5KvsSEOk//DsPy+S3Y57LXLup+Rqpb3qMjNWsoeLjNAu9vwDRzfsRWbAe4aFTEG7RC/bbjWDT7DsFvBDctOmOlTxBvjxE4gWIsnUgav9Ojs+1M6BG43MazKbxzlXxj4G6C3d91YgZ7xjXkD8r58FpBv4q7U73lHziJq1VvZ+6bY2jWtP05PWcPK1UJch3lpB3ar0PUepxkKfFK1Sul0tXWMnT58/Vhqj1O16sItr0VetTV3rrUxnyqmRfBPLGjPyGvbBGTYf15icq/vUJZ9Az1MhaRl3YsZcgnnsZ1plTCuhUcr/Ds+gpG9dcla6Bbj5+gmvCXT9moD+E2Hcc9vClxqiaAjrPnyuFTr319iP+zxKJ8qVTXnfBCU5wgvNPPvwfF3vI/IO0G130mvKTHFlTKr3zeIhVGxjobIBz1bl/H/rlVKDT6Nql89Lp/lJ9ONHasDMI6j6gZ9SGbVWC3XkY7B2HIVZuk6NX5MwmpzpdUsGkbLccgL37KLvMw+Smpt60VrSkZM1AmEt3EDt3AzHuSyvA5UsVz6lmOvBkziqEB9C2sW5wft1AjoORY5wAxqV6DXk1PkdGM+5BfwDxaSuIjoO8HjQpV53KZibemWV6F+i0iW1PmmvsWVdBOJR2R5DneXBKduM1s2mUvA/yPCevfvcUJa978iu2ITxuHsKdh8L55JeVPF96HFJKXq1PlZWN92Rlo1VvFQykKhv0O2jIU/Idpfcpv4I1cipEuVd5H7rZP09njqM0OZo/90xxdWFHX+JJCOvsaTmuVqhK7gro3Fc3jHGpYPceF1eSf5w73gX6riOwhy9RPXRthFN39FLYI5Y8ohx30Wbov5coUSJhvuaCE5zgBOepGOOcYQtn8G70nlN/JHVu02WgT4A1cwmsW96WNQ10aYwz9qFfNYBOTncKmLl4HqFPOiAUegl2Zt30QC9REU7jrrDJHW0CXW9e8wOeo2Ap3nWfN0pGvemTl92d6pxV7kLeK1mT6c7rxyvA0z16HtHdx2R06YxlCPf+Gk6jTnBe+7To+BwBXiv5sDEy9trHEA1oZGyonJHPXqvG5/anQl67680yfTqgp7t649ouuZzGOXJOQV5mtKesVOWevAF5zmf3jHf6FinXj5/PSt75tA2c2h/ALl1bQb5cGsgrJU8LVxjy5aUpjzwMekc6r5tVm+gWbZD/Tuh3btpNVmfIX2HA3AS6/PxVFQ/rldxtKrkT0Mu9Kv0a9+4w0MXdQga67qGzQjdUugn2opBPLcunLc2nAP0B/521h/mArt3tI5dCjFj6sz16JUSrwd8Gu9CDE5zgPN2zRxrjnOFL2ylj3M9SoVPJfQpE10k86kS70Tn+1eyf63vVBPolD+jnzsC6eQVOl+EIWTUk0P1rVHlJywuwX6sPm/qyBDwdCkPld7qr0wDeBb2CPM2X6+S37XnspA4dOScXkqRsYlOQpxQ4bbqjBDN21WsVf1Hew2eVs34HIpMXIdx9BJz67eC8/CFsKj1Tn5nH555TilYva1FZ7ZVeh/iVnpEf4cW40j8r/a5mfKtW8ut3FwX7xuIeq2x3d3f6UdjUolCQ129uXMi7PXkV3Uo9eapiKOMdr1Cla0CejXcrtyE8PhvhLsMQ+qwNnDofwH72MZCnKgaV7d2d8uWlQTGzuky9o/HDNxvALlkbdpze1D1Z/9xV6LqHHqkJ8fxrsr1DQL+TWnJ3ge5T5X6lLtJCvGhZPuU5Mtz94T7/nbWHEtBXpAW6PXzJz1Ryt1oMuG70zgOFHpzgBOfpGeOcsSvriv6zeWxN9JzyiIFOt/tkiH6TYZ0sgEURsDSm5qrzq8WU3C96QL91Fc6keQiFa6twGZ9C51l02rxVA6JBe4hhU70etQYXgXrNbgl1BvxjIG8+T6V6+lkyY+2g/PYChI+dl8EnOtrVTX0zto3RSlFKNNOlelLyFFeafxFRdtYrdzmVqzsNgUOJby+9B5uc86ROdYleQ56gFjVm5H/TwNi6pler7lFz3Cbk9xQF/EYD6u7j3GIhz/GttJyG18ym7pIvquQLXSXPkC/wmQ71ZAGV61duYyXPkP+Uxgc/hChN61SrSMg/Y0L+Rbkn3Y22fR62qCD/f6dRRga0X5WnBzt/L39/XQn0iq/L9o4BdDf+VYXLmCr98Tdd2T113M1V8fTnfXsfYn1uqkLX5fZRSyEI6COW/MRAb9b/ZPDfr+AEJzhP+ajdzPNPxO2Bc/9m0250E+g9lTFu/34ZAWsAXWe5uy73FIVOxrizsK5dgr1hC0JZb/C6y/RAp/jX6hCCerKVIMq9DPHGJxCNOkD0GqWCYdZLUOvd4QRA3sRmAD6dgk+BvLFTnXq5lHB2kFLfaFb8upoV9/XjtelOOeu5H0/qVat4Av0BctYfRGRJDsKjZiHUboBy1r8NUbKGNz7nQr6sNz5HX6f96W834hK0oM1zU5eo8TnpGygCeX953gV8btHLK1jJdKdc+mRW230M9gG1UpXWzF7Uy2nUyKBaNZtarletCjYdGoB3xwdlTz4yLhshpeRtKtc/W1vOwqcoedqXXkO2WzLJVyE3rnkQf7WoOncVugn0GrzUh/+uqZK7VOiFKUB/MpinL8H7DXSuqte9+dV7FNDNIJml7HAXI5dAjFjykxi1HNaXffbJl1uwCz04wQnOv+DYg+bl2wPmEsh/SgF6p3Gw1m9WxrjLqtSu1Lk5uuY63S8oY9w5WJfPQxw/hlCVDzjZy86okx7opNbiVaXCJfMZ/cefABh+Xo6bVfsNxHtfQLTs5W1jW7rZS23jWfE9vjK8CXZjh7of+LxudZ/sh+49DvsQzYpf4jGyKPfjyXzmM92Zznq3H68Af+wiovsMZ/2wqQi16g3nnSawX3hTluOpHE2leurDC6XkCfIUkPNsTYhqaka+RU+IQRO97XN69zvHt+4zSvAK8huLAXu6qw18lNFOgS8EeZXqZrYpUjatqXJ9jMv1GvJUyfBBXvfkScmPUz35T1rBoTn5Z1/mN3C2VRl2mFQ6hQ7pPnk6Z3tq2V0q+rr8sxQYxH/X7t72Su5378qtaw9Soe4qdQPw2jTnL8mbIE8tvXtApz/bXr7TA/ooo9Su74ilvDpVfNEzh19kwS704AQnOP+KgBkxJDvbHrKAQM7GOHd0rdM4iPkrpDGOFbrRPzeDZXS4jFboBHQyLF06D+fT9nBs6qO/nApzXXLnW02WaHkxiVwzyio2UkHOijP8lLKlHnad38kgFJ12Nme1V6rXalb341Mgb2a6+yGvntPhMtSPz813+9KRi76Stc5ud3vS2nSnZ+OVkqc42735iJCzfu5qhAfSKtHucH7TEDb1lTOqyjcyWsXT78mQLy//PZCTvOa7EO83hdWqjxoXWwGxfKs38uYGvuQ+AeDVspYikCcDn1zuYu85JisYxxXkSamngzz7Eej3v6WUPL3JMZW88ibknUVs1zFEN+xFZMYKhHuNg/NaI+VyTwV6KtzTpMQx0OmN3lvy7xwBXSt0NYuuM909kJsLWzygpzPKpVPtKTPodO8Xwl68TbrcfeV2CfMlEugjlkB83nWJ+VoLTnCCE5yn63Qfvaybcrr/LHpMBl8yxpHTfbzaje4a4sySu2GM0ytUtTGORopuXoXdfywcq3oaoNc0FHp12LGqcl84AZ1KtaTYCeD0UcOePud1q0rZ8sx4FYgKr8oNZGRC6zESYkK2MqGpUr3pMDfL8H7Au5DXe9fpqhI3B8IckfPx1JdWoPNWrSolr8rVMZ10p0vVBDZS8XSPUGa9dtYvR7jPGIQad4bz+mcQ5V6R5jIen9OQ178vjc9Vkbn2OvilnZHuxsEvakOau4gl19d7N8Huh7wP9FQJ4A1uhyFoooAhfxGR09dTIM9LWPSbHLWAhX9/DXm9L522rlES3o0HcFbqbWt1H7OcRStz5XCnTWsE9FB1iJrvyDeUFCpjmOI00K37njJnNW6qdVOlpy3N309fiteq/u4d2NlbGOiCgmS0KjeALkYs/VEMXQRRv8N0fq0Fq1ODE5zg/EuWtExe+1t7yIJH9oA5sPvNeiT6zoTdZxpE9ymwBk2FdfaUBPllcrRTmd3fQ08zi04K/doliDUbEVIrVFPUOQNdK/TqSqXTKFQVuVKV4a7BXtkAfCW1mESp+YgP8vSYSttV3oTF/enuEAPGQ0xbArE4R0LdHSOj/PZdHuRNsD/ucqlelcB3HlX71NUWtit3vH58GtNd7Ox1CXntqmfIX0A0Tznr1+xEZMpihLqPRKhBezh1P/IW05Bqd5W8MS+uc9pf/hDiM2MZC62YpeqEdsNryOtWhdt/N/aom3DnuFajTK8vVQS2H+Y2BWcD0O9+ht7g3JG/q6nkb+hyfaGE+cVbiBZcgTVhHoSKftWz6LKX7o2qmSNrPK7mAr0aRO335N/BwtsQejkLzaSnjK6ZKt0DuHndvvgvKPYUl3zhbdhzcwyFbsBcK/SRS3+kxUfWx+1G8WstAHpwghOcp3q0UWfy9tL2wDn/h91vJkSfGRLoA2aDE+QGzoZz9TqcH/4E+/uHsB4Uchwsq3StyBnmaWbRKQb23Gk4v24E26kKO7O2B/MiQK+u9qO/yGCXt4rvklJXkGfFrq4u0/OlUn1FtZhE9anp89IvyXjXD5tBtO3nJb9R6VqHufAImYK8vxSf7porWfXoHM/Hy33qlN0epex2nfimlbw23V1Rprt0/fjjF6TpbFseIu6M+BA4lPZG6vxZvZimrNeSoN9V/760O93dI98WoutQb3c6/TPz4hTf3nSGvKneFcDNferpntNVAUq74+U0cpc8TRVQz50gn7j5EElOu3sIZ89xPNOmJ0TZX8GOa2Oc2TcvOoOuXe4cUuRUg3jlA/kmk2Du9tBTgS5BnQr24qCesqFNfy2lb24o9Ns3IWZuIONbCshdpc4l9yU/2QPnwvqoWR9+jQW70IMTnOA85SOBDjwjBs+7yrvRqeze00uMI/e7M245Qkt2ILz7OMJnriJ89wFC3/8Bzvff8ggPm+YY8Mrhri+V3Umlz18KO1xV3gyaQTdhXgMiXh0iXo1VOpXeZfm9qgt2grwGve2HOz3mEr1PzZuQ5358RWk+04taSOGTq/6VDyHqt4HVdZgE3vx1sGhEzlgmwiNkbr/dgLjezuZe30pWKvMb/XhKfAupxDcy3bF616VqHYJDY3VsulMhOG6p/gIn3UX3n0R0y0FEl+YgMno2Qu0HwvmwOezq70CUqil/1xTIK9DT70+VC+rbv1FPThL0GMHtCYtWzNI/Lyl43rRmLGFJgby5Rz0d5E01v99T8lSuP3AS4aPnECm4DDF3FZ6p3xzi+TfhxOsaffRfAnpd2UO3q0K8/pHMRyCYGz10QSrdBboJ9aJAL+KENz83QG9+nSF/8wbsqeskuNWYmhjhjqvp+zO9MbbeadKOX2PB6tTgBCc4T/2o/9A4g7PX8G50lRjnOt3JHEcz6bRStfNEuWJ1aDac6WsRWrcPYVJjl28g9OAhQt8+hE0zundvyVI8Qf10AazzpyHGTZabvZ4pD+EQbKsx2AVdDXMGurwS6BLu5pVQ9x4XVfIa4oaaNyGfrlTPGe7Py+S3ym9w+InVpAtE3zEQkxfKdasEaw0vd5+6MfeeAnUT9sZHXaonYO6UiW+hI2pOXI2QpZruvPExGWd71evHU4ytvuSsz9mHyMINCA+fjlCrvnDe+xI2jcVl1lCLacoYprty8k2NDn3hPfI0I98Fos/X6nfeJKsOLuTNnryv954O8inle/39VOLfBzF6hty2VuE3EuhFyuu+hDjXFKeB/iLEm5/CuklAv+kDuqnQzdJ7ujK8ERPr3qLPeQpdbnET17+BPWmNB3SC+QhTnS/m6FfOdni7YSPzdRac4AQnOE/fGDd8UXdOjOsx5WcP6Ibj3bzdJ0F0nQjRabwEfZ/psEcuhDNnI8I5BxA+ehahazcRulsI+94d2Levw7p9DdaeXbB6D4So+64EK0OmHESY4FsVIlFNXhpjc1V6KtiLf95T8d5jCXm7uHK96apnyFf0RucI9BTvWpIc1W9DvNcEomVvdxObRaNkXKpX5Wq9M9011Pl67kVAb5Tq6ecJnDQfTyNkqlxNS2nkLnW5ec6DfKEcH9OmuwLDcEdKPsVZvwbhQZMQatYTzluNYFd6AyKDFtOkg7yKbzVn5L/qBtF/nPQg0LgggZkA7+/Jp6jz4gC/113OQtvWRLlfy33oPoinAJ3NcK+kAN0hoL9VT672JaDrYBmfQufLjncNZu95D+hpRtuKU/L0+e/vwbp6Dfb4lbpXLhW6LruzIW7xIzbGdZsA+1efvK9eZ8GmteAEJzj/olWqw5fWEn1n/KeCuBEw47s91NURsZwqNxGiy3iIjmMh2n0tx916T4UzagFC2RsQ2rwfobwTCNF/CO/dhn3pHMSWHFiDh8P6qBHE83Xk3DnlpZcgtVxRKuxE1bSA12A31XxRJU8fzXJ9cf34x5Tq6TGpW3LT63nxIqNzgzwDGu0Q11DbYKxadd30BtTX+a75nO7HU+IbhcFwP55CcMh0VyjH5XjznOEsp378RcN0p/vxSsVHKc5291F21odnrkCo71iEmnSB86t6sMu/KnvuVKUwIO9mtMdURjvPyDeBaNFLzcgvh1iuFrFQHv82DfkD6V30nP63F9bXM2H9tp40uPkgnrqMRX+uoa4UungR4rcN5WpfBvrNIkBP2Y3uQjxVtZsjbaYqL67XzpvdyAF/8TLssStkD92cPddAH774EUO+85gfnZffe0290AKgByc4wXnqx82XtvvOOiP6zIToMeknd3yNLsPc+Ny9k+QloHfTdwJE13EQHb+GaDsSouVQiBaDIdoMh91lLJyh0+HMXolQzm6E8k/COXcG9tHDEGtWwxoyHFb9r2C9+BqsGClIAvyzMkkuQqB9sYiKl1A3YZ9asi96/aY7w1kfNfvxelTO348nyFdQ/XhjdO55Y3Su50iIidkQ1Jvm/HZlHNNJd371Xtw14U8/q/rx9t583qUeKriMKK9ZvavWrGrT3cOiSXdmP54hfx5RCoHZQZn1OxGeugThnqMQ+rwDHMpcp/YIO+sV5EnF20rJ673pPCP/DsTvaNuampGfaczIUzrdNqNcz5G2e2CNmclJb068jhpZK77cTu52PYPOLvdMBfR3G8G6dUMp9JteyZ2uMYvOAHfn0r3nPLibqjw1MrZIKZ6ATpvXzl3kyFe3zJ5qhoM9fPEjhnuH0f+9RM1XX1QvrwDowQlOcP4FR4Ve2H1m9Gdne7cJPzOkqbSuL4Pb97kJ864EcgXzzgT0MRLqHUZBtBsB0XooRPOBEE16w2rQDYLul70gOgyDPXIWnKUb4Ow9BOdEAZz8Y7A350BMmgzRphOs19+DVYoUJG09K6VAqlQ8gd0F/IsGuKu5V0O+eNDLvrzZj9eQl6Nz/utT8dyPr2CMzlWAyKzKo3My2rU7xMDxENOXyrK1Dq/hcr3uxz8B4E3Ic6le9eN3HIGtltK4/fhrMtKVF7OQklemu5iZdKejbJXhjiAfO3ja26M+IRuhrsPg6MUstH2N/v3Q0hX6/4DUO13em15BvgGg7+GVqk0l5KlFwel+Oa673uo0CHa0moR1mnJ7Su/czHFPkKJ/GbaoAvG7L2QkMV0G+m1vdM2dRfep9JTQGb9iN4FuRMeawKefJ6CfPM/jarrULsvsEuZi+GKIYYukQm877P8qUbZqGfUqCxazBCc4wfkXHN3fazgobLUffY3B3GnMz1xGd5W3ocD5Gs8xyKmfTnecvJ000Ed6QG85CKLFQIhm/WF91RtWox4QDbvCqtcJ1icdYTXoArt5P9h9xsGZtgShjTsRyjsGJz8f9v59EIuXQAwYAlGvCawqr0CQire0iqfNXmR6S6/ivY8m5NP3482SfVHjnQa5z3Tnf06b7nQ/nvrztMTlpXchPmjKo3PWiGmw9EIaKkmb42Pr00Ge+vSqV5/ynPqox+8or57m42k5Cy+luZbSj09ZzEKQN7evpZTqz8t+PDvrDyCydDPCX89GqMMgOB+1gF3jXVmK58U0KrPdhLxe0kIjdtXegnirEcRHzWGXfw12rKacLfeV202l7s2fez10Brr1AsQHTeR0RQrQfaNr6a4B9uLK8OnBrhQ6mT7zz+h4V3UVzPVloC+DaD34fy1RokRSvcoCoAcnOMH518yil91yIp51+v5roWnrlzkjF8HuP/NnBjeBuf1oKh9STxCiy1he2iJL6+MVyBXESZl3HisvwbzjaIj2CuhthtFuaBfo4svesL7oCdG4B8QX3rU+78Zgtz7tCEGXvt5uKOzh0+EsWofQrgMIHc2Hfewo7C2bIaZOh+jQFdabH0I8VwMiVF6p+OekalQq3mbAk5NeA7tasSreA39V402Bf5wuTT/eTbQrBvK6H6/VLZWtqbT9ykfGrPg8WNnrYFHQDQE+x2e6Mx3zfsjr79HrWDXkc9R8/G5KezuNcL4MwYlRP94s1SvTHT+vt69xCM5FD/IEeNohn3vCc9aPmI5Q635w3vsK9otvSWc9L6YxSvR0Gfa0ba26XJ/LgC4G6Cq73euf+4D+8VewCm+qsrs2xaUCnRe1pIF6SsldK3YT+ClAN3rsGuhHTsIe7qlzY1RNhs0MW/QzAd1qOfC7EiVKhNUrLQB6cIITnKevzMsdvf5m1oHLt5K5F5DMvfRjYte5R4kdZxDfdBzRJXsRnrYeIYJ8b8p3Hwur/ShY7UZKyBPwNcQ70R0D0YmUOb0JGCWB3lYBvfUQiJYDIZoPgPVVX1hNejGwrUbdIRp3Vx97wKKrAd+4OwRBvl5nWJ90gKjXBXazfrC7j4EzaSGcddvhHDgC53g+7EMHIFasgBg2CqJxC1g1fg2RpN3lZSTk2VFPSXNVDBVvluFTAc+P4/p7FOyNx+l787IvX8R0pyNtea2oMR9PbnNSs+boXKU3YKkxMqvvGFhTFskxMl61qiGvF9OYhjoNd9mrloA3Hq/XOe+6H09pb/lw8k4jXECmuxvcj/cg7zPduUl3FIKjXPUa8EfOIbrnuMxrn6ec9c2Vs77ir2Anq3GbxLaehx2irWu0D/2Vx6tzA+oe0OvCfqYyxKfN5LiaC3Sp0MUvKHRXjWvg+1V6GrALipGl76U/l4B+MF8uZhnpKXM7teT+My1msZr1vxHsQg9OcILz9I/a/lQ3/2at547d+PfM47eR3HP+UXLPeeib2HsRidxLBHkk9lxAYstJxFcdQmTOFoTHLYMzYJYssxO0Ww+T0KbH7Qnkozx1roHeaohRdu8H8VUfVuka4PRRg929BHS+BHj1vfR8g64Qn3WC+KQjBL0RaDMY9uCpsOetQmj7PjhHjsM+fhz2zh0Qs+dAdOsD8V49WOVrS1MblenJVZ9iuKsuIa/hbs7Gmx9ToG7OzHtl/NQRuuLUfJrLkK/grVslVZ9Vwxid6+WNzpH5TPfRtelOx9mmK9WbYDeBryNgtxyArfrxzpFziJy6giiZ6rgfL/fHc2a7SrqLuaa7675+vII8Oet3HUV07W5EZq5AeOBEhFr0gfPmF7BLvQ47XicV6JzZ7u+ja0PcK7ATL3tAr98C1t2iQDcXtLgQv59esevP/Ua51BK88Rz15wnoe4+SCmegu71zE+jDF/5EJXmrad8zxisuUOjBCU5wnsrh/7i02rMn9HzB7dNZ+YVI7r3wUzL3IpIEbr7n5d19Tl31+V5S8fL74ttOIb7uCGILdiI8aTWcwXNhUymeIN5qCKwWg2ARxKl/TupcAd1qMRBWswGwvuwNQb10gnTDLrCon64gLuGu1LqCu/s5f707A54h30iV6ut3YRVPap7eLNhdR8EZNx/Oys1w9uVJFX84D/a6dRBjJ0A0bwer7m8hSlaFsMt6hrsQZcaTiq8KkaxerIpn4KdT9SnXVPBmIE4xQTj6saviX5Dlax4pUzPjpPhpdK727yA+lqNz1uiZsHR2O29OOyA/uv14Q8lrpa5c56kKXo6WsVmPl7Mckv34Ayfh8B513/Y13Y9X62W5H++a7nSU7QX5kZ47I7fShWaugv3sG7DZ6GaMp/lH2FQPXap02s6mgN6wFax7tz2nu6+H7gf3Lz5O44j3Py+B/gBi52GIIYtSSu4S5IvJ4Q4xbOFP9Jz1Za+D/GoLdqEHJzjBeWpnj3S1v3jq9rhnT91Hct/FnzL2XZSgJmC7UDfBru85JHadQ2LnWSR2n5WPd6mvbT+NxIZjiC7eg8jUdQgPXwC7x0SItsNZlXOZ/au+suTepDdCHUchMWMjwiMWINRnKhwq0TfvLyFNgCbA00cNdEPFs2JXcNeg5zisrhsAACAASURBVOeaKMgT9BvqUn1HiIbdYLcaCLvfRDizl8PZvBsOG+5OwM7dA3vhQlj9BsP6pDGsF14xxuZKF2O4M/rtRtIdg92v4OOpgC8u3rb4Ofk0RjyqMghtRHs+7dY5a+ICiEUbJcRpNpyumVmvXfNmOb7Yq1Q8VQLUHnX7oFrMQmV4UuuU2U4qnhaz6H4871C/JSFPSp4Cc859A7FoPUTl38KOpap0PYfuzqK7ffS6sBnoL8MuUQmicVtY9+/AuvmNSovzmeLuFa/I0wE9LdT9Dvl7hRx1zKbDwaTQPYe7oHQ4Bvoi+vgjg/2L7pv59RbsQg9OcILzVA5kqf3lc7d/Uyb/1v+bcfAqMvZdfJTUQNdQ35sG6hrs+iODXMGdYM73DKj/zj14KtGvO4r4klxEppN5agFCFEZD5ffmA5CctwWJFQcQX7AL8Xk7EZu5BdHJ6xEZvRShAbMQ6jYedpuhrLYZ2gx4peLJIe+C3FP0HujV17SK5zcJslRPhjuLyvXUw+84HPYoGpvbCGfPQTjH8uGQ4W7zZogpUyHad4H16w9hla7uGe6KhN94WfRFzHbFPG/25L3IW9OAlwbwfrDHTSVvQl6PzlXzRueaqa1z05d6KXduZrvqx2tTnavY1XN6M5t7jefoDQL9OdvzIGg+/tAZabqj1akcgkOQl0l3iZsPkLh+n9fPPtNjGOxyb6jo11fSqnQP5voqhU5A/6oDrAd3vLQ4V6H716im6aM/rvxeXN/dBDr9zoMXpgJdKXRBQB+26EebVqc27LKMX3PBLvTgBCc4//wjHe0Nv/8+XOHU7YtZJ+4QzH/O2H8JyX10L3pXgT2Re0GW2dPB3VXu5zyw7zwjwb71JOJbChDfcgLxzSeQyDmBxMZ8xNccRnTBLpRalouS9D2rDiK2NBexhbsRy96J2PwdiM3bgdjc7YjN3orYtI2Ijl+F8LBshHpPgdNxNOwWpPB7SbBzmb5bilI34Z5SujdVPF36eTbcdVFjc125QmD3Hgdn6hI4G3bCOXQUzokTsA8egFi+HGLYSFiNmsOq/itpuLNMw50ZfmOW6tODvjjwe+a7qoYr/3G59dJVb6ftx+vRuXLe6FzNdyE+lKNz7i71Fds9OGvTnc6sT1Hwex8PeOrju5CXprtQHkH+EhvqEpduw169A880agNbL2fR8+gMc/nY/dxU6Amt0CtCtOgM6+FdD+iFJtAL04K6uF66/7l0UJdApzn0u7K6MWiBmQwnS+1aoQ9b9KMYsgDP1O84k192werU4AQnOE+r1F7ldOHEZ0/fI3BLmKcDuroMdAV1vrm/APZdZxHfeRbxHRrspyTYc/IR33Ac8fVHEVt/FIkV+xGbtx2x5fsRX3tEKvnVeYivPCABv2iPAvxO+X0E+DnbEJuxCdFJa1nFhwfOQqirp+JlL76b0Ysns51U6CbU/cBn9a6/j98kdGMFb33aCaJxT9g0NjdsOpwFa+Hs3C9VfH4+xI7tELNmQ3TrDevdz2CVr8URtpY23NkVICKkohXgXcgXBbkJ+HSfe/34dL35YmJtzX48hb64o3MK8hzraozO1VOjc+PmQSxY761Z5aQ3Y4f8+ieBvAa9/Lq1MRfWpn2wKRp2/Dw8U68pRMXfwDaAzoa4IqrcLLnXUQq9AkSbbnKV6Y1igK7K7o8bXyvOPFdsiZ7+vId3IVbtgm0qdAX0lJL7oPmwP2nzNb/uAqAHJzjBeRql9lonb71TJv/Wf5el9kuPigf6JSQI6PrySNvFVLi7ZXmjFL9HqfVd5xAntb7jNOLbTiOx7STimxXYc/IRXboP9giad58Ne/A8OGOWIzIzB9HFexFbdUhCfvVhxEjBL9uH2OI9rOyj2Uq9K8DHZ21BdNp6RMetRESreBqZIxX/hVLxn3eFYBXvleGtxh7k05bpm6gyfWNdqu8i5+Lrd2GHvt39azgTs+Gs2SrH5qgXf+Qw7HVrYY0ZB6tZW1h1fgsr60UZLEOQJ1NbyBubszXgNcDjTwb5lOfN0n2RaNsX0hvvCO50zfn4lNG5qhCVXod4s77awDYGYsoiWEtyYBGoCcp09cIV/1hcEchrR7005bGBr95XEBXedIHugpvL78UBXZfcn4fo0ItT2xjot6nkbu5EN4xxPrA/Ccgfr9wLIZZu55K7WWqXCn2RUugLfxL9Z8P6sHk/fu0Fu9CDE5zg/NOOctm2unIlWvHk7atZ+VRqv2SocwnwIurc99iDuw/sxZrnyDR31u2xE9jjWrET3DceR2zZfu6vh0Ythj1gNkTv6fzRGbEYoSnrECWVvuIAYmsOM+QJ9rHlBxBbsleW6efvQJQU/Dyl4OdsTVXx1Ivv7uvFU5ldm+0MhV6cguc3AAR4KvPr79Oz8aTiG/WATWNzgybDnrsSzrZcHptzTuTD3rsHYsFCiL4DIT5uBKtyXWW4e87IqdcRtkVVfEppXj823gSkQD7FdZ+6yOaxYTgMeh/kQ4bpzh2de0suZ9Gjc7OM3HaG/P5UyHMGvW9Ebt0eWGNnw3r/c9hZdeV8+T8M9PKwuvSF9YcHPoV+W82hK6CbUC9Ggf/S4yIl97t3YC/cUgToGuZi2EKeQxd9p8N674v2/PoLVqcGJzjB+WeX2l84fWdq6dMPvFI7Q9wA+YHL8rqldg16qda977+UHu5FwO6pdQl2KsOfQZwu99hP8sfEtlNyxn3DMQn4WTkIjVkGe+Ac2L2nwe47A86Q+QiRCp+9BdEluYitzmPIx0jFr6A+/D7EFu2WbwDmaxWvAE9mu6kbPBVPjnpKsaN5eIK0BrRy0jPIuUyvr69cr8vzCvLufDyV+slsRyqe3jx0GQl7zFw4y3Pg7DvMKt45fhR2Tg7E5Cmw2naB9cb7sJ6tDitUHpYam7PZcEeAlWNznHJnwl2reXOPfBr1nl7NF9eTT+Oq16Y7+pwCeXSpXo/OUW57LRqdawHRYSDEqJlq69wO2YcnyPP4XOp8vDVuDqwab8OOUrjM48rsJsxTgS56DFBA9+9E95Xc010NbePzFGgXZ6qj5wtvQczLgRiyUI2rLXKvAfRHNi00erNeE379BUAPTnCC88+EeZ2zhb8rc+L2f2YcvIKM/ZceJVPUuSqx7zyL5I7TSO6/jIzD15CRdxXJA1f481SlrqGur3qegmj8YFdwjxtgjxPcd5xFnFQ7K3dS7dpEVyBhv1Up+JWHEJm3HeGJqxAamg2773QJ+QFz4IxagvC0DYgs2MUqngx3DHku0+9HjMr39DU22hmAJ7PddK3ilygVPwF222EQTfuq2XYCfFcFcAPiRfrx3vOuiudyPb1J6C5n4knFf96dU/J4bG7GMjg5u+EcPqYMd/shli+DGDICVsNmsKq/AZF4AZYoI/vxVnnDcEcqvgZEvHoaaMvnXMCnKH3f9xt9eW2888Jw9A75dEE4huOeTHbUh9f9eFL45V+BePUTGWXbZRjE2LkQ2esk5Mkwt+UQrAFjIZI1pMntMSB30+Hcq3vo5SF6DYb13UNY31yTJfdCUudKoRujaykz6b7nuCf+pCV4/b23b8KetQE2zaGnU+hDFz4SwxZxJLL9xscf8GswAHpwghOcf1apvd6JwniFU3e+kaV2n6udeuP7LyO28RicIfMQmrIeoRmbGKLRFfvZrc7fk3eVIZ88KAHPIM/1AJ/Y71PtacvxOqRG9djZQHdGXg14Lsurfvtm6ZDXSj6+KV8Ce/EeBnlo9BIuzzPg+82EPTQboQmrEJmzjVV8dFWehDypeSrb03MLScXvkk76OdsRJcCzit/sqnjtqA9RhG3LgTwzz3PtZpmeeuummU6X7f2X4P6lgrz+Mwjy9brIsbkOw2GPmAl78Xo4uw/COX4CzonjsMlwN3M2rC49Yf32U1jlahk743VOfZUihjs7BdrVZW46wTxF1RvPmz36tIY7D/AS8ulG5xT8yVXP/XjKqy8LW0fZ0nz8qx9DfNoaolkP2NV/CztSTUH6lX9AoddRLvfyEP2HFwG6q9Ddsrvcj87g1iV4v1JPU5YX6UCuv37rJuxp6yBoLE3NnrsqndT50AUS6J2+/smp/c4b8oUY7EIPTnCC889ytZ+6O8srtZPaVkA3gOz0n4HQ8h28Szt29CIiW48hvGwPQlT+nr4RYTKfLdnD+e4EZAY7Af7QVSQOXE4Feko5Po1qNwNqFNhdd/xOVZLf5lPuDHcy1J1QSv4k4jkFiK8/htiK/VyKp5K8M3Q+RJ/pfKlk71AfffpGRAjkqhfPd6U220kVH52/HVFW8ErFz6KROa8XHxnoqXiraV8Ja56H7ybVOF9DxT8O8gR4um4ADsXYdpbhNy0GwO41FvbkRTKnnsbmCpThbu1aiNFjYX3VBladt5XhrpxhuDNUfNJT8W5/3QdzE+re13wK3h2lK74fz7BPCcDxm+4qeJC3ysEOU5b7S7KE/sQwp7E1D+jWkNGwvvu9BLpbcjfDZXwq3Qdz97EJcEPNF4G6BvuN67AnryElroCeWm63hy54RLGwot3I/yxR/dfV5AsxAHpwghOcfwLMXz5756Oy+bf+P11qT+mdU+/70DWEp6yFGDkPscI/IPHNAyQe/gnJH/4Nye/+gsSdbxE/cwOxPScRWXMAoXlbJeBn5iBC/eo1h9nJzuX7vGt8EwevSMDr/noRsHtw90rxSrGbYN9hwH2rNtR5gI/l5PN1VfyWk4htJBWfh+ii3QhPXYfQSG22mwa7/yw4wxYgNHENInO3sdM+qnvxq/Kk2W6pVPGxbKNMTyV6ujM3IzZFOurD9Of0ngqn02ip4nl7XA93Jp6Xy3AJPlXJu9DXX6N5eNoLzypeQp7K81b9znI+Xo3NOUOmwZm/Bs4OGps7ISFPhrvsBbB6D4T1USNYlepCRM2EO224qyYjbDnGVkNbq3b9XPFXl/L9iXepITiPSbozIM//2wkqt7/0iyX3IkCnDW0a6CPHeQpdA53L7n6ga6WuwZy+v26q9BS17of+tWuwJ6zkLHezd67K7RBDFjziEnzrof93iTIvllWvxiDHPTjBCc7/XKn93UvfJiuevHOrqKtdwpz647H1RyC6juP4zsxZ25D57gAk209FcsI6JDcdQeLsTSTufofkD39H8k9/Q+L+90hcLkTs0HlENh5GePEuLtHTDRP8lu9ngxuH0Ry6KgFPKl4reGPkLW4APq7hvvscf4y7JXk50y7hrnruLuRPef12nnU/gdjmfMTMUn1OAWLrjiK6fB8iszcjPG4Fj8nZpOD7zIA9aC5CXy9DeEYOImSqI+WuVDw9ZujTyByX6SXguUxPgJ+1Rfbi6Q0Cz8XPhkPpdu2G82ibLLN3c1W8aKIhr+Btwl4/5tCbXgbkdame9sZ3hqDwm2Z9IbqNhj1+PpxVW+TY3IkCuVKWDHcTJ8Nq0wnW679jw51MuFMq3qGceh1+o1S8AXZdkvc+Ty3beyY8pezT9OT9JXvdj7fjL6o/i4BeSyruJwE65b2zmqeY2DpybG3cZB/Qb7tOd7PkXvR6kE+r3H1KPQXyFAN75SrEGNropyDOMF9IC1lkyX1I9iMuw7ce/B8lSpTIUK/IAOjBCU5w/udmzl88Uziv9Jn7bqnd7J1L1XwJDqnM9XuRsf88sqq0RWb55sgs2wyZzzVF5gttkPFqN2R8ORbJYcuQXJaLxPErnNed/P6vSBDk736PxLV7iOVfRXR7PkJUpp+tyvSztyCyeA/iG49Jl7su0+eRgr+c2msvZvwt7ubFF6Pe+Z72AZ7UuoQ6Ad7txXNfvgAxMtutPoQoLZWZvBbOiIWs3m2t4ocvRIhK7eQjoLK8UvHRVYcQXb6fV8ryTPz8nXJkbo5W8VsQm5GDqFLxrqOeevGtBhk74KWCd3vsBHAf4CXYPRXvluk15HnjXBdW8WTSs1sPhj1gMuzZK+Bs2QPnSD6cggJpuFu2DGLwcIgGTWFVewNWorJKuCutDHekoKmnXYNvKsTTKPhY0cdueb+4yFty7Lswf0kB/WWjj173McpcAZ3eAGTUgRAVYU2bzYtSrG+uGj10fe+4/fPioZ4Kdv/XTLDzY3qTQEC/eAn26GUMdLdvLmfP+YohC34moFst+v+pRIkSEfWKDIAenOAE579eaq999t5nZU/c/jGl1K6BvtcotY+Yy33zkvVHSphXa4/MF9sis2pbBnpmpVbILNccmc99hcwKLZFRqxMyPh2GjF7zkFi8G/Fr95B48D0S975H4s9/R4JU/N3vEDt3C9Hc02nL9NE1eQxhNtNxmV714elzgrobUnPBB3dDxZsKvgjklZJPAbyMoWXAc6meHksVH9t0ArG1RxBdmsvhNqGxy2HT5jhS8X1nwB4ig2/CMzcjQgl2WsWvzuO+PKv4RaTidyI614itJcDP3CLja7WKHzALDvXi2w2HRSqee+lqg9wXGu5KpZtlefWc91hCXnyl+/E95N542jhXv6vcNtdpJOzRs2VO/d48dtTTbLzYvg1iBq2+VYa7si8ZhrsyELYcm2MgE+DZcJcKeP/nj30DoEHuwpxubaW6/eBOB3MV+8o/U5u9AtaCxbB+f88wxcmSu9tDT6PSTYNcSh/dfWzC3QS6+vMe3oM4e14mxBHQ+UplzkCnkvvg7J/FsMX0/+3tEiVK8GsxAHpwghOc/3Kp/bObf86seOpOYdbx2wTznzMOGOqcZsu51H4UVpexiJy6ipKjVyOrZBNkVm3n3SptvMuAp+cI8q2QWaEFMp/9EokXmiN+4QYy525HRv0RSA5YiMTCnUgcuoDEjQdIUA/+h78j8fs/IX71HmJ5FxDJOYrQ4p1umZ572cv3I7a5gOHNZfrDqg9PgKdROFWS54+76aYCXsLddM2nATyb7Hxlek6u83rxBPn45pOI0aWZeNr9Pn8HQpPWsIp3+s+ErYJvKOUurIJvojQiRyp+tVLxy/Zz4p1U8TsQ5VQ7o0yfTsV3Vire3RGvVLwGN12zVJ9yjRI9raOlq+frG3aTjvrPe8ixuT7jYU9bAmfjTjh5x6WKP5wHsWYNrFFjYH3ZBlbtt2BlVvES7iinngx3UZ/hrki53oN60Y8E85qGOq9tKPRfukqd88/Ugh2pAmvFapnlfkMB3d2JrkruBtRFCtCLU+u/cO9S7Os9iIKzcv7cUOiszDXQh2T/JIYuhvVln3PGKzNQ6MEJTnD+a6X2qmfuLSx95gEy9l/+KbXUrsrt+y7zPLezdBviP/wbMiatR/KNbsio2gYZpb9EJt0KLaVCr9oWGVXbIeNFD/AZ1dsj47kmiH69GBmHLyHrhbbIKNsUGc81RcbzLZBRswOS7w1EsstMJKduQmLHCSSu3GWzXeLBH5H49s+I3/o9YgXXEN1+AuHlexGatRnO9E3spmcVrMv0pNzZaKdUfO5F2W/XgHfn3A3Am5D3K/gikFeAJ6W+pYBVuwl42Y+nkbkTsuy+ZC8i9GZkzFLuv3sqXgbfUJuB42tXHnLNdlLF53oqnkr5ukw/y6/il8iM+u4TWcXbzfp7cKZrlt/9gNdQN7/2ldo5T+V+vdCmgVLxTXrDprG54TPgLFwHZ9cBOPkFDHmxdzdEdjasXv1hfdAQVsW6sKI64Y4Md15OPZfpDVd9UTVP6rymuibQi1PpPmXOQFffH3+Jy/fWphyOYZVAv2Eo9Mer9Mf31u8W/1gr9GOnUpR5yh26AGLI/J9o05rVpGeeek0GMA9OcILzX3S1nylsUDb/1s8ZB7xSu6fOaZ78GsLT10MMm43YzQdI0qx59g7ENx9FfO0+JKasQ6LnLCTf74eMahLUXG5/viUyK7dGRrV2XJqPv9sD8WuFyPpiLDLKNkNGtfYS/PQGgHrvFVsio0xTCfpq7ZDxSjfEx65E/Pa3SGw/gUTBNSTIVf/nv8l79zvEdZl+7QGE5m9DiADPZfod7EaPbz8ljXUEeLoHLiO+jwCvTHXuRx/gUxS8Ofvuc9K7gD+F2FYN+AK3TK9L9W4vnna/rzyIyLxtCE9cDYf2v9M8vB6ZG7kY4SnrZZuBeu9rqBefJ812yw0VT4Bns902RAnwbLbL4VWy0XErVEY9qfgxsFsNhqC98k1MFe/1110jnVLt2kUvPyfoE+D7MOT5eb1Wtl5XiIbdea2t3WMMnIkLZE49j82dZMOd2LQJYsIkiNYdYb32HqxS1SCc8r6cetkrl8ExNVyXvAf0mgroGupkjKP7cpqrZs/5KnUerQFRsiasvENSlXOW+w2l0L20OAqYcdX4E8JdPKb0bhXekUDPO8FKXGW2GzDn/jkp9B/tIQtpd8A2fl0Gu9CDE5zg/ENHqYDGF++VrHDyzn231M4wVylvVGo/eIUhZHUZg8jpqyg5ZROyyjRF5vMtkFmzAzI/GoKMvtlITt+ExNqDiG8/jvjsTUh0m47kJ4OQUbsjMiq2QKJsY8S25iFr9nZW8wxzgvaLbZBRRV16TM8phZ/MaIDYtDXInLEFGeWaI+PlLkjWG4Fkv2wksncicfCc3J2tyvTxB39C/HIholSm33QE4UW7EJq5SUJ+zlZEuEx/QvbYyUWvAM9u+r0G2M1rKnizD+8HfREFfwqxLXSlmz5VxWslT2Y7GXxDrvjItI0y+GbgHB6ZE/1mwqHgG1oFO3urNNZpFU+9+OVKxdO8vDLbMeCpD69UfFSp+Cir+NlyLr7dCF75yir8C0PFM8AltNmMZ8A9ZUyOvo9+tmkft1TPOfYEd1LxjXvBbjsU9qCpsOeugrM9F86xAjgnT0rD3dJlEIOGw2rwFayqr0PEteGOSvXPG4a7mrCTpM5rQiRegjBVuga7vhri7nNazdeGHa7GQTXWuTMS5DfTAz2l7K5u8Sa5XwJ9IQQB/ff3IPYfh03gdmNeFcxdoC/4kb/eoPMKfm0Gu9CDE5zg/FdK7VVOFy6jUnty/yWv1K7jXclRvv8yHCq1r96FzNxzKFmlHTJfaC374/Tx+eay3E6Qf6ENkk1GIX7/OyT+8AMS+84gvikP8ewtiG0/gsRf/g0Z3WYhWakFMso3Q+azTfiNQcYLraVSZ8Crcn3ZZoh9PhjJA2eRVaMTMiq1kt9H3//cV8go34LL+Mn3BiDZaQYSUzYgsecU4rd/j/gf/8ptAQI9lenjBdcQ2XEC4RW5cGZvloDnMv1ufrMS95Xp43oe3gU7wV6PyRVTpifAa/WeMi4nIR/Tffg0M/GxTQbg6eO6o5xSF5m7FeEJq+AMo/jaGRA0MjcwNb7WH3xDDvsUFW+46aMztYpfZ/Tip/lUvCrVK7Ndiop3r1Lq6rH7HJfq+6SW6gnwDbrJbXNdR8MeOx/Oys1ybO7kKTgnT0Ds2CET7jpLw52ghLtIBZluR4Y7h3rxpOJrws6gLHcFalbgxvV/Tm8AkrUgRGVYb34K6/oVCfOb3xgld7p3ioU6A92v3M2Pxbng6esK6NaeIxCDCej+Urt7eXXqM/Xaz+bXZrA6NTjBCc4/WmqvdeZO47InboENcAcuP0oBOgEt7zrCMzbAGjqbDWqlPlOudnKzmwY4gjs53cu3QLRuc8Rv3kPWuHXIfLEdMl/vgcym45EcugzJ7B1I5J5GbOdxxBdsRXzoQiTqD0WyZjtkVGiODAI8ueMrtkbi+S/5TUBWh5kS4AR5VvEE/LZemb5CC1mmL/0VErXaIX7mOpKztyIxfCkSaw4ifvI64rpM/6e/IX7ve8TO30Y09wwi6w8hlL0DzvSNCM3cjDCZ0VYfMsr0pOJpHv6KLNPvLU7Bny9ewadAPlXFc4leO+p5XO6EhLsJeHdkTgffrGcV75CKp3Q7FXwTnrCa42sjHF+re/E0MndARtqyijfNdltkqZ7ia0nFT1iDyChy1M9WvfgREM0GSDhTZG1jU8GnXgl8/Vhe/pzNdqTiCfKqVO+q+J40d81jc84sGpvbC+d4AZwzp2EfPwaxYT2sMeNhNW8H65V3YZWqLqNrCfDPlIftvAA7SnPxNSEY8kaJ3b0vQWTV4Z+xOvSA9bAQ1rUrHtBJobuz6MVDvcj1leWLVfFaoW8/BDEo24x6VUBnQxyp9x9pz4D1SZtx/PoMgB6c4ATnHym1f3j2ZumKpwsfZh2/ZbjaL3vqnFztm45DsKv9CkqNWy/nzP1udnWzqrZHouSniCzLQdaes8iicbXKrWQPvVwzZDz7JQOfzG8ZnwxFxoBFSMzfjviek4gdu4TYoh2Ij1iCRItxDObohOXIXLYPWfHPkUF/BsFcm+10iV7fGu2RUboJon1nImPdYXbTk1GPVX2dzkjWH4lE/4VILCA3/XnEv3mAOM3Ef/9XqeCv3kP06CWEc44gtFiV6Sn0hsrXNFNOJjcq05OL3ki1o5Cb4gH/mF68X8n73fSm2c4FvIJ8jqfiqadO8bXh8Sq+llQ8me0GzYXztYyvjS70VDz146MrVPANme18Kp4AHyXAU/ANq/gVKqNe9eJbD+FFNO5KWNdUp+HtwdyFehHI95F/Bn2kn6U3Cg26SdA37QfReRTs0XPhLNsEZ/9ROGfOwjl3BvaRPNgrV8IaNgrWF61kjC1BnnLgqRdfoiyEVREiVAV25EXYkapS1T9Tnmfora3bZHn9+lUJ9Fs30sS/apj/Mti1ck9R7H7YM9DvQmzeDzFwvjTG6VJ7CtCzfyIfhfV+84H8Gg12oQcnOMH5x1ztd1dSVnsGldpp/akLc6XO91/hrHZ75XZkHriAUqTAqcRO42h+oFdrj+SzjRH+qj+Stx6i1AdDuBRPANYjbARi/kgueBphI+CSMa5yS8QWbUPiP/53JPIuIE59+P2nEac59dzTSHScgsQ7vZEkN/1zX/Ibgwx6s0Dl9yptZS++UmvEX2mP+KFzyPxgKJLlm8vyPcGeoF6+mQQ8PU9l+t8NQKLjdCQ25CH28I8MdI6rJQVP5fo7f0D01DeI7CxAZEUuQpT5ToCfrcr0649KOOsy/SFZDzyo7wAAIABJREFUpo/vNc12xRjtdhsKXo/MpVXxp1JUvGu2843MMeCV2Y7c8VSGp9E4vSuezXYUgDNsoYqv3S6BTrG1pPq1ik8ZmZPJdtFZdDcjSiNztISGqgCjVC++x0TY7UeyIc76ksbmNOR1GV7BOw3Uza+zeqdtdQry/Oc06gHRgNbS9pIqvt8kONOXw8nZA+fEGThXrsC+dAF2/hFYa1bDGjVWrpV9vyGsmm9ClKsNUbomRNlaEG9+DGvREqnISZ2TIc5V6Ga4jKfQ3SjYXwB6EajfSwP0h3flxjgCuo56TemfZ1M5/mfyTFhvfdGJX6MB0IMTnOA88VrUc3e/LFdwm0vtmUqZFym1z9wEMWQWh8A8+/nXshSeTp0T4Cu1RrRKI8TOXEapseuRVdorkfu/3zW/kdqu3hHxrE8RWb4ZWZuOI7Mi9ckpaa47MhqMQGLYMiSW5yK+uwCxLUcQm7sZ8X7zkPigP5LV2iBJoC7VBIn4Z4jN2YDMSZu4PJ8kmNOfo68u1VdpgySpfYJ86BPERi1G8tAFJN/oiWS94Uj2XSDd+6TibzxAnHrwf/4b4g/+iNjF24geOIvIhjyEsrfDIcAbZfoYAVi76Qnw5KbPfRzgzVK9Cfj043Ix1YeXVwGebo6h4s1SvQ6+WbYP4VmbEaL42iFSxbOrfrAOvsmR5XhS7gR4SsPT8bW+kTky2zHgTRU/dkVKL160HgKrKUXYKsMdq3gNcXLKU/ld9tmF+twFu7qk1DlAp1lf+TNN+sBqRM76XhBN+0N0Hg171Fw4SzYhlHsUzpWrcO7dgX3nJuzrlyHOFMA6cgjW4UOwzp+RY2pXLsqEuCcAevpb6K1ZfdLLQC+EWLMHYoAJdKN/Png+ja09Et0nQfy6wVf8Og1WpwYnOMF5klL7O5cLy1Q8fec7LrUfuOyW2jPMUnvOCS61h09cwrPzdqJk2ebIrNExPdCrdUCCoDxjObKOXkNJDpKR6jldad6FOkH3uSYIf94LyfM3UfKNXsggVU/grdRamt5IjdPHWp2RQe72wUsQJ+AevYTYoXOILdrOffjY+OVIXLqDzLrdkJHxOcfQZtCbA1WmT6rKQFLDvWJLJN7ojNjpa8hs+DWSpZogST18U8W/OwAJMttN3YD4tnzEaSae5uHv/xHx3/8Z8ev3ET12GZHNR2U2PaXF0aw5gW9prlwAs+cc4qpMz4B/kjL9LrrpAR8zzHYMeFLwWsUXmYk/bkDeVPEHeSQuxPG1i6R6JxVPu+Ip+MaNr90vl8/wyJw/vtZU8bJMT8E3sRQVP4dVvEMqvsVACWtdqjdg7kI8Beqk1qVql7efdOU37w+LZuz5DQPtoKef6w/RdhjsvpPhTFuO0Ma9CB07jdCNm3Ae3IP98C7s+7chCN4EdoI6l92vM9AFLWcp0kOXI2ypgFZjbU/SYzeB/qAQYsVOiAHzvJK7Z4ajN1mPxOBsiC7jIF775GN+rQZAD05wgvNEpfbTd9bJUvtlLrX7e+eJA1fg0MKQeRsQ/+v/gsxxq5BRuhEySzfhcbWsSm2QRWa3qu2RWbOThPJn3ZC8/S2ebUhKvlla8JtqnRX6C20Rfb4BoocKUGrQMlmCN/vj2u1OH0lVE9jpe0iRf9APsfvfIXnlHhKLdiORcxSJgquIrd2P2LgViLeZiMQb3ZCs0pqNdrJMr9R/1fZIlmqE6KItyFiSy2Y6rd75n4tu5VbSbEcl/jLy68k6nRFfthuxwu8Q33wM8VPXEac5eF2mv/0tYlSm31WA8Mp9CM3Zwio+NGsLwrTAZf1RxHaekSNyh7zlM1LFK5g/1mj3OLOd7sFrFW8CXs7Ep1fx+VLFL8nligzF1zqD50k3Pal4Cr4Zu4IVftSIr2Ul7w++MWbitYqnJTSxSWs9Fd93GmxS8W2GykU0nFOvw2y0Ou8rS/AEdAK7LscTxJsSzCXYeVtdy0EQdFsMgtV8IETTARDNBtEaUti9JsOesBShVbsQOnQK4au3EP72W4T+9D3sP38H8YcHMmSGeuiUGnfbi4EVLtBNeKcq9cerdePNwb3bEIu3SoVexN1O5fb5j/hx+5E/O6/87tfyxRqsTg1OcILzS672c4XNy528w452r9RuGOHyriEyOwdi0AxEv7nP5ejEwbOIrt6N6JhFiLUZjfjr7ZGsRK7yxshINkC0cgPE8s/h2fm7kUVKvhjTnGlik6q+PsKj5iBr71lkaTX9S7d6B2SU+RKRz/sgcfUusj4cioySX7AaJ+AmaSHM6JWIL9qJ+NZjiK3dh/jU9Yh3n4HEWz25D5/MaoRYg0FInLiKzFd7IEngVm8cklRZUDdJ5fkXtbpvjXiZxojtOIqMMWukq/7lrkjWH4FEvwWIL9iJOPX/bz5UZfq/I37/e8QuUJn+nHLTb5cKnsr083ZIJ/q2k4jzOtqrDHlZpr9UtExf7Dy8kWpnAD5mjsupVDsX8psNFU8z8KaKp7teBt9EjfhareIdFXwTmrKO421jKr42ulo56lNG5nYULdNzfK1S8WrTXKjHJDgdRkkoE7h55I0MdlKZ83PN+kMoZU4fqW8vWtAdKNU/Qb3VEIi2QyFoax059NuNhGg3CqLd1xBdJkD0nw1n3AqElu9CaN9JRC7dRPjb7xD+yw8I/e0H2H/5E6w/PORlKgz2O7cg7pADvqj73YP549S6/plbENk5sofuU+cM9EHzHtEMut12+P8IVX27hnzBBkAPTnCC85hS+/vnb5avdLrwj1nHbiFzf7pS+2VOMqPSX+TYeZScksPxrJm1OyOz8dfIGLYcifnbEM/JQ2zVLkQnLkV04HTEdh5G8vu/odTno5CZaICsygRwynFvL0fZfEDnkbdyzRF5qy0SF26g1KcjZWgM9dR/EertECtbH9Hco8gau57Vumt+0276Ul94Zfr6w5EctJiz4uMnryG2pwCxRVsR++YukgfPI/FyJyQqtZQ/Q6NxymzHENeAp5J9qS8Q7TEViWNXuJWQrNQSSdds14RNeEk9E99lJhLTNiG++yQvsIlTJj2F3nz7A+LXH8gy/ZZjCC/ZzWV67sVT6A2X6U+4Zfp43lX5cV+aMn262FrDbBfbSZfgrkDvK9PLHfGnfGX6NI56I/gmsngvwjq+lpbQ9J0uVTwH36xEhFzyHF97EFGt4vXInKvityNquumpTD9NO+pXIjJ8AUL9ZsDpOp4AJ8FNKp167qzWqa9OQJcg56tVOs3Rk/JvM5zULkTH0dw2Et0nQPSYBNFjirzd6eN00Ny3PW4lnIXbEd6ej8ipawgXPkT4hx8Q/vtf4fz9L6zkrd/fh3XvDiyCux5z+yUHvGmuo7L+3A1ybE1uVjPufAY6PbZaD/5/SlSuVV69aoPo1+AEJzhpjoqRrHa6cBNntR+QrnZ3+YpytlOgCpXa7WVbkLWtAKUqqa1p5EovT4tVmsgZ9FqdkPnZCGQMXIzk4j1Sxd/+A+LbjiDWbgzib3dFokpTJJ9rjIxSjWX8KwGeyvQE+GodES/1CSKbc1Fq+lZksoHuCWBOTvqSDRDuNwmZx67ymJx0upvf5y/TN+eyeTJRH/HhCxH/9/9AckcBkjO3cGwt9+HXH0Bs2nrEyU3/mx5IVmmFZGkq0zeRgH++JeJVmyNWcAmZHWdy2Z+Vu6niqbRfuRWS5AFg935TJMs1RWzpTsSpLTBxPeJrDyF++htZpicFTyNzd/6A2OlvEN11Upbp525FaEYOl+kjNG62/ogq00s3fVy76XONoJt0Rrt0JXqCPPfhvf3wMWNkrkgf3hyZ46uhr0fmKPhGxtfSbm+73ywOv3FoZI566FM3GPG1xq54U8XPJ7OdAXh9aS6eevlk2qOyf++pXKqnsTmLXPVceu8nH7ccLNW5hjkp9PajYHUcI4HedTxE94kS5r2mydG+/rMhBsyRt5+6g7Jhj14OZ8ZGhNYeQPjQWUQu30bk2+8R/isB/q9w/vZniO9+D+vBPancCfCGik9V7lRuv8PmOzFzPcQgUug+dU534FwJ9JYD/7cSJUpmqldtAPTgBCc4xaxFPX2vdbmThV6p3e2bq4jXvOuIzNkKa/AMJM7ewrMfDEEWjZbpbWl6c5pej0qxrzRXXuYrmQ7XaKSMYCVQXb6F2P4CRBdvRrT/TMQ+6o141WZIlmnCgE9GP0S49wRknbqBUnW6yb627mEXd+nrFVoiWqcpYuevo2TLKbLsrXvuppvd/3n1DoiXrIfIwg3I3HVazsKTGqd/7l/1RLLNFCQmbUB87QHE959BbNtRxOZtQbzPHCTe64tExaaITl+DjE1HkVmyCZIEbgI5vQlhL0BrCXcGfGv5fOVWiL/UGrFTV5HRfS4yEg3l1+t0RqLhKCRow9yiXYgfvqjK9H+VkC9U2fRUpt9wOE2Z/qBbpo/7y/R70znoi/biYybgDTc9wT1GkGeTneGmd0fmNODJbKcMd5xRfwKxDce57E5KPDJ9A8/A24PmSEc9j8wtQIjK7Cq+Vi+hiabE1+6R8bXabMfpdjrhzoD86KUIDZoDp9dkCNoZ32YYq3MCu9Valdw7jIboRDAfB9F1AkQ3AvpkiF5TZRhP35kS6gPnKtBme7AlgxoZ2AbMhz1sMezxqxFasB3hbccRKbiCyK0HCP/5B4S0iv/hjxDfqn78HQK4CqohyNNo281vIKaukQrdHFXjSwp9/s8M9GZ9fyhRokRUvXIDoAcnOMExzmTZh3vr7N2KlU7f/SHr2E0aUfs5kxawmEa4A1c4yIRd7UfP49nhK1GyTDNk0kIVdqqnuS7g2/HIWqxiA8TOXUfW5nxk1huJjDZTkJy8CYmcY4gfu4ho3hlEV+5AbOR8RL/OZkNb1uI9yMxoyGXyzMoEbcpwp2UtaeBelXrunyG8eAOy1h7hmFn3TcALj7n0PWW+QuSjrkhcLUTW+0NkWZ7eCJC6p2UwBHfuw7eUWfFfjEFi1ArENx5G7NJtxPIvI/7HvyBBJfT6Q5Go05Ed8cmSjeWbioot2T0v++1teGQuWaoxohNXIHngPL8R4TcABHT63+CQHVWmr0Ez8QOR6DoTCSo/51+Rc/HkoiezHYH+xkNEj19BZOtxhJfuQWgWuelzENJl+k35ct/7AcNN75bp00XW+lX8OVWiV5fhLq+r3rWC9wM+xwd4ugx+NTJHwTdztiLE8bULIEjFU5l+0DyERi+TwTek1JdT8I2xhIZU/KK9MhRHpdsR6GMM++3u7ngGPS2yGbMMoSHz4fSZJt3iHb+GRSqdwN55rAR6zykyHz8F6HM8qLuQVXA3x8vo62RqG7wA9uhlcKZtQGjlPoT3nUbkwv/P3nsAR3GuXYN8gK3ut9/umZGECSYZgyO+tq+zfX2dyCCQSAJJ5BxMMDnnnHPOOYgcBEgoB0SSRM7G9r3/v/vXbm3Vbu3+tdfXZ+t53u6ZntEI+/u3arfKTFd1IZBmNMgeznvOc55zrkC7eY9ZPIF8VZrHP7iLKrfKFEMvKkCVyWttQHezc3q+RTRbV4DebmBJpUqVqtrv3gigR67IFbnKA/qrGSW7lNRegaudpPbv56Pqih3w7ktHdP2u8L7She/wgG7PyG1zm+ltiqiRs+HJKYGvcW+VJkcgHR3HdaoWrZK1mwRrwkaY285AZl9TLWkFJdDHL4feZjiMxl0gX46D5WvFEjkdEpwwGqtRN5bAo1r0g5l7Hb6PBioHOsnrzwJzUhLqd4UR2wTavmPwztkdcLTbn1drbLbxjUNoOqqwG1pji20DsXIvjKf/gNx7HnLBbhg7TkHQTvyaAxCT1kJ0mgT5Xk+YdTvynN2kw0FsW4j3UiDyr8GTMAUmu+RdTJ5YPMv0iTyHJ5nerJ4AU28KMW4ljPwymIkzIAcuhrF0f4jZ7imM0vsQmVegH0xH1LojqmFu9nYVekP75JtOqfU2ctP7Q2/yA6E3FbnpXQDvlunLM/iMYBa/M2QnvpzZzpbqt5xVwTdLVXztC3YJDdfIkmHth6VswuOuezqokMmOWLwTfEMsfvlBtTNPh4DF+yCW7OPfC5rdrzisfl2yH9rcHTwKeNE29DGYE6j3tIGdQX2uC9RtcB3u3C5wJwB2h8E4oEyPGUosfhmqTlyHFxbu4qRB7UwetMtl0O4/RNTPT/HC3duoMnmdAnRi/34wZ4c7zdB/ZUCP65fjevdGAD1yRa7IVS5AJqlGRikx89/czNxyS+0Ld6Py0FmQ2VcR++0oeElOb9AV3orYuTu/ncxtH3SCvFKGmJS5qqCF5uQOg6df63ZWoTQE8DTTpt7zJiMhd56GfPoPGKU0Ry6AvucE9JlroXcdB/F+MmSddjBjW3Pjml6nOfTTGYietFWxYkqHeyaYq7IX09cSUSljYGZehffNHoqFBx0EAnK5H+R5Lt4VomZLaAdPwzxTyOt5Js3G6XMf9IPZlWT6zTDWH4E4dAH6piNqDt9zFoxP+kDfdBjmjrNKaicmXpdAnJ6Xnt8l0Ttz+HqJMF7pAHE6G9agZTCN5nwQoOAcs2FX22w3G8aMrTD2noeRX6pYPK3LUUd87nXVMLf1JKKWUDY9yfTbEUX75I5Mf8jlpj9is3j3ulyF/fCBnXhh78SrfXh1Cz+Dd7H4UDd9RcE3m05zAx7F15Kx7gUCS2LwdvDNi+NWI4oCbJbuh1jrxNeeDITfrDqi2DzdNKuniFtaraPa3E2n1U2y/spUPii8OG0Du/QpQY/UAr6H2Cx96EIFsKF3ELi7QX5JcAUqATSBPM3iR6/EC9M24cXVBxG15yyqTtuEKmNWqfuH5QFz3PcL6Xv/So+t3KbPKX7vRrrQI1fkilyhzPyzjKv16qSX/OQ9fYVc7QFAp5hXinc9ls/RojRnjDqZiZhJm+FjQA7MzStm6fS5JBgx30LblYroLWfgI9Am41soi3fS5ByAJ9atfQe97zTI0vvKaNaEKlGXwFxxCPLIRRjn86EfOAN9wSZ20us7j0LeeQJvi1EwjWbM/D11uwRkegbpACg7ka/6K22gp+fD22+JMqvR1zuAzww9BMydg0B0K0R1Hsms2NN2kmLe5KYnYCYJ3SXTm417woybADlmLYw1hyFyrihn+4lsTrUzvh0K+VpXNsmRTM9snNbsbJmenpdd9EPn2y56+3WRu57A3zbbmbwTH68OAH/tC5kwCQbVpFJkbfENlU9/9wmDvKCd+HOF0PekKZneH3qzi8tbHJneOEZmO8dNT+UzLnk+lMW7JXoCd/cs3pHobZk+APIhO/Fuqd4x3rlLaHgWf5wNgczix9hVssTiKfiGWbwKvuGVuY2nFPOn8hrqmaeVO2qqI5WCboro3XwGxtY0fx+9QYeKtcd4Da9K/1kBg5wD6nSTxO7cfwjkAwBf1Q3yzOKplGU5qo5ewUBfdcxKlu2rjlnFv6/yw/JfaVZfpXXvPW4Ta+SKXJErcvlP+K9eLNkbm3mT2PmvnmMuMHfW1I4XcaFH1QWbYOVcR+wbPbjlzNswGd6GNsuuiKETQ/a1QFSvcfAU30L0BwMUyDKgu/fPg1k9r63V7QJRu6UKlPlhHTye1spNToDLrWpdYH02BGbv+TAXUplKLuSlmzBuPYRIvQC9/0yI7wbCeK0jzBpxsLwtYb2UAKuOy+XeqBuk1QTa1GXwpGbD44TKuBm8H8gDH7NbnWJs67aCfiEHns2neKWOQNRh80E76gS4LNPHq7m4pyWM4UsgHjyBca4IcuUhGFuOQ+w6DX3JbhijlsOIGw35Ns3hOzCQ08HAeLUDRHoBPN3nKWZOz02Hh3qdAkyeGb4N8LQyJ1vA+Howm+jMb0bA/GQgZPfZMKZvgbHnHI806GfGs3hKt8u+Cv1QBrQNR/0yvd9Nv/Gkcr+Tg95VISsO50CEALw4QHdWENCLsG56+/avy7mT7cJE2DoA74A71cxuP8eBPMS+o4JYPM3i5wa64hfsglh9FMbWs2olzx+0E/L8dJDZnQFt/g5Ubt6dA3RIEaDGOr/rfQgBu30Tg/4+BOSDgP13GPyIsN3n/DEDPyXHjVz+Lwb0Vj1X8z9fkS70yBW5Ipdban8780a3Ghlltqs9AObWUSdA5hK0JXtRZeB0DpCRVC/adRLkK/GwqreBJ7oNvLU6wkvz9FeT+PaXshDTfrkjtDfbwii8huihK+Cp1k7tnYfK8iHxr7x6RoEyI2fDezQHPop4dXLded3MZtAE8PY8mtfP3usDs+98yKIyGE9+hnGpDPqZbOibD3HgjR43HMabqnKVDGmW/i2ivuwOWVwGX9span3NNTsPB+48T2/QFZJW44bPhrz5EJ6/fa+KXngGHmDx5e9EmA2TIX3NEDVuMeTVu/B8OhgmgTx93w/7w0yaAWPKJmbxxp6zEKsPQExeD6PzROjLd0OmFyvG720Ns0aCmq87QO6wdgZ4ctl3gazWBmLDIViTt8D0tGLDHbF4Ug/4oPFeb8XiR6+BQTWyF4s5k9649QjGldsQ+aXQT+ZC33YKLy7dp+bwNHteuBfamqOqt50YO4E7Z9MXqFS7Cli8Avnyc/jATrwD8O6b5vKhjN6ZzdsgzIDsMuRtS+PWOCrJoU74F8at4kS7qkMXsJv+BUqlI7Pc6lQY285C7rsIk8YN1JZH5sHD+ajaazyqfJvI5rjKvaeiMq20EVsnCX6wA+wugB/igLr7/iPSvA3uYW97hj5s8b/o8PAfTZPm8Hs4Up0auSJX5PK72rNLXqmTUfKL7Wr/rRw7p3+Y915ElV6TEXU0HWZaIcy1R1TTGa2brdgJMXwexHcDIBu2h/VSHDzRreGt2QHeejRbT4Lh+Qra2l3wHcqCr3anZxjnXB8Te6/ZHtr7nVSgTIvxdkxsuJU1R063pfTanXj1TE9Ng3kkG9a3I2G2Hg/zh9WQ64/xPrl+Nhf6jiPQp62CPnwuRHo+rNzr8BCjjW7D6gOZ5JSTPri8xZllU5a8/nZ76JdL4Z21k3fkGVBdCXJBa2puxl6rA/Q34qEXXYVn1DplrCP5nj5PbJzAloxzBLzv9ITZbqJy0688wDnxlA1PFbJi6CKIFiMh30xSUjvJ9ATS7KYnKb4ry/ai6RAY5wvZdGjW7mCb7ew5vfM9ie3H0PfsAPPNbpAtR6vd+xv3YWRegXHFLqBxomvPF0Hbm4aoVYfwIhW6+GX6Q9C3nWWgltQwR9G1/tCb34mudcv0xOBD2bx9+5m9G/CD5HtHunfAPV0dBuhXB+SpaY7W5iasYQbMN83hKWN+4R7IdcdgLD+AqonDYZCrft1xaAt2qV1624VPu+qV+85QAO+44VmSt2V5N4N3s/hw8nyFIO9yuX+/+F/0fSt/1WE0/ysWaVqLXJErcvml9oySQ+Rq9xxTUnvQ3rkjtY9cjKoLN8M6XYDo9/opufy1bvB89wOsYSthrjgMeegCROp5iJU7oY+YD9GUZO72MKo3hdZ/MszbjxDbeiI81Tu4ilvsPfUQ2V0lxNHM/TtoW/YjeuEBO1BGSfTP3EEn8KXVM3K50+rZF9+rbPZaHVRSHMndjVJgkexMHeurDkOmXYKklDaKX126E3rCDzDe7QpZm0C1lR0aQzK8OjgQSFocR9sEUQs2wCy6BW/j3kopsOX28kDuMtYRsye3/4xVMDOvwdMw2WbY1O5GjNqR6W1TXG0bbOn1x7aF0Ww4xOUbSh4/kQtj+ymVakcsfsJaiI4TYbzbw++ml7IJ9M2psMZtUCoAzeGZxdsM3pHr3Ua8lzvAqNUWelou5MYT/Bj5xRCW6SWb7UimJ7NdQKYXjky/8ViQTB9FLvONJ2GQTE+bEmy2s930TsNcyJpcQKoPuRnsy99u4C8n4Tv78v47Q32O62lz1CFh1wV+jdqSfXhxxhZUHb8GVUctR9W+M6DN3gTjaKEyClJoz6FcSHrM1rO8J69RuAwxfwLs/rNRpS+B/ExUHkgsfk4A4EMlevcMnsHaJc27XfQO4KuDwL+r9JuOyp/HpfC/YhFAj1yR6zm/bKm9cWZZr5oXb8BzrODfbmaujHBKateX7kPlQTNg5F5DTOsJ8FZPgPfVrhzz6iVgp8AY+jMGyZGwvl8Bi8xqBy9AHMuAOH0R8uGPDOhW50mQNSg2NU453Cldrj4lwiUHYl8J9Jy+9C4j4cm4DN+bvVSFKYN9lz8W95p6Br4p2/j1scud5+UqotWiPXYCePocSfX0uI8HQo5do+bINH8vLoWeeg76gs3Qe0yG/nF3GHXaQca0hkUs1miCqG97Qdx+AO/INbCqxftz3IMMd6FyOwFmjQRoH3aFuH4L3l4LeT3OnyZHNwOs62O6CYDJaFcjHvrn3aHfvAdzZapqiaPn/JDc9DMCbnr6+VOq3bQN0Bdthyi5oypf6bVTeh2b7eydd7dM7zjsYym+dibEzYewaJRAigHt09NjSQGgr32/D8z2k2DQz42S7S5eVj8/msFfu8NVuvrpPGjbTyOKZXqXm54c5jvP+2X6chWy7jm8fYcNwQnJsKeDQFjGTwDsXq+zpX124LMSkMXfQ5KKQME79HgCfZqxO6oC3/auPr1uqg5OzWdZXh7IhiQlgNrpFu5B1JQN/l16ZvGUOudm8W7W7gb3iubv9PuhC39jUO82DlXf/foLt9IWuSJX5HoeL/sfgE8zrzask1H6T++Zy/AczQtI7bSmlpoPkyTSfRc5CjPqeAaiZ+5kZzrPyB0DXIMual5uz8O9L3eClxPh4uFplAzP18NhDVgMa+5OyCOZMApLIPaeghi3FKLDaAgqbqlNjWit1Vyd98mT2JSmN2gFIz0P0T0XBNh5uHS3eqFxry0QNXAKPOeL4W2YoprQ3PNw57HclEbJcepznurtYdRpDZFdDJlbAnPwcpgUV7s6FeJEDkTmJejH0qEt2w5t4EzoPSZCT8uBLLkH72eDYHlbKwbvjpMNcsY7gN4VRnRTRK3eCet4Pv+duXO9XhgQL3cYUI/BR8IxAAAgAElEQVTVFm2CvH4Png8GqPk5gbEj05Pk7rjp206ApPKZ9UdhnC2AyLgEsXwvxPdLYLQdA+Odbor902MIqOk57O8v6yVAP58Pc80RmOSWd5i7A/6kJDgyPeXT0/d8oxtk/ATughe0C38sW7F4AnmKri29B5F+Cfq+84haXV6mJ8bLLPuo7aancU+qAnkGdAfY3cDqBlj/bc/u7bAcYd+h+fasAOyvICmPvoaex/EBhN7O9/UfLNT3lYfzAix+b6Zy4i8/yKE4nIhH4D1gtmLw/QjgyWjnCq0JB/DOPWT+b/Rr5cQR/3OlGg2r2e/oyA565Ipcz7vU3jCz9AjVonqOFQS52hWg5zE7f/GHJaiyYBM8J/IQ80YPeOslwks7568E1tTcq2r8MQO8LacTgyegphU1YsnfjoA8kQ3583/lfXIjoxBi3ynos9dDJE2A+CAFsm47GDWaQFu1HdGp2YimWbZd3BLUwMZAbAO1O+71jXiInGJEJ822E+JcFasVJcVRRWpMa2jJYyDvP4E3aTYsk0Jr2gWc9LTb3WcB5JL9CqgIsMgwdu8JxPLdEM0Gw3itA2SNOG5oU6lwBMQURGNL3DTPpva3b3vDuHEPnvZT1dfZzL4ckLs/pkCb6vHQP0uBfus+PJO32MyewNW1o+5KmaOvN31t1Apc/U4wFu6EePoPCJLHj2dDUHQt7cTP2ASRMg3Gh71hNugMk1rx+sxkAPZ8OUztxr9qKwgE5HQHBd/YYF+9HYzGyRDXbsGcvFnN9N/vAxk/Ecbo1bbZ7rLKpyeAp934vOvQUy9C23QcUYv3KoB3y/TkQKcVuSCZPgRU3UBLAOzcDriX+7OQx4d9njCHg6DnC3meoOcMADx/LbF4OpgQ8JN5kFg85fBPWa9YPIXW9Ldn8bQe5953Z5OdLdcPnvcrA3rCoGPu93LkilyR6zmW2t+5WNa/Jq2oHctXUrvbCEdS+8lL0JcfQOUB01lqj203Gd6axM4DqXBuUGcwdwC9oshXAk35LbSFG+G5fAfehCnwfDUcVt+FMJccgDycAeNCPsThNIiz2ZA//RPW9lMw69NONcn0bf1GNQZ43id3s3N7pr1kM7zb0+ClRjaHmT8L0HkHvTP0+q2gZ+TBu/Wsym9nk52ruIVX5QJOevODvjA7TYVcuEfNj0vvQM+/Am3XMWiTVkC0HwVBiXbkpPe1VAUu1dtDxHwDbf9JePakc5FLueCYuhX8+koXGDHNoK3ZDfPSLXje6a0YMrPlziG3PRd31uVoZm42gzZgBowHT2F2n6s+T3+HzlOVm55k+tQMiB0nIVbtg379Foz0YpivJ/MhhGfvBOw063eDuLMqR3vwMa2hz1jPO+5cF0tBN878n6R+er1vdlNBQQMXwViyV3kAaGvi5gNI2pEnsx+lp+04jahl+9VOvJNN75Lp5fECP4sXqbQy5wJeAls/iIeAfBC4h34c7nEV/VlOxey93IHBVgUOuVh8qsPiMyC2nGYWrxGLH7uSd+gr95+lAN4ph2FH/dxfKV++8neJ/fn93KkTv58jV+SKXM/bZQdQfJ5X+nrdjNL/yXv6cgWu9nzI/Znsan/x6AXEzN0DX40Ofqn99+6wu+gNbMf6x11hXLuJmJ4L4PXFqXY2YvCxbRX4fzoIZq/5MOfsgtxzDpLiXs9mQ5+1DqLrBBgfdYesF8+JcFRDStI8m+rIVBbTBlqTPjALS+EjIxzNyP8IoDdIUqtno+fDvPUY3i+HhV9bs1UA05nBc657AszYVtB3HIMsuQ9z4ibIsesgN52AcTqXy1a0vSehzVwHPXkCxN97Q5uynItVvL3mwZItYb1CB5OugXjXcLI7sfNqbaF91wfi/mN4Rq0NzN3LgXnIbT+XeLkVtJPpMHekqcAZqnQlsKV5OEnutTqojvjW4yBHrYakGNmjWRAnsiAW74LRbx6Mr4eo0BsCam+rgJveNu6Jt5OgXy6DOXWrkvAdB319F/jT9yTFgACexgUNEiG/GQZxsRii+CbE0ayATE9uemLz6dQwdx7amsO2TL8dUfN3I4pl+jMBN72/YY6S7WywfRagV3TzY3/v68KAuvvP/xDIu1i/zeJpVY7Ccyi6Nmr6ZrwwbCEq95lGAP9vYuuVEwZdqlSpprDf1RGGHrki13N52fJco4ulJ5TUHhwg4453fXH0MlSZsx6etCLEvNMHnnqdg9i5W2J3s/WKy1mSVUb6rsOI3nEOPqpXdSXBcSsbyei1bYB3ZOgP+sEasQKy7L5KNLtUoubYS7dB9JkO8XkvGFy92gp6g9bQ07IQvWAfvLHxsGh+7pbbw0ntJNvX7MCrcaLkFrwzdnC2vFp/C+S38865/9eAvM3M/o0E6LnF8I5Zr2R6Mtqxkz6Z1+Xk0GWQa45wEhzltYu7jyEe/aSk7i/6qGa5am1gUi599fZ8WGAAd2R6e4/cqNYMUdsOw8wp4c55tZbmMrKFAHhg7k797K2gdR3NHeueZmOUFO8we79M38kl09u77cTsW4+ByLzMBwmS0gUdVNYehJi4FqL9eDWHJ0VANoU+fiWXw1jv9VUHhAYhMr2jHriDb2omwHi7K/TiMphj1qnDArXaOTvxG22ZvixEpj+SCW3zcY6uVTvxOxG1eD+09SdVzStV/BLAM4u3Ad4Nwn8EqH/3roC9P4u1Vwjy9izeYfH0+un5dl3gGNqqPSb8+h+tel2q9FmL9/n9HDHDRa7I9ZwHyOTcGFQz6yY8x21XexCg09y8CPrKQ6jSZwr0yzcQPXYdomVL+F5NhpduSoWzZ+h+qT0U0EPB/dVkWBSN2n0sPFfuIOaTwa6UuIolep6TO/vkx9NhnciH1X4KrJ6UCLcX8lAGjIwi6CcyoG/cD/1MFuTTf8Iauwamt7ly0tPsnti0s08eyrpfSYKMaYqoVTtg5d+Al+pZyTVePzygB5W0ELOn0JtJS2Cdu8Svn7+WX7urX52kansOTxnrsttsyEV7OFNdv3KTA2+09fugj1gAvelgiIbtIaurOTyZ0cgnYHpaQIsbDPHwKTzfr4QZY3eshwPwEDMdvQ7xcktopzJgbTnDZTJBjvZ6oTK9W07vDOlpBn3pDlYV5NIDMJuPhuwzD8ac7TC2nuA5vE5u+tX7od96AHkiV8n01WnNro3tprfNdu7DA30/Pmy0hj5pNYzCMlhvdFdz99pus117JdM3/QHGoCUwlu6DcUrJ9MbNh8pNf/kWxNkC6LvOQlt+QK3LEcgv3ANtzRFOkiPApF14BnkyfHJPfADAWbL/Azen4VUI+q4/Cyf/hwK5P3gnzEw/YND7TR67hKiFO3+u9MaXNfn9HAHzyBW5nm+p/eP0a2/VzSj5b8rVbkvtbmc7OYoPZKFK76l4cd8ZyF/+C+TJLBgdx0K+TWtebeGJsQNjOBFOATwDs5u5u8GcPle7E/TX20IUXEH0yHXwUruaPyXOHSgTEjRDAEwyc+uBLKNHfzHM3iNPUKtyBFYfDYCVMgfmvN2Q+y/AyLkGce029J3HoX8/D3rzITAaKaMaOen5sZTpToDbMIXnwlEt+sO4/wS+fot59SyQ317xzQyaQ28683qbt8sse22NgmFCvs6R0gngaQzwUgJMqwXE1LUQT35Rka+L90PuOMOzY0EAv+kQtLFLoceNgHirE/RPkhj4KdKW9t1Nmr2TJ4G/Xygwu26HnaeMhXHnETzfjVIAW27u7jBoZyfdvin85q2OrEDIC8V26Qw1y8Upsx3N09/tDdlxKuSkjZBrU2GczYc4kwuxIRVixDIYzUdCvkGhN/Hl3fR0YHutM/S8q0qmp4OKX5VwimjcMn2cLdN3gfxqKPSTZE68DWN3GoyMYiXPUz49eRouXoF+IB3aulQVAztrG6Lm7YK23OWmJ2k+SKYnkC8P1kFgz0z/P3O7ny8E3P2M3pb4Q2R5taqX9RsBO+XOVxm04Bv1no6sqkWuyPV8XsB/ANMqN8wsOxObwTvnKkAmaE3NdrWPXY6qczfAPJwJa8RKWMsOQB7PhnE6G2LzQYjxyyDaDId8g9hnWxX5WtMd+UoM3gH1RHhfTWGjmrZ8C3zH8xFd9xmyvOsmwPXU6wJRs7nKcB+/Wa2uUWY8MWCbwTObJhZLnyMQ/Ws/mJ2mqV71+z9ClN2FKLgKbedRBkjRZhiMNzpB1lRGNVqN085kwnsin1/rs/rSg5g6Fc34mkJbtQOefRlsonNa0ALSfHm5nu9Xk2BUawFt1S6eu3v+NgwW59N3gPVmd1itxkGOXstzeHEqhzPbRcltiMc/w7h8E0bcKBgvE+tvo7Lda3VUMj2BN0vcLtd73USI2q2gpWXB2nhKHSbcnw+a17uc6zZ7ltEtoA2fC4MMitTqRmDslMA4Zj4un7HX5Yhdv54C2XwU5Ph1EHnXIa7fhsi6DH3PaeWm7zoVxge91eNJph+6QMn07/cPkuml303v/BoceiPrxENPL4Q5a4ea5dtmO4NqZBfvhXEyB8bVW3yQoVGDUVAGcYyA8QSiKDyGWPycndAW7+PUOLEnXe2Vn3BF1/rB2wZf5/epzwD21D8qz4eu2ZUHdJbhaY/+YPZv1DJXpW2/tvyejpjhIlfkeo4DZLLKhtXMuuV3tSswLwgY4WypvfLgmTD3X0DsXwfAG92Wq1FZZv96ODxDlsFceRgy9SKMk1kQG/ZDjF4M0YKMUh1h1WgbyHSvR2ExKdxXHhU3CFbpPcQ0G8vA519pe9bNvenNoVGG+5ki+Oqr+lPuPA8Kl7F3vp1oVjLZRbeD0ag9M2freC6sYStgztkJeTgTRs4V6JlFXL2qzVkH/WAajB//Ac/0rbCMZgyOgVY2+9AQCs70OVo9+64P5NXb8DYZDZMKWUJ608uDus2YKcXu7z2h330Iz/iNPHPnwBj6uxDjrUH96m3UHJ6qY78bCTlgsepXT7/EAKnvOwNt9nroPadA/7QnZD0KvGmlQJUc+pR534Bc/82h9ZwA4/ZjeL79QbFzx6gWBOghzNyOgtVfS4CeVQQz/TKsN3sE5vahbN6R6eljp7P9ha8hhi7kNTlj9znIkat4I0DsSWMGr+85w7N4veQOO90l1b4y829tu+nt6FoHxJ3vSQenmDYQPaZzS5z1QX81d6dUPGLx9Bwk99Oa3WcDIZNnwpi+WSXbXbrBmfvyqi3TZxRD33sOGkXXkpt+1nYOhQmS6Y8HZHrBBTRh5uypfxDsK2TvzzDO7c/6TRzKoxW3f1Vq8GFjfl9HGHrkilzP2QUltX+adeWdeukl/6v3dDEBOkvtQc72owVcRFGl71Rou04iNnGWCpB5LSXgbK/dCd5q7eCtHg9vo2R4vxkJz7CVsNakQh69CHEiE/q6fdB/WACj6WAGVPOlVtDfaQ+Rcwkxyw7DR5GvDVPCz86DqlO7wlOrI7T3OsIouIbohKmcRKdkeld2e7jUOJLpY9vwPrlVWAbfx4MV+6UZNrH59/vC6jwd5oxtDPCSesIp7KSoFProxdC/7g+jYQeeYVu+1tycpmbwdHAgiZvAPkkZ/A6chHflETbRhQPzcDfN8tnctuUgzLwyeN7qabvEbWYd1MyWqFrSaA5PjvaX2kG+1xMiLY9NdUZeKYwz+Srw5sRFaBS5O3AW9L/3g/EqGe1aQm/cHlrOJXh2nYenVifbaBfGGR8k27vY+dBZip3T3N6/824z+dAVOfevtGIX2wLaos2Qxbdg0Yoddb0T2NLnyfSWOB1yymY2vXF16/FMiJX7IIYtURWyjbrArJXAM3YOtnGy6esnQtZoC/3IBZirjyjVwL8+18l1AOioHk/fs1qc+rO3u0Gs2A/9/hMYB9Jh7DgDmXedy4YMMl6SopCaCW3DMUTN3xUk0+tbyE2fGeymDzLbucD8D4F6BTK8H9T9M/R/i/05qNJ7ws1KlSpF2e/uiLs9ckWu5+jiN/xBHKzSKLPsXCzFux4Pkdr97Jyk9hWoMm8DouftRTQxbAJyMr+5b5bTk9S+OQF8bDsFtJTp3nQUrJFrYK4/BkllHqcyoe86BiP/KuQv/xWe8WthWc3gqUasX0n0KiwmOcyKWzKM6O+gbdyH6DXH4aWqUyfRzZHjXQw98HEiS8+ibkuI8zmIHrmW1+Gshsn2XLyLAvXqCbBiCOA7wvpLL3ZTm5M2QV68wlGsPMNevw/aiAUqLIZNarYLvUYHmOJbRHUbA/PKHfg+HaLm4v661GDJPSgpjsA0Ng5RrQdBPHoKD0vY7shXN/gHJHN/IA393eq0hn4hT41EyEBG8vRngyF7zoW5aC+Mw5kK4NNyoO06Cv1iIUv1cuMxyNrxHFvLPel2Lj1/b//qm4tx1+4IvVE8tIx8yMyrsOjgwXNv92sLmbu7ZfuaCdDfTYR+/SasCZvUbNzJj+eEOTtCltg4ffxWN5htxqlUu60nIfKuQT+bB33FPohRK2C0GwvZmNz0HWGKJhCth3OUrcWegHhm49KR5t23fxZv3zRmWbYHRn4prLd6KMBv3AOy9VjIEStgrE2FvFDEDF5SfC2x+FN53DAXtXSviq2lCtnF+1mmNxyZnkJvnGS7IxXI9OHYvPsuJ7nbiXWH8v6lrT+F/2iStJDf2ZG61MgVuZ5bqf2Hmtm32dXutcHcAXQCc+tkEddGVh48A+be84h9tx+8dTsr4H6F3OwuQPevqNHv7YpUWz73Z7oTo32jO6zmY2D9sAbWqlSYZwtgFFyH2HQQ4nvaZe4P2SCBJXraJfcDPEW+vtadzWtRHb6HlVeC6Pf7q1U2m9UHs3PXx5z/ThJzM0SNXwjPqULOmg+KenUewyzbPiAQwJPE7W0D+UlviMtlLMma+9IhD9gu+nO5XLuqjVkMETcMeuIoiKLr8OxIg8cXx2lwTmkLP3fYWbr6GlGzBbTUs7DOFfPBRYW0dKl43u6S+cncFpU0BvLOY3ibj1WASJ+nuTN9TIYxAjGuXp0JOXM7jF1p3GtObWn6/jPQxy6BToE37yZBvqyKZ/hxZLJz1uW41rUFtIEzIH76Jzw/rLF3yt3MvgIwZ3aeyHv92uRlMK7etVfY2pc/BLhlejK9kUzudMSPXgFx/wkEpfBlXVWNb2n50Hedgj53K/QLBZwTL9/rpdg3qyk2i/ev4tks3fletB73YU/oZXdhTt1iV9Um2qt6dvANvc5GSZBfDYOk+t0FuyGPZimAL7kHmVcCI60QYu/5IJk+asEe0Iyb6lvDuundK3NhmXsIS3fJ7QT0L45dhkp1345kt0euyPW8Su2fZ15/r25G6f9GUrv3WIEdIBOYndMtD+agSr9piNp5HLHJczhdzb+a5gdy57bBnNfSAs52b1AanMpb99DsnRh8rQ7wvN4dVrPR3PRFTm6aY5PJTp+/GXq/GTC+6gf5Ckn0cbAocrRRHERmAWLGbGB2zlGy3MgWYOPuj5XUbu+Tf5AIo6gE0fFTFRN31576gd0Gd+fPKVK2Rjy0Jn1h3H0Ez7iNymhHGfB/6QOrw1SY07ZA7j0PkVmsqkQf/wxRWArRdyYEtbLVodmtKj3xt7LxmpxyvbMjPbo1tKQx/FhP8hzbUe9m5xWwdHqNfnNbJqxNp+zVM0emtyV6B3DZpGaDI/2+cQ8Yk9ZD3H4E8eAp9Jv3oWdfgn74HLR5m6B3mwzxERXPtIWMba2Mam/EQ7tYCJlfpvLi6Tmf5aZ3s3Oavb/RAXrRNd4+YBXCYeZ+uT4cm+6sWDyx6P4zeANAbjrJJkKT5ut/GwLZZz4MWvnbd141u6UXqZW5MatgtBmj3PSkJLDM3k59TM9Nz0tlM2NXwLjxEObnQ9Tc3ZHq3at6NLunz/Esnvb1O0P+fYjKwb/1gDcpZH4JZOk9xeLzSgIy/QJbpicWv/ygX6Znad7vprcBPixTD5mfH8j6t743G1WSRhZXqlTJSYWLyO2RK3I9Jxe/2TOBqg2zytJjMspCXO2Osz0P5slivDh+FarMXo/oRQcQTcUqjqweKrcHAXt4kKdfA3voZIpLcgG808rWHuZXQ2EUlMB8+k+YVFl6voDDYvRVu6CPXwxx9ALM24/h++p7WLI5vHUSAxI9x72Gzs7pQJEEI7oJtE374NtwEh6W6V3s3Q3oIQUvFCVrVGsKbdcRWKcL2V3PYM4MvjM7w61oAuoOsN7pBbPNeMgfVkFuPQmj+AazdX33CehTVkFPGg/x1xTlQqdWNop7JRWgZgfodVtCu5ALKzWb5/IKHEPZePhCFgI5rddEzo73fDXCLmRxAXroYYA+59wxbSE+6wX92k0YuddhJs+G2WIM5PfLOfBGnMqFnnWJd/215duhjZwHfd8piPs/wtxzjlcH2fTnD7yxXe7hGDrN3qkcZ+Q8Xh2zPh2iXqsD4v661nBSvfq9qNUa2p4TbOSzKASHlQhaoUtQLJp224l5v9cbkqJ3p2+BsfssxIVC6OSm33IUYuxKGBR6835PyPqdmMEbdeOhZ16Cuf64cvs3cHXBO6/L/zptgKeRRq32MN5Kgl5wHcbpfF7TY5k+bjzkyJWQa49AXrgEeY1k+odcwytO50F3GuYcgHey6anZjVbkGNgd9u4CdIehk9x+OO9XbUUqKn8ZP4Hf3RF3e+SKXM9hVntW6Vi/1H48WGonMLfI1b72CCoPnA7zYAZiPxnCIKMAveszAN2Jfw0P8OVCZYIAPpmz2EXDOBhF1+Hdmw7vu31h/aU3rIQpsKZsgbn3AmTOdciyexBHLjBTMz7vzXGvFBRD4OJ18tztAwPPyGmfPH4IrKIb8H00SK1yOXPzUHbuyO/uUpaOw7mUxRc/RbnL3czekejpucg9Tsyf1uRI6v6gL4wjF2E8+lntP1NdKM1/j2dAn0/sdxLEJz0gGrWFNncDjKf/UPvuXpopJ/P3UTP08qxcAbNKoxP1WkO7mA8P1aUSGAU9poIDAe+hd4Wkw8DwuSyfWyNWw7Ls9TIOvLHX0P42FGb/RZDLD8I4WwRBoES73CV3oI9ZBv3LvhCvBBLt2IlPLXGOOmCvsPFrbdAWWk4RLHqtZBj0s/Nwcr3LSEdfVy0OWsvB0O8/hrnlNOfnB5SBTsFS+stObK0tlb/VHTJ5BkR+CR9GxI179rrcGYh52yA2H4F4+gvktM0qm57z6e3H8ujDtRbn/AzpZ0PMftB8dutz+x59P3otjqOeHk/bCF8Pg9FvAYyFuyGPZUMW32QGT1I97cgL203/wvxdMHacU5J8uTl6gJ0Ldrfn4oXh8/7PSrLGW+oNHtk/j1yR67mS2j/JLfugbnrJ/+5zSe2hXecUKVm1zzS8sP80oufuRrTZCr4GKfC9msK95gzs7hl6uI9DQDzo90FgbifK0U467W5PXQbP9fuIpkMEmeqIJdPsnSJTa7WH9XYPWHHjYU7eBEmBIWl5isHP3gC963gYH3WDrBtvM2Caw7eDXqc5xLkcRE/extGx/pUz96zdHffqL2VJhF6nJfQLOfBuOaNKWdxz+YriYnleTqpAc2jr90OW3oeVMBkmMfh2E2GO3wC565yaX+dfhX7thgKZe09gzN0GUb8dTNqF5zzz9rDq0PckcHeMYzaI0YGDGO/gmcz+PJ8PVStdQey8AjC3zW2CzG2ZhZDpV2C90UOBlyPRO2BLhxMCeDKv0WM/6g9J3epU2HL3MfRLpWzG0zbut82CQyAosIfMgpxo147HAlI2QdTAabz37Tes+f8+blAPBnfeOa+fqPbzV+/msYTVcVp5uT709u/Dd2KpXHpbQF+5F+LBj5DrjsL8ajjMjlMgJ25QTW+kRhSUQqd8+iW7ISif/stBqmGuejtIYv/OyhzL8F0g67aHfvg8G+RMWpEjE58D/v6fITnqqUSIeubjIelxH/eH0WU6jKmb+f9jWaRW5qi4xnf+MlesBjN0e8ZOgTIqAvZXfVcGqnYcnGa/vyNSe+SKXM/JxW/2aTdvvtgo80ZWLEvtgZ3zIHZ+qhhRk9ei6vilDDDybB6M5EmQb3eBVYty1Ntyr7nvlWT4aJ5O96thgNwG7FBQD8vSSS6vHg/t8xTIOw8QM3INvNXs+biTKOekx9XtrPbVSaInQ9xf+sCkZq7rd2E8fAoj/xr0Q2nQF22B3nsaRIuB0NfvhVlyH9Hv9YPnpfZssOMZdsguub+v3G+ia46oEXNg3noELwW8cMtaxWDuN63R11RPgPZ5N4jb9+EdtxEebxxMYvAE0HQ4IWCgzPU242H+sBpyTSqM80WcSa7nXoa+Yhf0wXOgfzsQxqt23CutaJECUIeYYlc2q+kN47jFzbPoAKxYtSJX0aw9SH5v0JVXz6KGzobx8z/hoX73igpd/Ezb/hwBfHQcZN0E6LQmd/cxJKknyw7COJKlmC8Vz2w/Am3cEujtRsJonAj9mz7Q8q7APJEHz8s0j7Z3752K17CrbjY7pmrYz7tDL70D80i2Ui+cXfSwzD7Ezc6HlwRoaTkqqObjQUqeJyZNbno6XLyWDPnNcMghSyBXHYJxIgd69mXlqF97CMaghTCajYBJs3gy6ommEC2HQ3/whGtzacdf0uuiuTqF37gPUc66Icv4rq74am3V172ZArHyAMyHT+FLu6L22Z8ltx/K/TdF11b+a7NIs1rkilzPZVZ7Vukkktq9LLUX0q8KzOm2Xe1i/TFU6TcVekYRh8iYJ/NUbWXBNYhdxyBGLYbRfAhkow7w1GinVs1qd4aP5HYH4O1ilQArD/zeL7EHMfUkiOrNuDbUd7IA0eRot4Niwpe52AY7+nwdck03hX70HDy7zsHTfDSsbhT3ugdy3wUYedcgSe4mV/TUdRDvJ0HWVq5lKnmhx6ugGBvgHZZNYNm4A8TVG/DN2GmXsjw79jUoKS62Ga/WWVnX4X2tm8puZ/auilVUUIwCeAZSko9pVYqy0NccVkUjD55C3H6gAH7LYZXn3nyIynOv1Zb33aNmr4G8+Qi+vw2H+XIntcJWDsBdv9t4dnsAACAASURBVHdc3i934mAYzQ6G8bzuCoZxP4Zm46HMnh/fEfp7XVR7Gq3JkXpALJ5A9n21R27O3AaxP53LW/jvcOsBxMOfIDKvQHw7GAY56Ummj1GJdvy9/AY+F/MmRhvTHNqstRCUx99vsb1f3uXZQO5y1vPopMsY6D/+DHPRPns0Yf/dQg1vBPTO/vrng2D2nANjywmIO48hyBeRWQx99yn1/9PRDDYTmn0WwNSaqnAeZxRgs3QZWoHr9z/YTJ6kezL7zdkC790fudHQz85TwwF65m/iYC6qDprx3ypVqvSy/S6PMPTIFbmemwCZgpsf171Y+n/4Tl+C7zhJ7YXB7NyR2vvPwIs7jiFm3Eb4yHD2Wgo8f/sengGLYa05AvPiVcjLN2DkFENsPAAxdI5aNXslAVb1tixp0+MY4P157oGilnIgTalv0S2h9ZkI696PiG45Hp4afzAxzs5zp91t63wRohv3UcBr57kziFLca8epvIpEhS3iQj70/aehz1wL0WEUxDuqk5yDYihHvk4iPPWSID3fImrpFliFN+FrbJeyPIOdB2bqXZl1RbUcAOPBE/h6LQyf4x6U5+4EunSCGd0WRmNVMyrPX4JJ++ij18LYcgoitwTi8g3ONqdedX33MYibylltvtOdS1ocBk8HhnJBMf7ZOVXCtoA2bA6Mn/8LPINDd95DDgBug55/9t4c2uiFMB7/Aqv9VDWv5n14l5OegJGk5nd6woyfxLWrxrojKvL16i3oe05Bm7ba7yUw6tJBq7U/0c4P8GQa/Etn6JeuQ1IqHXWpO3nvFa3Hudl5vc4warRixcC480SZ6SiMJpxc765zdWbxMW04rEbsT4O49xjiRA4M8hNQfWwuxdfegci5AjF/O0S3GTA+6QeTzHYksfPaH/1d3KFALgbP1bIdYbydzM/hLbhJZrfwcvshld8uDuX8qm09jyqte+1x9zFErsgVuf7Mlz1X65GZqTXMLM0jqd17PLzUbpLUPmktqsxYDd+644ghMHfm4nU6w1s9gYtXPI2S4WnyAzzDV8Hacgpm7nXIy2UwMgogVu6C6DUNxqe9IOu3V/L8S/Hw1iEwd7LckwKgTqBNTPGteIjLpYhZsB++6u1d5Sy/d3eFqNEc4tBpRPdfynnu3N5mR7Py6hrJ8gRyBPQEoh8PhNljLuTuczBo/5pm2KlpDPB64jgY7yfDqNUCOhWWPPwR0eM3wsN1q04Aze8AOu2T12jO++SeY7n+ffegvfFwrJ5NeGp9Sku2y1LaTVKVqwSOxOQbJcNsNhrmiFUwNp6AQWE31BF+7wn001mKwbccCsF59Eqi5xU7lugpy72ruqkQh2Jbc4phXrgMD83Oa6ud97DsPij21Wbnb7SHln8F5sGL6vkZTF2PcZrT6M+d2lWawRPAv98b4lA6M1tx70e1YnahAPrRC9CW7YDWfybE3/vCeCWBi3MM77fQZqxRxr3p27lGllltOTAPI9kTYFKc7rf9oN95AHPXOZi1XeE34epb3Y57m12LBgnQzmRz5rv54UAeOTDgv9NTOdrHrIGx4zQMWl/LvcrFMGLFXhgDF8D4eihkw0Tl6GeZP8EeF3SC2TCJgV90nw7z3hN4ThdDlEuUC5bbxaHc316csRmV3vgigd/nEXd75Ipcz1GATE7Z1JrZd2xXu4uZs9Sez652seEEKg+YDnn4ImK/GKYCZFg+VyExalZum+EoCY6AmtbN3ugGT+vx8IxfD2t/OmTZA8jiMgiaY8/ZCNFtEowPusGs0w4eCoqhg0FdBfCeBlTO8i20VdvhLbiB6Ma94aG89Vf+eJ571NAZ8O3NgK+WzaCDYl/tfXR/YYsdFkN57nXaQuRchllwA+aMHTCXH2JHujifD0GHk7uPYPz4C8xJ6yBjWipZ2JHo7brVUNatXPGtEJU8BvLBU3jbTWYgc5h9RcEwfqCv2wWiVktoZy7Cw2UpBFzOvnoXNYPnylV7VYxmvk1+gBy0BHLLSV5b0ynLPaMA+rZUaGOWQG8zHOL1jgyMTkyqYXwNbdxilq89I1bDtONpA8UsIatuQf3pxM5bIGrYXM65txJnuh4fGhPruv0zZDs2dvE2TqkzR65WBwk6aFHgzeydMGin/3wBtJOZ0DYegLbjiGLB957AHLIE5ovfqQQ+t5OeX2fHMPP3LjBiWkCbv1G93m5zf8dMF7JCR89dLQ56m++hP/oR5szt6vFcEmM3vfFhJU7J9a+nwGw2CnLYCqVGULtc3lXotH5JO/GUbNdmNORbKZD02Ng4/nno20/AW/YQ0r+uFsLQAw73f4sDuajaa8LjSpUqeex3ekRuj1yR63mQ2j/LvvF5nfSS/8t76hK72r1uqd1m6PSPCEvt24+h2uCV8NXooNzsDOYE5LR77rodgKeP6yVyEhyFvHiJOcWPgyy5A5NmgZdu8XqOUVwKcTwdYuY6iM5jYfyFDE1UGNIUWo9xkA+fInbQciW1k0T/e2D+is3s324PeT4P0U3HwFOTmL2TGBdoZQv9mIG9Rnto3/aBce02fAlTYclWgXW0L4byPFRSYUtqJqfY6ftOqz3ydj+oNrZalKLWhvfmlbzdlU10BMh6vVbQMwvg2XoWnpodg5LhKmLmgXCZlojqNZFn4t4vhyuHe6jJzS2lkyOdzHU0D/a2hjFqhXLKU3LZ8VwYOdchqFO94Bq03SegTVgO0XE0tCGzIIrL2Ejo+WoYy/zKRR84pJST2Z3fv9wJomE8tOwimMdyVURs0CEgtKUtOBOeVs3EGx2g5V1mcxw/nmRtDnyxZXr6+C+9YbafovLcd5yFOF8EUXYfelYxtGHzIZoMsrvhbSc9HSpIZXADfH274pVm/ZdKIM9dgvV690DuezmZ3tk5DzkQkLt+xU7lzvfv+YeoEY6UXofUEXsnnhLmqMqVQm/6LoBcsg/ieLZi8NlXoO9PgzFpHcTMTbyK6c0sUSDuDpcJAnRyt+f9K2rDaVRpmrSc3+eRqNfIFbmeD6l9ZMFPeqOsskIltYdj57bUPmU9Kk9bxaErsfWc6FYnROZZt7OHnsQHAJK29b/1gLz1ANGTtzDoWx8OgJU0Cxalgp0qgLx8k5vOGOC3p0Jeuw2z9D68rcaooJhanVQbmx0UE9YY1yAFhrcptOVbET1/H6fO+SX2kJrVcoydDWtNoe0+Bt/Ko0pOpzQ4YsIEsJTkxnP49rCo5Yx2sActhVx9BMb5QghyPa/br+TtNsMVwFNMbXRrGPIrRE1eBnn3R/gofjWMKz5Udg/skydCfyUOelYhvEsO2nP3YDCvkN03JB8CVZnOUyx0wBJ25JuvpcD8diTMIct4TYtjUonpPvpZRafefggxZwvEBykw6sVDkkGNwm7oZ1CXAMpelfP3p5MzviWiBs3knXkPdc27Z+/lDgFh2D35JQaqx1u9F6hZu+OsZ5nefi6aw78UvEduNh/Feeri/lPoV29yD7u+7Qi08cugtx0B8WZnNWrwtlSZ9HU6Q8rvoI1aCPHzP2FO3ORi5xWk2bluzn+v2R76X5OgXb8Jc0daYPfdvoOc7EEAb9+89mdn09NMnT5P8bvJMzjVTly9Df3hU3iu3YV16hKEm527Xe5Kbv+N3O8vjl+BSrXf+Tu/1yPNapErcj0nATI5pTNr5ZCrPV+BuRvQj9pS+6aTqNx/GteeVvtyJM/LfQ3tJrXfBXQb1EmGfzWFXdf6zsOIOZCJ6Jc7qxUzmr9TZCzFtJJz/dPB8PSeD3PpAZhnizgNTt59DIMa2b6fx8xLvkoyZhw8MXHcAhYE8I1SeL88qtUAWGmFiH6rN//DHchzrxjMiUWT7BzV5QdYRWXwvT9AgReDrn07LN6Zl7/cUQXF0N24B8SxTAZN4y7Nfq+wRK/tOApt8nLoCzZy9Kt5oRheKnfhub1Tt5oU1IkexNQbKJNa1Ii5vF7n/WgQM0s2toWZvwczdjtc5pU4aBl5sPZl2I5xG6Rq2mBC7muKSaXd6/4L7U7wXDbVUUqcduAMz6n15AkQH3aDUaed7UCPU89Hf49andT3uVgI83SB+nk6svezmLl98+usHwctLVtVrr7WLcCqQ9vdHMnfOSzQzNnXBsZfUqAXlvDqmZyyBXLcehgbj0OczOZcfW3HMTbaicSxEB+mQIsbwqtnlEzniZsA0xcXUDj4v0c4yd3dKtcS2sgFED/+AosOMHwAqSC1ryKg90fHurPp43ntjVbhSFXx5pWpCNgjYQCdilmInZPczlGvP1ytVKlSVfvdHpHbI1fk+rNenWww/ziv9Mu6GSX/naV2crUHgbm6Kbyi6oBZeHHrEcSOWIPoIKndvv2y+zMYe6NusKgcpNsYeEruI/bL4Txn5z1yBnv1eGbOBL4E7uREJ2b8t+9hLtoDefsR5JNfYNy8ByO7GPrGA9CHzIHxVX/I+pRCFsftaGR802s1gzh+AbGDVyqGbc/H3Sw+CMgZVGmHndrWWkGk5yF69Hr7sXZcbGg4jD9gRgE8M/saLTj21KTY0q6zuAPcajWOXehy22lOsTOu3uZcdH3xdojmQ2BwwEqc6jAnxu70qZO87TDS2p2hvx4P/dI1eKfvCNonL+eKr0Cq1wbNgPHwJ3jiJtq95rZ0zmzR5XYn5k6Hk5r2DJ4SzHadVeY0Wil7+BT69VvQzmZDozS77pOVA71+PAwy+01eDvHTP+AZuUapCHRIcLPzcDvsDMxUINMaWsp4TlWzhq+CSX/PcHWt4apb7a54vc0wVhfMyVtgmq2UOY0c62QY/GYE5NBlMFan8sFLv1gE/cZ9FdpDWfUzNinDIK0tkp/Aqc11x+H6AV7tyYtX2kE7kwV58WpArnfL7f+jN5nhaJXu+/kwH/0ET9plxc7Lye12QtyBbIjDeb9GrTqCyl8mTLHf7E5+e+SKXJHrzyq1p5SUGA2zy4pj0yuW2jlAZvomVJ60HN79GYht1IPBnNm5G9CfxdSdZrU6BEhtYRReRez4zfC9pEpcPOXCZuyddI5lVWDviWkH8UEyjBt34dmXDk/SLHZxm5tPQeZeh0EGu/QC6OSgp1KOVoOhrd0Dq/gWoqk/vWZH5Zxn2TwY2IOkdlfbmvdcMa/VBYG3A/zukBnnVwLN2DhobYfAePwTvNO38+vmPXICaZpBk5OeAJINUcsht55SOfRpudDX74c+cDbENwNgNEiArEarWa3UY2lFzvwOUdNXwrx8B553+yq5OaRlLexNwEKHgYbtuNfcooa3mg7guG52n7v71O3EOQJJoxn07lNVh/rJXJg950EOWgpjxSEY6cUQJXcZ4PX0fOgnMqCX3GVw5PAV2VSBIkXpkkRPz8sHiXCgTAUyraEdSVOlLu/0sfe1n3EIcAM6m9uac6+7JHn6vX5q1m4Hufj9BLxDHmdH1g6B7D4HxsytMGh2TWpEdjG0TYegjVsKvcNoXls0apFhsJV6HL0mO4WPkuG09iOhP/kZ5qTN5c1/5e7/DNAnwqjVhr0N3luPYVLzWli53Z6fk9x+KA8vjJj/3ysZtRurN3wk6jVyRa7nIat9Xq2cOwrMT5DUHrKmRjnRW8+gSu/J0DKL4dl6Ep7aCfC+1A4+ColpkAxfo27MvH8P0CkOVvqaQFuxFdFnLiGmge2Ed32NCpJxhcy4neq0zzxxCbyFNxFDdaiUAEduclqRez0FVsuxMMeug7n7PGRBKa+ayaf/VHnuo5ZCvJ/MUa9UdEKPYwd9/SRlUmP2beet1+wI7f3OfECI7jxLyeGO890P5q6PXX/uqdcV4uWW0I6eg5VXBm/j3orZkRnOiXqtb5e2kAudGXAH1RNOZS1rjsCgqs8rN6BnFbFzWx8+H3pT6lOPh95xBMSdh/DO2wNvDLFe9drLAXOo5M5SfUtEDZ+j2HnLcappLdRI5wf0kJtUh2otoS3dBuP+U8XuifUScDnP88VQyL4LIZfu5/IRUVSmFIhrt6At2gotZSL0T3ryDJ4kesrN94fEOAa+V+0DUfxwBkfK5fd7BJ7Fzt0O+RrtoX+UAv3GXVgL9qnX6Px83AcB/7qca3ZN8nadDhDL9iklggJiyu5DFJZAz7sCLTUN2qx1HB3M5Tl1KMu9DcTLzaHtOQnj5iN4mo5R6gbHvSrjnKyr7v80Oyf5vUY89L/3hSi9A29umWv3PIzDnebnh3J/1XddRNVOg8////3PTOSKXJHr/yOp/ZPcO1/XzSj9v30nKUCm8DfFzguDAmSIDVQdOhcvrt4Lo+w+JMnEu05ADJ8P2XQwzEYd4akVz6tpvrpd7Ax3Anhi7w5Yd4WXGHK1ttDiBsG6+QCxrSao/vJXg4G83O20o1FgyEddYJTcQmyfxSrulZi9w97tqlXeL3+5Azxv94RFWejj1kGezlcJcBT1euAM9GmrmHEZb1MDlupS5wz4ugTISTA830DbsBe+nefZxR9uxa08Q7fZeXQraH0mQf70T3jJcFYtwbWT7n6cI6er7nOeG8cmcLsaRaFS3jqllJnTtsLYmcYd3iLrEsSdRzB++ifkhiMwXmnP5jSW6In52s+pEuBC3O7OPnnBVVibT/OhJXyOezgw78IgqX2aAv3mXVibTqrHcyGM46K3Y17JSEayNsXFEsD3mge5eJ8qabn7CHr+NWi0Q75gM/SeU5RE757BV4uHqNYE2t6TkCX34fnieztzviJzWsg83ll1m7qSS27Yac4Vsc94vD/VrgvXo0pPc+g/0KreP2DsPQeTAoc+6MeJdnL6VhgH0iFyr6m/y6lMaCt3QN97glk9BeGY7/eBabW0DYOuvX5+nTbA/9GZOqkHMa2gTVoJiw5ip91muND5uZLbjdS8X6MW7UXlD5oPVG/4ThG5PXJFrj+z1J5cVGQ1yiy75pfamZ275HbaOT9VDG3uNlQh5y8Zi8hlfv0OzDuPYVJpxdVbME7nQCzaBtF7GozP7JCYGu3grZEAX/0kG+C7s1lN1G0JkZGH2AX7EV29gys8xl3QEuZukAyD1tZ2HEb0/ouIppY0B+z5dse82gBfN1Gtp0W3g3y/B4y8q5D0ujMuQ+aVwii9ywE1vGY2bhmE7UI3ajZHVL8pkLcfIrbVRHhqdISnYUrADBdUuOIqbCEGTpL2a/HsqPYcz4O3QbIt1TttbaG3a9ZNwF4jAdo3fWDcfQjP7F2wfG1VljuBNSWetZ0ISVnu64/CyLrCEr22ajf0QXMgPu+t3OcvUTGK7T53Dg2Nuqms+TELIO89hafJaJi0Nlhh01oYdk4S9oKNMB4odu9n5aGyvnsGTwBv96nLb4aq3vdbD2FcuqXW5K7fVeydDGpLtnGnvWg2EBoduO4+hnk8hw9ylEPPu/XO7NrtiA8FdWfVrfAqzC1n1MHDUR4qBHT35xJh1I6Dtv8UjHs/wqJ8AHLP0zycmD7N4YnNN+4BM36iKmvZlcYJfIK2Mu4/4VQ7Pqx81iuwERDtSrTzr679juxur7ZRUI2elgPv9fuQQWa48oAubLm96qCZ/0ulSpVq2+/6iBkuckWuP/POeeOcskUstZ8o/JXA3D0755uk9p3nOKtdO50NWXYf5lUb0OnXq7dhldyFdfMhzPtPGeTlpVIYh9Igpq+BSBwH+R7tW5OpLR7S9y20hRsQXXgTse8PUPGuzmydq1RDm9ecGTpVmrZGVNIoeMoeIOarkbxXXj4hLkzADJnrXu4I7eMkNtB5F+1XEbCvd4PVdJSav285BVl4g+s9xaUSDophqf76PZjtxkLGtGKnPPew11MGNZbo3UY4ktp5jtocUROWwHzyD/g6TFOzcn/1aiiQq4/98rg7073wJrxv92JW7TfiOWUtJNGT25sAvv1kyOnbYOw7D0Fs8VgG9DkboPecagM8Md84mEYTaB92YYe6Z8tpVXbyn2Tn+ifdFDsndl/LLkH5I48nZkppce8nQb9SBpl5FSaZG+n7fz4YZq/5kIv2wjhbqGbwlOH+5BcGfnHpBvR+syDeTvRn6vMBgXLoeQ7vKoHxx8y2gkarctSyFj/FlttD5PqK3PX0daQitRgM/d4jyAMZrt15V6JdPVeiHQE8l+d0g2w5GnL0au6K50S+gmvQz+ZAW7GL1+/EV/1gvEKHLqqOba3+e/oB3qm/dcvtVLkaB639KN7u8GZcVyDuN8OFdKA7cvv2C6gS13s/v98jUa+RK3L9uaX2T3NvNambUfKr71QRfCcKfwsAugvUTxTB3JMOffNxZrQU+sJgXnJX3dedmwD+FkzeEb8H8/YjWA9+gnnzPozcKxA7j0FMXgFj1W7Ixz/Dt/YofNFx8NamuFhytKewHB8Adxegk2Ocdq5fjYPILUbs1O3wUgOa06wWxNCDAV3tkSfDiG4Cbf0eeC9eQ3TDbqp1rT7J8x1ZnucUsTe7w6Ims/EbeH9YZl1hhi6o6nPFLghijl/2Yfc2dV9z1Sqt2tW3AZ4YfM0OCjRv3IWXQbNT+Zl7OJneYecMJAMgHv0I75AVam5vS/V+0LfnzCrFjmJKExSDr54A2XkKj0QoL51DVci1fSydQ070CUugn7yoHOMjV8GKaspAYtVzBcSwJB0OkBU7j6L0tIc/w9NyvC1h/8EDAR90WkIbMU/FsQ5cotbB6Pv5JXra9+7MCXCy+2zIWduUrF10A/qDp9ALr0HfflTtkLenTP2uKrCHstxp7s3rbPQzSYSo01qtuh3PUz+vZwF4GEA3YluyWsCvte8iFUFbbn7v5Lg7bncb4AnYtSYwBsznvX0KI5Lbz8DYehoivZglev1CPrQN+1XgTbPBvNlg+tvxKPDGFT5D5sxqrViF8dx7CutEYXl3u3MzOyd3e+5vL87agkpvf9lBvekjcnvkilx/Wqm9XeZ1b8Os0tLYC6XwnVBSu2pTs8HcvYN+ogiek5fsyNdCWGnFMDOvwSwsUyydgL3UAfg76r5mAzx9TKyeZO6HP8G8+4QBX+Zegxi9FOLr/jAbdoBVI54Najx/dzLciVkToDfsBtPbFFFz18J38RpiXusOD7Hh0Bl7BWUszG7aDIa89wQxnWdyWhszdJc8z6BJ4EazcnJh0yz73T4wu8+BzLwC+fBnGMwY70G/WAB96Q5VtfpxD0ie/cbB8rWBiPmW2TWl3kU3H6eezwFft4EunDuec+ZbQDtwCp7zxXzI4Zm6W9oPs5OuZr5JMGt0gP5BEsT1WzDPFqq58YcDYCbPgpy7C8bRHBhkErz1UFV8DpjFr59n104XPLP2kAQ4Z3b+sT0733qGpfw/zM7ZWd8JeqN4jpg1qUedmtrquJ7DYaZ1Q2fwXWB+MhCyzzyuihV3n6hVuXuPoReXQTtyHhopQZ3HQbybBFmnLY9loijZjoJsRq6BGZsAST+fPwLm9FpqJkD/MFmV3WRehdW4t13s4jbTVSD1s9u9KyStlxFY//QPSMpPoMMPSfS0evb1MMiBiyFXHoJxtkCl8mUWqerYMUt47CPetNMFSaY3mkD/OAXi6k34Cm+p3nMC89D9c7rtqFedol77TPyxUqVKXvudH5HbI1fk+vNK7TeX+aX2ky4w9wO6fR8Lcx8tgIfA/RjN14tgnb8MM6cEJrF3AnIG93sB5u4H+Nvq12s2yFN3+pUbMIg1zt8M0W0yA4xZrz0sKmmhDPd6SbC8raA16QPz1gPEdpltA7K9o14hoNtVqTSzr90SeloWoredha8mhcIEnOrl1tWcWlSalZOcazaFvmQ75IMfYU3fCpOY5eJ9kGcKYFCC2rWbSk6dvxl6/+nQl2yDcfcxPMeyVW597c6KvdMcnU114ctZeDc8pg20xB9YJvamzGUjHTPxkK8N+7EdNKONX8K7+d6O02H54vhgQnIzr8nVtmtKO0+FnLkdxuGLvN6npZ6HNm8jF83wBgBVlBJTJIDnneskSG8TRC3aDOnsrXOV6O+wcwfsHJNg/2mcvuYZtlLtk/sjY8O4690yOjHvqO8ghi/iLHcjrUC56AcuUX3q5y9BXLnFAExrctru49Bpjk2d67QqJ5ow+1d+gpDDQ+jtBMOMWgTx83+BNW1r8OrZHzkU0Pz9ZZq/n+bDk/X1yIDXwFmVI0WBFAlyr9PIofd8GIv3qeCevGvQcy5DP3gG+sx10AfM4BAfOgx7z9u752Fm58Jxtx/O/5e28Qz+o3nKSn7PR3bPI1fk+vNK7R/l3GxRN6P0376TLqndMcO5Z+ih83T3Xro/1902zjHAF8A8XQQz4yrM/FKYV2yG7mfvLoBnkLfleZq/P3jKQTFG4XWI/achJq+E6DSWm8z0r3pBZBUh+kgOYuqQYz5ZOduprMUN6uVW3FJgcprabFg3HiL68++VxO48LlSaD4p7VXK2/noCRP4VeFce5fUwlucp4pW+jspBus+FXLAH8mwhF52Q1G08+BHGlVsQfWaqmNeaFPPaxp6VdgkCeEdC55KVOq2gn8uG53A2vJT37prNq/WzYAOd273OXezvdOT5tLXrvDpIOFKwf9dbMWUGKGLABD4fD+ImOWPPOZ5X67lXoKeeUwCfPBHiw+4waP2u00iea1upWfDUTw48Z0Xrbe4RQZ1EiPptoZ3NgswtVYzX39T2jP13hzHTTPylVhxaI5yyFEmrcjaLJ5b/2SDI3vMhl9ircmS8u/1Qme3ISd9lHMQH3WDUpb+7vXfuzOD5Z0Qd5IkqGObVeGhpOTBK7sH6O+Wwk7v+P7EuV60d9KYDef5u7jjL/x9J+++nVtZCDiysSLRVN8n4H/WHmTILxpydMM4UqIa524/gvXwb5onCitm5crf/RutsL0xYhUr13v1avfEjcnvkilx/Sqm9U8HN6EZZZTdjL5QQmDOo+2fnbnbOc/TgffTfBXd2xdshNLy7XlBOnucSliCAvxvM3gng7zxSAH/jPoz8q5BXbkLe+xHm8WzID3rArKnS3zjitT4FziQr45sbzGnuTiD3l44QJbcQPWkrvNUqrlktB+jU6uZr9ywVdwAAIABJREFUjqjJS2FdvQvfe/34H+ZAJWoXxfhofk03Me9PBsLsSQC/G/JkHkTpXehF1xVjHL0YosVQuxxEOdC5WIYAvkEKTKs5ogZOZ2nf126yOjSErLm5Qb38fLoFB83IRz/D23qCzaADa2tBj/EbrxKVsS66LWSdBK4jpXhaufMc5JqjXAqiZxTyiIF23ikRzki9CPlqJzv7PF79THgGb7vaw7w2TnvrNgHi53/AGrfBZrxd/7hcT6uK7yZCu1wKSeUu9SlpLjH8qhw/dyLk54M5IEbO3wUj6yr0O7Qqd5W3GbQZ6+zDSjfI2gSkrVUzHv0sZFNo3SdA//FnmLSWR6DvBMBUlEgXyvBp/j5vozp89JhXQXa9W6oPtMoxoJO8T4cVynGvEQ8xaR1nEviySmwwD4l7dafDHcz5t74vB1WSR5VUqlTpRfvdH5HbI1fk+lNK7Vllq2vl3GWp3UesPJSdu+9nAPkzQf24G+BVdzoxefNkIUyS57NLYF5ymesIxAnor9+BpPvaHV6F80vzJfd4753NXmSwW70HYtBsnr9ThrtVox3PvT21ExX7pvl7w24wKLxm7W54M68h+vUeLD+Xr1kNU9BCQOrsu9+4i+iRa+1QGdtpHtTE5pS02ABPX0dMnICfMtCHLIfccBxGTgnEtVsQeVegbzoE/fu5KgWO+rtfagn9i27Mrr37L/JqnzteNgDkocDueq0fdIVedgeeTaf4oPOHzWr0deQ+p3axazdhbaTd8g6K+RJgcpPcQhhzd8I4nMErWTrtXFMXPCkojbuoWS+xXjrYcI+6DfC84tcVok4baMcvQF66Bc/7/f2pduWYeVgznl3OYpelWH0XB+T60K/3g2IIwL/aBWLbCRUOc/sxxI2HAYmeOuEprrbHZBh/6wO92QAeoZC07xmynFcGyZQWGA84AB8C6g4wU1PbO114Li4vXlFBQf8j0a/096B5u7cV9O7TYFGID/ee2+w8XH47Zben5v2qrT6Kqn9vP43f9xG5PXJFrj/Z5WS1599uXTej9DffyaLffDQ3dzPzICD/fwno4QDezoIngDdT8ziohuR5mX5Fueev3FJgTuy9NMDe+c/4V/tjCrW59yPfxpUbECczodP8uvtkGDx/T2CAN6kxq+soyPtPENNrITwvtWeQDGXk4dm52neP2rgP3vNXOAVPudBDAmXCJca5DXa0N04SPQE85YY3HwM5ag3kjjQYRTfU/D37EvTdxyFyrnBym7nmsC0Jt+W1MgJEdWgIZrR+YCf3ebTaDZf3f4K3yWhY1ZUR7w+7z0mJmLgU8vYTeL8Ypma8DWzApN1vAkYuaukK8/MhkAMWc5KdOJnL1aT69mPQRy1WPepv2e1lvlZqx118h6judhY77dT/kdl7iJlOUBBOZqHKRn/DBZC/J/dzkEsSrxxqc0mu/wVy9zmYH/SH+elAyG6z1UHlRJ46qFy9wWY7Cu2h+bsxbwdHvDo7/fyzcEn05fLo6c/oe1HcMB0+pm9T6XaOA/7/ae87wKsqs7UPSUh2O+eEYG/YxxnL2MYydkWliPSOoAiiKEqxIYgFBUFRUUEsSJEmLQRCSKiB9N6BBLszc8tz751b/1tMsv5nfd/e+3x7n2/vcxKCArPe59nPqTnp593vu9Z6Vzf/WFdbudvz50NZ5K/6/pfQpf5bMDYJzXBRhH4AtPX7W7UNBdB5yvz/DaSefRX/56eoVwLhpLPaHyg/fMql++sPRlntYpCMTeoWWQv32wRuJsixg5N/TEL3OjCBblMBBJHkMwohuKMEgnsrwCisZQrdqD7MCJ5d4mGr94P8QOVe/zUYdv29GrT1O0B9dRGosz4EvbweQsV1kHbZaAhjgM0FpjVvhs7ISB1H4cSu+DTsisfFMLZi9iFz8X5Hg51J8Bjt2tUakRsDwb4YSPIZGGt3g55fDTpG02KKGip47KDHeFTsQD/lAXPuHOvi5pIWlgQ3gu9pv3kUqAePQPjDzczGZ3vKbYJAMhnmr84vHwhKeS2E391gEq7w8fZstEDwOMJlxuAaD04HDcNUvvszqHU4AVAM6pcZoLz8Adujro58HtQ9xaBjDbjfTAil4b7vEWaeegxit5azjJvFCfLZj83lLObX4iZ0SXMd/sy0SwbwmnjDNxDCMBycGUd7HU9UsG6NW9muHQfGiNfBeOVz0FdlswQ4rb6JbYlj/QS4cObmR0Az42pZ/rsYV8u+n+Ggn/0AKBt2sOjX0F1TnPV3MbvdCrLBujqLhLXq61YtHsNxBoJ6xTBWdupyoDYyey4LlMHtajh7vnofJAyZtOfXftshEAjH0Gq/PLdmyVl5hyB1W1GzSOaO7nZbnbu63C2SZ4dF+EdB5F7H5kKu3pHotxZBMKcMjNwqMErqWDqdg+Bd9jy7rG3kG9iO/MhJHgkfO9Ff+ZiRY/B83j3P8tvPHcaCbFhgjcNKHwHa2T1AzdrLIl+xU10a+SqLgPV7TFiJykgZA2JOFwJirn4UjMGvgDHrczC2HAC90uqg3w8qEsqI6ZEOdKz3Ytf2WYNA73IPKB+v4er6rqmcQAQF7Lusxay9KzPeg2DDtxD+I8aruk8I3IfZZMdIdRgYqT1BWbQW9NojEMR57V4vgjHlI9A/28pjamsa+R71b34Ebc4y0C8dxHbBI1Gz7/9ca4e6kENvETPbdNcHlK17wChtgPC1j3ES9WqmcxA8D5hhkwOjzJr48iw+t299vH2iYu5SRzWNtWt87LrxYAx5BfT5q0GragT10LegFlezpDbl/RU8ze7WcY6d8EH1bkjp+zSoR76H4Oqdposis+ZdtXRZTf1C62TmVQhjdC3Onkep83ycN+cd7hvQbi9oTlmwDhJuuO8p9r9PzXAEwkkEey1qQ99ue2uBW+3FeCknc7/DpdhDQuMcKvVogm4b4QeFS3bdsufxwPp7ZjEEd5WDkVcNRlnEnufk7iL4clPB4218HHPPS2tAW58N6it8Zln//UjWCMbS31hzGs6jY3PafaA8+SqEDn4LaXdOYZGhlpqPSdjxPN7NTfBWQIzZYIfKF9/Yr3+MN3XNXwNGTgloeGJSXgfKll18d/eQ50C7aTQo0+aBduR7CH+ZA+GzuIJnCthU2fZYnFulI6lh0+AVg5jVHH5nvT0mF78dPgTUywaCWlwJ4dlfQij8AI81TcORrH4QvHQUBO+eAsbEBaAvXA/a7mLeZLd8E5u3Vs1AFZwCYOlvSPCWpX3xKE7GQ6aCyuz6lU67XiD9KHVukzxuResNyuqtoH/zE4RG4m5yof4uq8FbahoJHssM+v2gT36XW/Al9WB8upVHvO6vALWoCtSd+aB+tBrUp+aAOvZlULflspMXZreHevOTFWvSwEHc7pq6eJt/PfqZD4C6ait0qToCBhJ4utxuR1K37PakibP/JRBQzjPfAagZjkA4maz2PkW1p1+SW9fIrPZtRS2pojq37HbHyJqMxKMb5SwijpC6jNDjI3WbxF3XxduM1FG9W/Z8VgmrqRoFzvp7FMHjUYGPRdS7Xt8EGo5nLU/n3eeY3/5brP32BuWusaDWHoQuH26GLqcPgvAloyJd7V5E7bbgZcrdi9TFRjdLwbO0M7PBzhrLwlnlx94G48NNYORWgl59iIW8sBWmuHAmMw/060bzOFHMcEfrXRyRc3XH4304t57y8kIwGr6B1JufikOdu2vvPSFl8hy2mtRudrNUr9V9bs1cI9H/ZhQEezwPxgtLQF+3i2+S21kA6gerQJk0lxP8xQMheEYfCIV7gnZuT1A254DR8C2k3v+CvbksioxlZI5fw6l9eXzr4W/Y1AFm2bOvyTq5Oc/jsF4Dyy9de4P61Fxm+Qdf/BSCWDLA7xN7IrpPBePphaB/mgHa3nLQ6o6wqFe2Hz4rD9Rez5hNj9yiZ78T25HAn7NlxbucBbYprj+otz3KpkJSd1VKmuFEux1nz/Oa1RW7IbHvY+vZ/z9FvRIIJ2FX+76az888EG21x6/KTdI2rXZ501tRm0ncj9AdRC47kNyt5jpmzxdCEMfjcivBKK4z6+tozzdG6u+Vh5mNHbHnm1guNlrzSI7aniI2/64XVLFo2uD8VRA840HePY8qnTWnmfa824L3WaPqW2/3OdhsubWFDQn4bGyw68dz4bE57a4pYDz1Pk8byy4CrbaRdakrGI06eR5ouGb1wgG8oQvJ5EzcwsZfj61aPWswqFcOBrW6AVLf+QpCpw1okzpns+UX9gUFF9DMWc2+Nmmzm6VOLYLHkkDXvhBM7Q36a5+ZqW/fs/x2bV8Jt7SXbgT1pfdAWZHO5q8x3S54/XgIBs3NZZbt7xVMw+ramInfE5T3lvOAmGc+MrvjXSQatZzF+Vps//hXWaxDP3SVtXd+qBkQ05/X4zGqFX8nd0wCY8J80N/BTPpC0MrrQdlTCMrHa0F98k17tz2uWWUlBzvDXfgZmaUCA4N4ZnwAXQ5/z/eei+lwrpE1bf0B0DYVtCS/uQwCV9w+hP3/k91OIJxcVvv1++sGdttXF221C/VzbzIX6+liepwfuVuEfvT1dV+ljkeUeo8QvLGtCIxdZWDkVbHsedt6Z4fVNY/2PFrzqO4Pg1F7hCt4PAmoPMRS4NR1WWwHuXbP44wcg6c/COFT+9njcZH96R6Wu1/DXAxClxK82WDHyAfVNDZ1YU35t6Mh2OM5CD67GIwvc5g1rFUfBDWvjJMJjvjdxuu9Qdax/QDowbt48huq3zuncvUbVZse5qPOe0HKE6+DUXMEUq9/go+JxTUqZ9rpXXqCgj9b3FO/YQ/vPL/yEQj2nwnGy5+Bjo2CBTWgVR5kipel2T36Kmg3PcLDYcw1qywcxk3w1i50XCRTUQdGfjWErp3Av0ZZvd0rqQ4DYro/DuqR7yA4d3XE8hdjYll4z1DhZAXdiP52xGvwyfdAX5wO2u4SUAurQNlTxHfbT5oLWvcnQL/IUvC8pyCIY39nDwbt/L6g7cyHLsUHzWY4+XY1jc2e72/V1udj1OuPgUAgzXwXILudQDhZrPYH8yvOumR//den7KpCIje72l21c3MOPS61bqpwkfC5MneT+NHV1IMdcdgEz/e4G9tLwNgj2vOR5jokbnYgiaNyt636w6wzW2/6AfQKPnutzjHT09DaNuvvqJjD5zrT3+Ky52VKvQ1Ebyl4Zt9iqhzbwNaPK0jcwMaI8XMwNuWCXnEI1KoG3rGNDV1PzAZ19seg1jVBMKuQLaphCt6uv/sQM9v4NhS0bn1A3Vdo1t7bEBRj1rZZs9vGbLaaNIzb0LDujiSJpGltLvvdGNZFbzy7CPRVOXxJS1kt61hX5nwC6qiXQLvhYUf6G1Pw548AI3QvKLM+BO1Pfw/BOau4A+F1wiGrp5+Peew9QJm/lK9PvWdaZBmNa82qrfQtq/98IeIVCf40U8Hf+QwYTywA/aPNoGFcbVE1y3BXP98A6uT5oPWcxEo/+lk9IWXafAgd/s6cPS+QELpJ6kjomwp+Vj7fAYn3j17E3gNo9pxAOElg1s6uyK1djlZ7F8tqZ4dpt7uJ3I/Yxfq5QOAykvdX5/7K3VORd8TBuucL2A5pI6MQjOxSMPZVsnWpqNLRcse96IzE2WE12FnjcYfN8bgfQcfta4WVoOGu65feB7XfNNB/hw1mfSFkp7+Z29dk6l1mwdt19Oj7rbEzT2K397ELti2Ot6E1b3XQY377sNfBeHMlGJkFoNV/zRbN6E3f8zS7qQtA+/1I0M/mI3JsJA1PEuzuc4EIzVz2lHEvg1H3tV17j3/r2nA+FjhwCqjf/gjBVTtZWp7d4e74PgZzEkUnAk9UrngYggNn8kUzVeaIH64mxW1yGO/60Aw+6ndOb7axDrvS9fojEO4/i8/EswUtrka6qPq7FRAzCNTfDwelopZ3rGN3vEjcsU4IHBGvpoK3CR5H94ZB8PZJYDz+NhgfbQJ9VykPusGNchhsU9sIXUoPsr9XTuYeC1kwTAajXmcsgsCF19zD3gPIbicQTgJYWe2FDUO67av3ttplpB6vShcs+JDY7e5L6LEei9313hGHkc4PXn8viNjzO8vAOFDFrGqm1K3xuCqXgq9o4Jc1TaAf/JYFwbDZcaz9LvkK1KffAvXeiWBcPIjX37vycBhefxcI3qthri0WvAfZ2/eLjVdWRC0qaSSZGyawUBVj7pegZxwAraaJKXjV6qAf+CzfPc5Wkz7ATw7QCsbXO3cYqJg5v6cAwh+kt60z3lS++hm92GYxzL0Pj3gDgn6vwSztyPfBSFG9D7Qp7/HOc/xdZBawTXJsb3pJNaj5ZexEhTWp4e9y4EtgBO9jFjpuk3PW4F0EjcR8AY7z9QIF0/x++AuERs91dsd72fR+5O626DFxDksAloK/cBgYuIVt5megYRNn/RHosrcKNDeZuyNfNxxo0b46AIkPPVsbCARSzHcCstsJhBMar/BEqB7FNedcklv33Sk7qyBtW5G/1S7rco/bfjePDNcRRdBuO75tnfAdqtQl1jyqdqvBzthSAEZmMei7y0HPrwG9rIEr9prDjOS5ejdJHpU9EjxerzvCsraZ4q1sADXrANvQpj76Cmh/HAvG+dgIZTbYnYPK17LnzY72NhC7TK27id19ParGbM1cW6r1tklsi5yxOB30vCqu2tHaXpsJ6gvvgdb7GdBwfvycfmCk3QspU99iNnSXntN5Dd+VYud5WJ3nPSeC2vgtBNP3Q8hcERv3KlbcDY6rSZ/FbWh/AeOL7dxFQIsb192yWf6loH+5A7T9FaDVH+Hfy/wvQB3xEmjXjALjHNOJYNvkTIJnJ0BW9/sw0Lo9CMr2fczJ4el0ZpxuLIXvVZ+XLZ0RLXqzLyLYpTeon22GVDZ7XhxN6K7udg1nzxdlQKe7Br/G3gfIbicQTh5Cvzy3btVZgtXO7XYPde5lv8uum4Ttvu2oo0sJvW11dDfpHitSN1yXLMhmSxEEM4rZJd7P7PkdOB5XCXphLSfwajfBmwoes+atx+uPMHLHNapaSQ2oG3eCigtBcD3p1SMZMaI9j01QaDezBjskeAyciYPA/RS7++PcSXEOe15Mf0NbG5u6LubjWMEpH4K+bDvoxfWM4JXialBWbgH1s/XspAW3ybFRulBP1jHPF7RgAtwIn2S6EaCf1hOUxatB+/EvEB4v5LLHqfCxKxwbxnAeH12ScI8X+MkJs+gHcbWL38u5Q8C4ZhwYg2eB8cpS0LccAK3UrMFvzGEd5JhFz34fZlgPfhwbKwv1AGXQFNB++BOEXl1u9gi45t99CV2YJ4/qqPdQ7qZ618/rD2r6LkiraOR7z9Nl9XMru/1Aq7axADpPe/v/AqdcfI35RsDeBwgEwolutefXj+y2v4FZ7WkeZC4ldJGoJWrdTeQOMpcdbvXeRjXekTV1ZrHLrHeLzNF231oC+urdoCxYBeqSdNC+yAJjzV5ee99aEiH4rYWg55SCvr8S9JI60343CV4kdzzKD3IVX9PI16pi/b3BnH9fsQXU597l2eeX4fw7r79HRssiC1/iJXSvEwCR0L2e56hbI+GcYS42QUsYO+ixMe3lz0HfuA+0ysNslAztbnXDTlAmzAbt9vGgMxeiDyszRAhecAXw8vQBoNwxFtT6RjCySyD8W0H5xqvwu/YBZcg0UL/7CYLLrOQ313Ps9DdhVSwq+GvH8/x2LDN89yd+olJYyQke44KHvgD6dQ+BetNDbK86a9jrjw17WPPGBS3mljd7Zt1N0C4yl9Xapfeb6XWn9wflrgkQxPo5zp6Lm9VcCp2FyeDs+epcSBjy9L5f+y2IQCB0oDLvVdDQ7ZLc2h9PyaliO87tRjjRbvcj9nga5OIlc6n9Hn+Xu5PQi46t5c6UeDGkvLWMpX5pBVWgpu8FZfk2UJakg/pxOmgrcsBYlwvBDK7grZMBI7OILZfR86pBL6vnRG4TvEDulj2PJwC4MQ5rv+b8u7q7ENSP1oA60ZxTvmggBE/vyzvoHdntgj3vQ/TR91vxr866e7QtbxGMSPDDWYMds+aRGM81E+zGvgX6+t08RAU3mOH8+858UN5ZBurDL4P2hzGgn4ujZX24rc3q1iNAT70XlAXL2Fx4eNpi/9q5Z/29NyjLNrGmvvCw2bFXsVob2PA6W4/aE/Qek0GtQOehEfS95aAvzWRNabiBTSmtARVPvPD7avgatFmfgHZ+P9YTwQJ7zjQXtPjNwccicJk6x7IFLnZ5ZTF0afyB/X3K1bnQ3b65oDnl3a8g4caez7D3AmqGIxBOjjG1K/bXrrW72jMtdR7bbm9T0IwfuUdZ7u6xNuE+r4AagfRRFVsfe6wIHS3N4PYy0D5Oh5Rlm8HAxDWcQ2/4mnW166V1oO8pAWX9TlCWbgXl482gsujPXWBsOMDVOyN4ruD1rGLQ91Zwex4VukXwbnueNdjh44fN+vv3vP5ejuNxuaDOWwramJdBu2EMs2BDp/ZhiXG889xU72bgjEXCIU/Cjljt8kUt0R8njYm1yAtH3EK9Qb/tcVDL6kDDE5TcCtBX7wS9qI5tKsM1rgquWH1jCajDp4N2He4d7w0KLmrBvP3SeuhyyzMQPHuIadGLX4ePOj+tHyj3Pg7q4a8hiHvRca2prOvc68DPdVpfUIa9AOrBr9nGu1D3Z/lJAXad3/QEGGPmgPHmCtDwhKWolnXSKwXloCz8EtRxr7GeCDYmZ25gY26ESfCGPe5n2e0+EbXsMvK1Y7a/dvFA0HYXQFrRQU7k6dHqnCXG8VWprfrGAkh66o1/DQRSzjffDchuJxBO+Kz2vLrR3Q40QJdMPm8eqZ0LyXAWgZtK3VeZS65bxO0gcuH+yCHY61FKXSR+v8Y4i8iPoTrHI6OIZWSnIIGW1vFQGWtsDWfSUcHVNbFoVGadF1aDtiMflFVZoHy2BdTFm5k9r6/Zy08OMkoi5I72fHYp6LlVjDgYgfvV3/EEoLoRdDyRQPWOKzxxGchXO0B9+UNQBz0H2pUjWP096BqPY0Rl2tZenfBywo6+LlftElIcMAXUQ1+z8J7QnVN4Hf6y0WD0eI7NjRsrskArO8gJHkNuDpSChol82JVeVAvBmyZAMNzTuaBF+D6iCR2T33qZCv/vIfTEe/L6u58qvmA46Kf1AuXDVTw9bv7aSMKduKCF7YIfBsZNE3me/rzVoGcX82kA/F4wv/3tL0B7eBYbkzMsNwLLDWjzuxW839fGuuqHmaWEFyB8+FtIzSoVmuHcDXEmoePe8xW7IaHv+E3iiT2BQDiBrfZ78movvHR/3Z+Y1b5NsNpdhG6RuG9jnJdSlzzmbbmbpBxlwZt70aVkHiFuJ6G3h6hjfxyzy7G7fXs5qO+uBWVDNk+JYwlxVuAMPxjBs8AZJOMm1vDGCL7iIGgHKkDdsg+UFdtA+cS055dze96w7Pl0k+C3FYG+qwz0A9Wglwr2vBhu4xiPM+vvGG6DBF/XBOr+UlAxFnXq26D2mAT6pUL9nSnFSP09QoyxiD0W6VuvYdnxI0A/vRdLoENiDeNKU6wxs5G2IWb93Qq4GQNGv5fYKJa+dhdo+VWs6xytenXbPlCeXwBqr6f5Bja2oAUbBXkGPX4em+CR8M4cBOoNmPxWzzrPwxjDyvaiS7LdpXb9MJ4ed/MY1hiHP9vw/c9HwmKiavBCs6CVp3/zE2A8Og+Md9eBtruUWfYssAeDbt76DNSHZoL2h9F85a1dbnBH1Upq7OcP43vPP14Habj33EHmkoY4FiZT2JI8ZzkErrxjOHs/ILudQDgZrPa6DcxqzywWutrlhB6zy1126dE0F6XW422UY2QfIXxctCLa7RFSFo+OJ/TgtmIwVu+B5AXLOXG6idwxpmYufLHIl4XRWOod7fkjTOFre0pB+WoXKF9we14z7XncVc3tebO5Dgl+ezHoeypYvCl2jEePx7kIvsqqv3/HCJ5Fu2LdGq1gbEy7bTzoFwzg43HYrW3WrUN2M5fckvdW7ZLDsr3vGQ9qfRME91VA6u/HC41twvy7GAyDK0mRILEpbfhrfKQMa9RN34Pa+A2oJVWgfLEJlGfmgXbPEyzv3Dgd5/ixZj2QfR8s+e3Vj1jyW+iVZeb8e5zNdKbCN9J6gjJjIV+0smIHn62X1reFEwTrhMJB8PxzG7c8BQYuzME8/X3lPE8fCX77PlDsVMGHwDAJHscW8fciKnjD2kmP43RltZCWW8Ob4dK91bm2YX+rilGv41/+KRAIdDXfEUihEwgndFZ7Qf0j3Q4chC6ZJS1WV7u0do7XhdtSIo+3SW5rW4lcVOsu5W7a3m57XrTEnQQfi8jjJH9U55lloMxfwVK5WAqcmffuRejSA59jLn1h15FwUVHXcnte3VEAympuzyuLN4Mq2PPG1kjtnaWBZZeAjlvUiix73qXgzXx5djJhnQBY43HYnFZWB2rGblDf/ATUkTNAux7jabHDG+vvPJ4WVa+1j92PvOV2vTl2dmpPUBauBP1Pfw/h6Z8JwTIeJwdiwM25g9mKVf2GR0EtRZV8mKWkGW+sBD19P9s7rtUeBjWvFJRFa/iJyp2PgX5BX1D6Pc1q9uiSpPZ+iTsBWEP3q7uLxzlDQLtsEKi78tkJUVgWFhOL3C0Fb8btsrlxXDSDJy0XDQfjjqdZtKuxaBNo+ytZvwAj+G177X4CHXfan2MSPP5usOlQvxdSpr0NqY0/RGbP/Qh9c36zsjQbEns8tIS9H9BmNQLhxLbau+dWXnLJ/rq/OyWnEtLERDgfZe5rtbflEBR6XKTuN7Nukzi35aPJWabW3cTdBjXPyLwUtKVZkLJ4LSNgVi83165aRO1L7njbus/9mEW8tWY9HAkeF4zkVYCakWvb89hBb3fPI7EL3fP61iLQdwr2vHXC4LLnNXv+3XQMGrD+/iNoZjytsjoTlJcWgtZ/GuiXDwPjrL7CalWh/h6P/Y4q9fQBoN72CKg1h8ComvvVAAAgAElEQVTIr4EwW8pi2t7x1Omxkxtt7/t4sExoUTrPWEfFe95QPjc+cjYYc1eBnlXIGu7wc6ml1Uz9Yg1bw9/H4BlghHtEFK81A++1+hU/b9oDoOC+8m9+BCOrCEKXjeGjbPGeEPg1610gEDyuisV5/otGgHHXM3wj3pItbBICCV6pbABly25QZy8B7aEZoN8+HtS+k0ErqIC0koPRs+fuQBkeJgPJLy+GwMXX3cfeE8huJxBObKv9yrz6dLTa07YVN6c5utpdhB5PqEwcBC42x7WLyGXd8JbtzgJdhOvuxzq4QY6Nqc39gpGsUXckso1NtNirPax363nxKHiL4JFsUb0j4eJh2fPrI/a8+slW0FftZm/YvLnOJPiMAtBZel2FkF6H6r3Ro/6O8+/mCcUhHI/7kVvBuSWgfsLjadlq1YsHgYHjcdhgZ82Ns+55D4JnTWk9QXn7c9D//A8QZoErXurcg9zxNbr2BGX+52Ac+g7Ctz3DSdDqdBeb0s4fCgZ2nY+dB8aCdaBvzQOt/CCffz9QAcq8L0AdZToRbPsa1qwxux5nut0EPxz0c/qw5DsW5friJ6Y6P0oyl9rz7lWxJsHj/vR7p4Ix+QM+JldSDyqWHLB0Un0Iwge/gS47K1zq3F1DZ4EyLepX+ZA45rn6QCCgmO8KZLcTCCduV3v9hG55OKJW3JKWWeKy2uXjau0idElMrIOcpV3ubVfpIomLl3zum9fZ5Urci/Bl5F9kNsKVgbZoE6Ss2ALGoW8jjXAWWVtKWFTpoiIXVXpbiJ3Z8ybpmvV3FjhT28S2bqnZBaCiPf95BrPn0UFAex7f0DH4htvzqOQLQd9RAvq+CtYtLrXnBYLXKhq4ksfPh9Z80w88nnbHAVAwnnbca6Df8ijo5+PudLH+bil4s/scm9JuGs12ruNu8PDNk9h9ds56rANJDl/jmhFsrC30cQaEznCpe3eCHRI8NtidbhLinc+Ahj8bFmzzHW+uqznIFK/y2mKe/HbVcDPatQ/Pbj9vONu9rvR5CtSGI6ykEfrjpMhCGTskJobVLntMluvuaHYbKt8Fbwb2GANmgL5+D/t+upQ2sL4OLd1N6IJCx+52nD3/eCt0umvIG+w9gaJeCYQTEGad7I595Zddklv3j9xqL2p1zpx7z54freVukbdjjK2thO6V/S55rkXmEaXustit5/iqd9f92JS2IQ+S533BQkSsMTWRyCN70132u9fhJnf3YzKrvtplz9eY9jwSPJIws+exez5T6J7P5t3zSOqs/m526+N4HLPnI8tlcCGJu8EOSV3DznxrfA4/H86+YzxtaS2om3eB+voSnnfOVG9/s86LyW9DQA/fw9Q5NqWF31rNd3c71LnYES+x3K2mtJfeA/2bnyDc80VO1PZol+Q1xIAbvJ3ah82/s5MUtOBzikFfuAH0zftBq8Hu+W9BraoHBffYT3+flxquGg7adcNB3bQTtG9+hNDyHRA6Z5i/Re83ZiYjdL+TAJeCxyY4g92PtfMeoA18EYzGbyFtf01k9lxK6Gi3729Fu73zswt+Dpxy0XXmGwPNnhMIJ2xXe3791jP3H0QS5wEybkK3kuHYId4uhjA72q/QQ8J97VbnbuJ2EXrsGrqraS7Klveor6M6zyoHZcEaRl7GQa7ORQJ3HxYhimQfReReCt2P3D3VvdBch9Y8C7epB3VvKSgbdoGyzLLnM0Bj3fMHOLnb3fNozxe5lsvg+Bv/XFh/jlLvSPA1jTwVDbvnG77mK0nXZbHNa7iSVL99HCiPvwYqvk5tE3TpMxOCqK7tprRY6hzV9hBQfzsYlOJKCK3eDWG2jtQjyMZ9H5vVxrWrD4Iy4gVQD33DQ2FwR7llnWMH/YjZfLUqroht+IYTfGUdaJgKh5vX0KVYmwPGBYP4FjnWS2A17gmxrvE0x3ktYYm79j6Cr5GdOBdSsUlve0mUOufRrwKhb8pvVtfsh8RhzxwQ3hnIbicQTsyu9rqJaLWnZTqtdkdnu6jQtxVB2LoPyXhbxzXEOQjdIvj2KnepInfb7i7ydtz2aY6zThK2lbAadfJ7K8CobYoibpnd7qncJWQdl4qP9RyR5C17HtV7rWDPY/d8dgEoa3ZEuueXbgdt9R7bntfTi0DH5jorvQ7t+cJartCR2AWC18QmO+yetwn+G7vBjs1t1zXxj6s6DME+L0Aw2ANCZ1ihMGjNj/RujmM71HuDMulN0H74M4SHvG6Ofrm77SVkbtvXw0E/vTcon6zjoTBzVkHolP5Oe57V382RMlZ/f4vPjCPBlzfwUbm6JpY7oEx9B7Tu2EswEIJn8GZBLAkwi56F3EhiXdtC3DH3rg8H/cw+oK7aCmm137BykLc6zwdt4wHQ0wubU97fAAk3PTCFvS9QMxyBcIIBuNV+156qyy/Jrf3nU3IqkNBbu8hq54zERXIX7HbheWEZuVv3x0PobgKXkbjsOW0keEctXXbpvu647bLdcUztreWg7izgs+NWI1wcZC613eMhaTdR+72Gm9BlBO9lz2/Nte15xbTndTPcBhW8nm7mgmdYy2Wq2O5w1n1vEnyE3Pmlho9ZC2aqGyP3YYPdrkJQZn4Iat+poP8uunvevXUNVbCGo2d7CiC0rZDF13KCi7eZzuywv+NRNgaGzkr4rml8dM06KZBukMMMdqy/jwLjrslgPL8YtIJqXoM/8iOoTd+wZkFMjlPHvw7arePsVbcsFIY1C/rktsdr1bsteraIZQAotz4KwZpDkLavOtIM526IM8fVtA24Wa0QOj81598CgfCF5rsD2e0EwokGgFcSrsivzzoDrXYMkDFtdnkznNjh7lTubVXoFiFLLXg/Io+X0H0f5zPrcalz8bar3s62rWWWgfZ5JqQsWcetdgmZe1nufio+pq3uR+pVcRC6x2trUd3zRxjJa2X1oO4rBWWjac/jchmHPc+b6xjB2+l1aM9X293zlnq3id194EkE2tdozyO57y0BdclXoE6aC1r3J1j3PFe8JiFeMJKvIx07k3WYpz62wIxsjTUu57SnDVxcMmcJU+fBJRnstSOOgETZiwR/rknwRg/Q5ixjtXR9TxkY89aAvnIH6BhR2/QDqAebQM3JA3X+UlBH89Q33kH/YKSDPtaIXDwkj19TWi9IeekD6NL0I/sf0LwUutXdvjm/WV25FxL6TUg33xTIaicQTsi1qAUNT3fLP4wjaqbV7tXZ7lTn7vtsJW5fj8+GD0muOwjbTeIywo5F7lZ3u+tw3ieQd1QnvEcHPO4031LEx9QKqsCoPQJG9aF2WexRhO6nvo9Gvctm3f3q9V72fFENaNmF3J43u+dte35TfoTgmT1fELVchhE4qndmz7tIHe17vF7Lo1xZ6ltFA6hZB0DF7vlHXwXtlnFgXNAP1FtGg5JbAkbZQUi95glOsPHOvyMxnzUY1KuHg5pfzkbxwgNfFSx7GaG7r/PPZ5zRB9T3V3LLfspiCIYe4I9d8TAY/WaAMeNz0NftBr2qEdQjP4BadxiUjD2gzP4YtGEvgI67080ROQzrYUlzYjKel90uUeraBf1Bzd4PXcsOc/K2tqvJCJ11txe2JM9dCQm/v3sUe28gu51AOPGs9u6FNVdeklv711OyK3iAjKwRzucIC5f2YdvsFlG77vch9Kgudz/r3Y/gJfc55tHdNXWZSvckdPM2qvOsclA/3AjKqq1s9pmNqcVqhItHjR/NIWuga0uTnc+JhOYmeEyTw4Y3JOH8Sm7Pr0R7fgvrnleXZ4Nmdc9nlIDOCN6053G5zP7Ichluz6P9HrHoZd3zbDQO58VLakDNzgOtsIo12+EOeeP2iWB06cW3x52DRMdXw3qmzSERY/196jxWfw9u2MvjbG3LXmbdu0jdOim4chiohRVg4OjadY9HImvxEk8QsAaPATdXjwNj2GtgzF7Bd6fXfQ3a13jCUg/Kqm12B712BY7I8TQ+TIuzl8y4CT6qua8vKP2nQejwt+bsOZJ5YfTsuUXozG4vgKQJs/4SCARONd8hSKETCCcI2D8rACRefqB+55m5ByEts6RZ3gjXdmIX72tzDV2mzr0a5GTqPIYVLyP0qMY4P5UuWu7YAb7+AKTMX8ZqwWxMzUeJ+9bM21snj1Vz97PZfT7eIlUp2bufJ0bTIrlj9nxZPWj7ykDZsNvsnnfa8zrW3jOKI8pxWxFoO8tAy6sGrbSeE3m1W70fdhA8I388ocBLVn9vYha98sYnoA57EbRrMOfcJESmeM1xMmZpm/X3c4eCdlF/ULJy+bjbhHchaDXD+dr1zpMClhQ38Q3Q/sy3rLGROdGyFzPbcWOaHXAzDII3PgHGw3NBX5LBu+dZueEwqPkVoC7fAuq0t0HDZTm/Gcz6CVgGvbhFTiB4NrZ2Sm9QPlgFaYe+Z3+ndo+DlND57LnyRQ506vXwp+zdgaJeCYQT0Wqvn9atoDFitbOjfWQeIXSXzS4Su5vgXSQvJXIvhd7WpjgX6UvVuXVsjYPk0wshlFUGyjurQdmyB4I+tXM3iXcIyXekNS8hawehewXciKrdVu+c4DUWbnPEYc+rORJ7fs0eMJBYHN3zBVHLZdjXY9vzHvV3y6LH7vmGI5wQV2aA+vx7oD4wGfTfDjEb7B7kDXbnm/X3R2aC9s0PYOwqhfCVuGUN0+D81LnrfmzKO68vKOm72O758AMvmR3yZi3cCphx19/PdwbcGGf0BfXLTH5ChD/H3ArQShtA+/onUI98B0p+OSjYT/DUXNDuxn6CgWwbHuugxwa+84axbXLq74eDXlIDXfPrBbtdJHVrXK0AdOxu31zYmjxrCQQu+kMP9v5AdjuBcGJZ7Xfk1199SW7tvzGr3epqj4vM3bVzl90eReDCdS9rXuhuj4vcY1nyPiNuvqrca4wtqimuiOW146az5Pe/ZDawGCDTluOYWO5HQeRej9sE73MiEbHKhZMBJHfWPd8UIfiqQ6DmoT2/H1JWbmf2vLKY2/PYPc9seSR4S71b9jwulynGuW+05w+5yF206Bv4SQWeSJjxtBh/qu4pAnXxWlCfnANq94lgXDIQ1FvHsMkE7dufIDxvLYTPHMxH5OK125GYT0WLeyrb386+psfmgHZhPzAuHAzBcwZC6NwhfB4dG95kzW6mktcuHQTq9v2gff0DGPPX8Dn83z8KRt/pYEz/BPQ1O/n39e1PoB7+GpR9xUyJsyUz3Z8A43dDQT/3AUiZ9zl0afqB7z1nRO5bP2/BzWqJo184FAgENPNdgux2AuEEAPtH/aS8vPMVeQ17sKvdttrbqc6jxtXExjgvcneH0Eia52ISuh/JS9S8qLrtmnq8h6z7PbMUUuYtA3V3EQSFbWptJXPZZYcSvV/SXBy2u30pcQEcJC8hfYdlb3XQm1G4zJ7H8TjWPd/A7fmNoj2/1bTn8zjBb8IRK5OUsHveTK+z7Xm03WX1dzue9jDvnrcb7DBQpwi0khrmJuB9wVeXQki/H0L2vLgwHicdgzPn10/rDQou4vn+zxCcsgiCV40F/eYJoF37EGjXjADtiqGgXzQAjPMHQfBsJHisd3Nlz8gcP8cpfUDFUJum78DIq4bQtRP4ljWMdMX6O65VPW8IGNc8CsbgV8B49QvQN+cyR0L9/k+M4NXcUlBz8lnZo2vpQTZWyMlcYrtbzXDpBc3Kkkzo1H3IXPYOQVGvBMIJgvXArPbr8upf6JbfyANktpeAu7O9vaQeReBSxe6eT3feHzKvdxShByVWu8NSl6lyX3IvhBDmtX+6FVI+3cDz2uMgc7el7iZtr+cdD4enOvd4HouGdZG6Q7mbtXF7o5udPf91xJ5n3fPZoHyaDtqXO/m8u20dF3JyR5Vp2fNmeh0LeLEJ3lV/t7rnrQY8JHhWf+fPV/MrQZn5kVmvHmLa2da8uDX/LnS+Y038jIGg3vwwW4Ji7C6D0GUP89l0tO3xpODSh8D43WjQrhsL2jWjQLt6BGi/HQz6hQPA6DaI5a6Hzh7KF9N8tp6Pzc1fB6HTJDPw+HlZ/d1ssMMFMzdMAOOhN8B4ew1o+dXMkQjVNkHa3mpBnRfyOXR3DX3jgVZsmOv87LstgdN/d4O4bZFAIBzHeMW22muvv3hf7X+esqMcumYWt7JNap4LWI6C1B2HvGYu2vH2TLpI7kdzuCx2B8nLauZbPdLjZISfXggpc5eCXlwDRl1TTLtdpryPN9I+KnIXH4/z+aKyt2bSbYI3w21YmlzVIQghYVuz7e7D6t5GxYmXbLlMKej7KkErEtPrGn3q7ybZ48kE21B2CNSd+WwETX1sNmi3jQfjAlzD+iBfyMK65zHtbRQYqT1AmfUhaH/5BwjNWAqhUwdEmu4wkhYVNh5I8Hg/EvyVY0C7fiyo144E7cbRjOSVgVNAxZCd2iMQ7jMDgrj21QqxOc9l97sDbpDcu/YF45aJoBZWQ5faJghnYtSrhzqPzJ+3qGv3Q8KIyQWCzU52O4FwfIOHREzKykq5Iq9+/xm5DZCWWRSJd80shtTMoyNxf0KP4zDVeggPgdy9SdvvsejDstptdS4Su8uS92ySQ3WOY2ofrAdlTWbc6jxWA9yJSu5xnwC47Huvw3kSwIk2WNbApgk8ydyT4F32vJlexxv2zK9JRvCiemfLZb5j0bQqblzD7vmRM0DH5TLnD4DgKb1B/eNoUIurwSg/COHbpnAFbZGte979PIvgh3KCv2gUBC8dBXqfZ0HF0bvG7yC4YR/fQudIg/OIq7WeY6p3/dz+oO8uhFPKDkV+NtL6OTbD5SHhN6cs3AgJN/d9lr1NUDMcgXACdbXnN8w4D7vaM4tbum436+aCzd6lnSQeW6F72PFiPd28jzfGiWRdLCdvfK4v4Qu1csF6twhaWkePReyZxWB8tR9S3l7Gw2NcY2rtIXSZ9X5MyLXqlyXweNS6/bjkfnbUNkJoTyUYOEctI3QZmYtEZjXVmfGm7Pr2ItD38PQ6Vru3wm2EeFpG+lYUrT0eZy6Xwez5wiq2XEZ9dxmrWSPxG9vyIHgW309uj5NhbTwqT14geLz/rMGgXTwI1H0lrBkuNOnD6KQ7R1a7i9jPi0S9qndOgFDNYUjbVcW/Vzehi13uGw+06psLIenpOf8RSAldbL5TkN1OIJwIVvudBxpuvDi39r9OyUarvaTV3QjHVPpRqPN2q3KB4GOrcTe5t4PQXcQedbnVr3ZeDso7q0Ddtg+CB79pVyOcX5f7cdX53hYCl5G05Lqt1t3KXairW6+l1jRCsPwg+31EKXEv+z1u9W6ObVm73/dWgmYtl/Ebj8PHmTXfyPPaG3Fe/Ij9mPruClAHPQvalcPBONvMn3fMiyNJD3dtRHsQlJHTQW38ljfDXf84H2MTZ9hjrU21ltPM/BC6Hv6B/b1qYjKcm8x5eaJZXbUXEgZOzGBvFBT1SiAc5zD/SV/Z951yRV5tAbfaeSNcF4HQO6JeHlOhe8yfO6x11unuo7zZ/TLFXtx2C15smHMTufs2W75SCvqKHEj+YBUYR9nV7lVb96u5H0+HRcrx3Ce7Lp4IOOxv4XmoikP7qsCw5qiP5nDUkl2P2XPZBaBbu99zq0DD8ThU6DVW/V1Sc7cI3vpeGr9nM+TqgTJQvtgEytT5oPWcBPqlgyB45oPOjWuswW4U6Gf0AeWzDbwZ7t31bI6cNdtJZ95lt4cxC1+7YAAYOXlwSvEh3gDnq86xu72oJXneKki4+p4x7L2C7HYC4TiHqc6vK2h41Q6Qsbraj5LQwx1RQ5codMt+d5C6TeRFbSb0oAeRRx0xbPfQtlJIeWsZaPtKOKELee1Hq9CPZ/LuaOK3yFx8PIrcaw5DsOIQhDJ9muE6+rAbxwR7PtPsnsf0Oky+i8qelyh4Fm7TxGrvzKLHBrtd+aB88CUoE14H7fbxoF/Qn4XIBLX7QLl5DMuoxybAyNpXc3e6SOCOmrxrEQtGvQ54FlIPfQOpO8qim+EkdjtuVkua8OrfBQKB08x3C2qGIxCOdzK/veTgzRfvr/1v3tXecVZ7h1ju1my6cNtuivMkdS8l7q/S41LkUqLnjXDaJxmQ8vlGCGJeu6jOa1yXPorcXUPHj3Hc9iHH44Xw/VR3vM+Pst3d6ry2EcL7q/kO745Q5u15ntueZ7vfS8zlMuJ4nGS5jF1/F+ffv2dNb2p5HV/IMu9zUB57BZSVWxj5YyJe6lXjIXj2EHP3u0ftXbThTUI3Tn0AlA9XQ9f678DAMb4tMQg9vbBZWbYLEns//AV7r6CoVwLheAbYWe3Y1X5mbgN03V7SHFHnxR1K6B1xsPlzawbdtuAtgrfI3TwEi955n49yd6XIiTV1qSq36+rFbEwt+a0vQCup5WNqMrVdIyd1TzKPs0nuRDk8rXPXdS+iF49gJY6qlf4yytyrmc63/i7sfs+tBK1YHI+LQfAYYoN57bhg5uuf2FIZ9hgS/5jXwDinLwRP68u3reF4nFV7j0qY4411obMHg/r7kRAsroau+2u5Oo8qM1iEbm9Wa01+9VMIXHJzb/Z2QXY7gXD8YrDZ1X5T8cHRF+Ba1MwS1tUeqZ3zMTWL2Bk5Z/4Ko2oikbvui5CxeTtKocss+OKYnfBOC77Y33rHRrgdFaAsXAfKV1kQxDE1mdUuEnlN2wj+RLfevWx12eN+dXaxsz2cXyOoc8x3tzLef6VDJPkMMdxGtOdx9ztPr9Pt9DofgmcBN2ZEraD0lQ05oGK4zaDnQLtyBATP6Q8hK3uepdeZ3fNI6HjZtQ8oT7wBaZghv63YFfXq3rLGZ8+1DQWQ9Mj0xkAgoJtvGWS3EwjHKex/zisONOSdvs9shMt0184jSv1oFHpHk3rI74jZ/CYje/8aupTULWLPLAFjXS6kvLO87SNqJqEz4qrxUeltsN2P58NN1m5V7tdIJx4Y0hPKKo3DKj/GJB+vXW8dOFrntudxuQxLrxN2vzvS64SGOvM6y7rH7Pm6JtZcp36+EdQp80Hr8TQYvxkCwTNx29qDPJ727KGgndEbtPRd0LWiiX8N7q/fHfeKdvsn26FT9+Hz2JsERb0SCMd/7fzuosNXXbin+v+6ZpWh3e6snVvpcCKZu69n/kI1dIvQo2rpMYjdcdtty8vr6xZRiyRuPd+rdq68vRK0rP3OMTVLfbvVuEyRS8j8ZFDmMkJvixUvJX1U54W1YLCta36EbT5uE+4vrOBjEb1vep2wXIapctdqWCt7vtLZXKdWHWQz7+rCL0F9/A3Q730SjMsGQ8q0dyD18HeQtrOcj6r5ELrGol6LoPPz77UGzrrsZvZ+QVGvBMJxDNNuvzqvpud5+2qh6/biVma3e6hzeyGLSOJtTI4TR9c6qp4eU6VH2emxmuUipM4IfBs/IuQuKPWMQghmlYG+IhtSFq0Go+EbM0jGw1IXCd3Paq8RSFy43maFLqj6X/vwIulYz5F9DH7voewykzC9SNq6X3z8V7bkYxG+mD3vWi7D7HmWJe/q+HfU3l3pdRhPW14Han45aAePQNeKw+zvl8+ei4QuNsSx8kCLui4PEkdMLaKoVwLhRIB5xn3B2l2XnrWz8q+n7qqCtG1F5npUmUoviRC4m9TbWEPvCKUe1yEqcinJxxptM4ndQeguu31bCaRgI9yBMjAazDE1PxXuJnjRUjcJ2LLX3R9jE7qLqN2PH6/k7melxzoRcKTCFdWx7Hxn3TwOpS4l/Hie2xFHHK8rErys/s52v0vS6zxr72Z6Xd0RCNY1Qdf9NdFfh5vQ8XNtKWpO+XAzJPyx7/PsvYKa4QiEEwDmGErqoi2z0rKqoOvumua0rNIWO+JVIPdUi9Dd1jveH4PIO0KRy+rnnuRuEXIs1e5uqrMJvBiC5mNBx+Gy2neUg7ZkC6QsSwfjsDmmJlPfXtdlqt1D1XsRni+RC7X544HQZco7XtVuf0xNI4R3loNhq3PZEY9ib4uCP0bKvi21dy97fm8l6JheV+7qnhdUPKbpdalugjDOnrtfM7q7vVVHu/2Zt/4zEDzlUvONgqJeCYQTCImJk+e/pr675ufg5iJIza6ELtkVrV12lDXbY2vbOKHzznckcevwqK/b95knA7+kMvdS49uEmniUDe98PCjeZ98vEDvet7kAUuZ9AXpZHRi1jd62ukyxu1W6TLm7rHe30o6pyv3IvOaXrY97EXq85M/JqhFCJfXMGXESsoyUvchd9rG/ghUfq5kuPU573mqws5fLVIJWYtrz5s9MbzgCaUUNfO+5lNCFsJz0gmZ19T5IGPjkdvbOQFGvBMIJBuuf9ub+f0gcM3158nML/qp+uAmCGwsgdUcFdMmpbO2SXWGTe6rMhrfIPdOb0Duibi6q9TYRvNSOjwTR2I1vwm1G3jahO2vnoexyUN9fB8rGbD6m5lbnXmTu9ZifFW8RuEuxWza9g9hrPAj9OFLobVXx1m2cIAjvqhBq524iLwJjSyEYcSn144zg20P6UoIviKTX7SoHLa8agiUNEMop8359qyGO2e2FLcnzV0PgmvvGsvcEstsJhBMQYhfrWZefG7hr2NjE4VO/6jz5rb9X3lkNxtr9EN5eHiH37SWt9tY125J3WfOZHjZ85tGTeNsVu2ve3M+GNw+bwB0KvQiC20vBWLsPUhasAKO2ybuLPRZ5xyJ2122RxK0RNwdhu4hdfO5RE/qvfFKASjNYaq1ILWJqM0LcfodMtUefCPir+vYcHXxi4JVS50X4YnqdOGvuF/e6Ka9V24RRr6/9QyAQOMN8N6DZcwLhhCV193iKccapgRv7Dkwc+NQnSRNf/0Z5Y2mr/uUeCGWWQWpOJXTJKW/pklXa4lTkLqtdIHB2vR2E7me/H7Vad5A4XkZsd1udC9Y71s6V+StBzc4DA8fUxEa4th4eBC8qcoucHQTtpcBl12XP9yLpX4G0Y3W3swNH1bBejESEZG7b7l5KXSR8fr/8BOBYEHkMUv+lcuejlLgPqQjMiz0AACAASURBVJt2u7J8NyQ+8OgKsceGQCCc2OjErLbo2VMjcPX93Tv1nTA/cfysquSXF/+sLd0BoYwSCGPdPaeSk7ug0DkBR9Q7I/MOIPWjJm9J05xVI3dfj9zmZK4vy4KUxWvBOHSUZN7GQyRiKbn7EXqsEwGRzONR4342fxxKP97UOEudh3BF6jZcwmKqcwehuwm0iJF+/E1zPq8Td9OdF6H/CsTt93gUyTvCZFqTX/8MEi+/pQ/7bye7nUA4GSEl9+TApbf/IaHn2JcSH34pN/mFhf+lfrwFgpsLIbyjElJZU115s6ML3lTuNpnHSeqiEu9INR6L0O2GOFulC2NqeRVg1B+JXTvvQDIX1bun6pYReTzPO8b2eryNcNLZc1TnuVWss91B5G7SxttRRC95jqdC9yJtL5KOp+nuFyTvttryjkCZ/BZtYwEkPjL960AgEDT/x8luJxBOciRKztwTAudf+ZuEu0c8mTDq2YzOU9/+F/X99WBsyINwVjkj99ScCLmHbaWOlwLBH8saentJ3h5hK4JQdgVoizeDsmILBGVjaseKzCW2vF1Hl9XK/Qjdy6aP5/5YJwZ+ir2tqt9W54chxFakljgJ2a3SfRV5vIeX2o6nFh+L2GUkfyws/zhPAKLVebPyWRZ0unfkO+w/mqJeCYS/OSQwcnePtqRdcnbCHweOShzy9Mqkp978SXlrJehr9kEos5zV3VOzy1tSt/O6u2XJR0g+tnI/Fmo9KFPr7H6znp5ZAsHN+XxMraKej6k5SLbxFyX1uOvq8djuXqre74QgXjJvp9rXRHV+oJp1r4tkbjfGWcQuqPNoSz6WSo+X6GPV370IP5bqP8ZqPpY635TfiqWMzi8shMB5l/+R/Q9T1CuB8DeNTlJyD3dLDdzwYO/EARM/SHz8tYMpr33aoq/YCaFtpRBm5F7RkppV2hKl2PHSsuWt6x1dR49hu9sKHXPdsytAfW8tKJt3QfCwuU2tTaTcNsJ3K3C/5zhq69XtJHk/tR5LcfsRvB/RxyL1msMQrDoEYVzCIlPnHodI6J7k7vgYTnJRij9G411sco9l1XuR+DFS7LKGOMtu/yoPEkZNLWUOnPX/TCAQCAzypjo1cFX3Wzv1GT87cezMkuSZi/5H+ywTgluKWVMds+Z3lDWLzXT8EMj+F7TbOcEXsa1expq9kPLeSjAwRjMukm7vY7EJPqopzuMw2kvq8dryXmq8o2ry5opUXE/LyHWrB3H7ELqUnMXbfvf7EnrhUaj+WGrf60Sggwndnj0vak75KB0Sbhsw3f7fJRAIBDmk5J4U+M1NVybcN2ZawugXd3Z+/r1/Vz/aDMamAgjvqIDUnIrW1OzyZoc6dzTUHVtyd9TOt5eBMn8FaLsKXAtYOoK0G2M+122v+9XN4yH6NtXZ/UjcT+XHY9sL1+1GOOG+YPVhFldqqWebvCUqW0ruMjXuQeKeH+tJ7nGodKb8/RS7n70vU+x+Fn5bST0ye452e9Lkef8vYJzxW/6vSVGvBAKhLXV3p6XXKXDeVRck3DF8XOKIaeuTJs/7B2XBGtDX7YfQ9nK05ltTcyqQ3Fud5F5ybAkd7XcMkVm3F5Slm/nMee1hs34uq6G3p44uflxjTMtdRu7tIvD2EH5NG4lc8lzNb3xNJP46XJFax2NeXco8lkKPUtl+BO9H/H5qPm4b3o+8/VS/jNT9TgzaSeoY9bomFxIGP7mD/SdS1CuBQOjQurt+4WmJfxwwMHHI058mTXzj25Q3l/Ewm21lzJoPZ5e3hLeXtkQUegnrgkaC71B1LtTQg1klENxdAUZ+DRjlBzn51jUKzXFeZO4m+mji9yLueJT5L07o8aj0eInfR/nj9xW24koF4jbiJXTxY0zi83uup9XeFoKXjs3FInR3PT2W5e5H3kVtI3Nut7ekvLMWEv5w/zj2v0d2O4FAOHZhNl2Dget63tup/xPzkx57tTpl1pKftS+yIbi1lJN7TmVLGJvqOlidO8g907yeIXS87yyHYF4NBMsaeCMakjseMW149yF/nt5GEo/3vjYTcHuf50PWvicE5orUcLGpzl3EHZOUPYifEbpXndzLkvey2mMpeZmtHzexe6nuttwXQ73b9fO8Vm1zISQ98fo/YuCz/X9IIBAIv0BTXUrgd7fdkNBr7MzER17anzz9g/+nLsmAYDomuKFyr2gNY93dTdKo3Nuo3kWF7lbutmpn+9CLIZhdCsHcajCK6/hsOiP3Jm7Pt7NpTo+h6GXk/Yup9bYo9Rgq323B8+8FV6RWRAh4q3dDXBRxx7LmTZKL67lxnCzErLMfzShdlNqPR9HHa7kX4PVmdcVuSHxw3Jfsv4uiXgkEwq8WZtPtussC3Uc/lfTQ81s7T1vwL+rC9aBvyIdQVoVJ7lh3F0jdJvijs+Kjjq2Wei/m1vzeSjAKa8GokFnzsVS7m/Aj98tUdzyNcsfdIZA433Eu3F/LV6TiwhwDD4soPeroeL+Bh4yMfbrio563pW0OQNw1+Fh1+1jqXmrNm9elz4tDndvZ7UWtybOXQuJvb+3H/qPIbicQCMdBU10gkHbxOQl3DH4ocejkL5Mmzf1TyrwveZgNb6qz6+5Sxc6ul0TVz2MSuS+541a2EjB2VYCRVwNGGZL74Tjr7jIVH/kYS8WK1rz3Ee/zjjGBx3Mffl+1hyF1TyXvbMfNagIp22Rskrit3GXPMZ8XS4HHo8g9TybaSvheytxt9fsp/rjr8RKSd+4+51GvY1/6NhAIhMz/IrLbCQTCcdZUFwqlBW7q2ydxwFMfJT0x+1DK7M9btBW7IIhNdUjuORUtoSyT3B1HB5G6m9wtaz6nHIL7q8EoqRfq7jJrXkbkTkUfIXV3Ex0+ZhG4df1XJvQ4D6ydh0obmDoXydpW4G4l7iZy87ZN5B5WvZ+V3iaFLqu3ux/zUuOy52R4ELHn68lG2uIk9Izin5XPd0Di/Q+9y/5nKOqVQCCcEGE2195/W6e+j7+ROG5WafKMRf+rfrYdghnFEGId8xWt4R1lzbKau7vb/ajI3W3N7yiF4L5KMIrMujuqdlu9ywmdE7Zor0eTvUjs3mr++CR5/P5T8WdikbJJ7A4iZ9eLownafI5MrcdL3I4d60ej1LFmbn098TTSeRG247Y51x5F6HE2womEvplHvSZP/wAC5157G/svoahXAoFwwoXZXHLL7xN6jXkuacz0XZ2ff+8/lEXpYGwqhNAOrLtXsqY6q8bOSdyy5i1bPkL0R30wEuGz7mwkriBSd8c5bDycDXLuMTYnacvJWkbejcenOi8/yH7Woq0uPTKwvi4ocpHUXScADrKWKPaYat2L3Dvq8LLe26Tk47HhHQq9RV2fD4mjnitn/xMcZLcTCIQTOczmygsTuo8clzBy2sakKfP/UXl3LRhfHeBNdTmVreGciubQ9pJWd629wwhd0jVvZJaAsbMcDFxIUuqy5l3kLidHPwKXEb2M3ONR8O7XOkpSR3WOkwIOYi52EHjk4A1ztioXP0Yg7igb3m3FC5a+lwK36/XW54hnnv1Yk348hC5T8lYzXEZRc8qiDIx6ncn+E8huJxAIJ9WGOP2C0xNvHTQ4cegznyU99eZ3KXOXt+qr9kIwswxCrKmuoiVkNtUFo2z5Dib5rZG6u5FdCgbuAi+uB6OKEx87aiMWvDfBxlLrbVH1foTeAeq8EpewlJgkGyFwm3Dt68Ue9zub5SwSdip7D/tctOkljXZRRO+l9C2rXeiat58XS+n7dcTL1HrMjniJ9Y7qHKNetxRB56lv/3dAP/dy/sdPUa8EAuFkbarDMJsbHrivU/8n30ma8FpN8muf/qwuy2FhNqzunlPBwmwi42/HSLWbdXckIkbyuCRmTyWz5nW05rGZjjXVRZS7W33La+dudS5roovnRKAtZO9zkoAxrwdquENhjauJKjyKtKMftzvi3eTtVuIupe4+CZB2xste75fojI/nut/4m0jqkX3ozdra/ZAw5OmcX+ufjkAgEH69MJur7rwxoc9jLyc+OjMvefoH/60u2QpGOja2RcJskNxtEkblLjTVRVR8+4nfEJrqmK2cWQzGrnLHSJyt3qVE6kXUXoTudTsWUfvV66NJHdV5sPIQ22inO4jaImunWrcUfOQx53W3Jc8IOYrYBbveReoxVbjwMXGRultxx6v222LB+xK6Kx0uo6glZcE6SPhDz8ftv3kCgUA4uSEl98TAJTf+NnDfmEkJY6Zv6/zsO39VPtgI+sZ8CO4w6+6M3E3iRpJn1y2Cj5/UDYvE3aQu3rYIjFnzZaCjNc9G4g6BXtsEel0TC2rxJ/dYat2LpL1Uul9dPvq2hrXz/FpzCYv5fbsUuNx2lx8yordOAJyvZd0nnDxY3fOSk4IoApbU3eMi+aNV9aKF72fPSwk9v1XbXARJT83+p0AgcI75N03NcAQC4W8K8jCbsy4/N+GuIaMTR0xblfTMW39W3l4F+tpcCFphNthUl8mb6mzlbhF9G5W7SPDipX2Y1jy7vqMUjL1VYBTWgV6J5N7oIncviz2emrqX2m+H1V7TCMHqQ3xFqttuF78vD+J2k7v7PnfdPWKtuwlfcn+GhNB9CNeu7Xup73iUuNfj8dTWpWTuaojDqNeVeyCx77i17O+Xol4JBMLfODzCbM5JC/yxX9/EwZMWJU6c3Zjyxhct2srddlNdCJvqzLq705Y3Lx0k763M3dfdh63crdovptWZW+L08oOcXFlTXVMMJd2W2nssa93jel0TpBZwdW6Tt0jkHqQeaZyTE7vjua4TBS8Sdz7HqeilRyzb3Ktu76f041Ho8RK7m9DRbt9S1Jr85jIIXH7bQPY3S3Y7gUAgxKy7a4Gre9zRqd+ENxPHzypLfvnj/1U/z4JgRglrqgvtrGwJZZW1WPGzNrlnxlbsMnJ3q3f7yDQv7bq7OBLXAHp1ZN49dq093kN2YiB/3FqRapcN/IjcvC0nYifBR9vtscg/Upt3E7r74yKkidc9iN9DcTsS7ryIvq0Wva+qd+S3t7DNauNmfhcIBFLNv1Oy2wkEAkEOKbl3Dlx8+zUJvcY+l/DIjN3JLyz8D3XxFtA3F6FqR/XeGhLr7g5Cd5N75LaMxP2Uu9yaLwNjH47E1YFeZVnzqN7jJed46vEeZF/XBOHiet7F72OtexG7txXvbIzD59s1cvukwHnpV3MXX9Mmckf9Pbq276u8YzXexSD4qHl6mWp3d7lbUa9Lc6BTj9EL+Z/qemqGIxAIhKMKs7n4uosS7hv1WMJDz2/sPPXtf1TeWwf6+jwIZpVzcjfDbKI75KPJXtY016bDYc3zkTidjcSJTXWiNR+rxh6rS/6wY5wuFRfXuNW5jLjNx6Ob5pwja54fI5KyR43d0RwnqH4xflam2v3q+NLnu4hcuk1ORuptUfSOnHcz6nVLMSTP+AgCF113J/tLJLudQCAQjobcXXX30y44PeH2wUMSh05ZmjTpre9S5q4AffVe1lQn1t0jI3BWU51sJM6nYS5ewheteXMkTi87aNe72RGzKz4O1Y5z56X1ka9pa4yTDocVLhC78Bx2v/haIpE7nmeeBEjInl13v6ZbdUtVvZP8nTX06M57WZe8aOd7Pi/esTqR1K2o1w0FkPjQc1XMMeIgu51AIBCOSVNdWloo8ea+93ca+NSCpCdm16a8+mmzumwn2xDHyJ2F2ZS1OIhcbKxzkbohqPi4Cd1BksK8O9a5c6tAL6nn1rxF7rXtq7tjEE7qbr6ExSZQUYF7kLqD0N3d8D4nAVLl7zqRsE4I3LV0z9dxqXrxa5M11YlNes7HotW97IRAqu7Fmr6M3K3u9q3FzSkfb4WEOwfPYn9rZLcTCATCLxhmc2X3mxIenDArcdysvOQZH/23+mkmGFvMDXE5Fa66OzbAiRa8SOSc7Nul2N3kjsSDaXV7K31G4mSEHrmt1TZBuKwBsNtfb0tpQEbeUerbg6gl93u+noSwpeS+TU7o7H6X+vfrlncQvYOwBdcgjlq7uEwmcp0ROrPbO099538DXS68kv95UdQrgUAg/DphNhff+rtAz7HPJI2Zvr3z8+/+Vf1oE+gbC4QwG1Z35xG0btUuXG9zjd3PmrdG4rAOnmeNxJlpdXbdXVI7r22CVJyRtxrzJIenUpcQsNSCd72WW9FLrXvxJMBt2UfZ5qKijv2Yuz4vV/YSFS7p3ncm5jkJ3pDX0ZvVdQcgYcgzu+nfl0AgEI6zMJvAPSPHJI58bnXnZ+b9RXlnDejr9pthNlVI8M1BbKqzR+EsMo8oeKNDyb1YsOb5SJzORuLERTKCOq84yJbadNjn9yJw18mBV909mtBNcrSVNl4XSgOetrvHCYZAzNFkLyNqt+0vqHlz3a5U7Xva7SXNKe+th4Qbe01kfz/UDEcgEAjHa5jNwL6JQyYvTnzyzaaUN5e1aF/ugWCm2VSXIzbVWaTOSd66tK5HyO4oyNbqmhdG4vSietArD3NSr2+C1Fx/dd5RRO54LMbHOb5+ocFON8k9OmNepuBdJw+STnv5x4ud+i77Pqou7zoZEK13kdSF7nZtSzEkPfXGvwQCyrn23xKBQCAQjiNyj7LmT9cD1/W+s1P/iXMSJ7xanjLr4/9Tl+4AAzfEMXKPhNnYnfHiEplMgczF655HSfzWfFYJ3xKXVwNBHI/7BclcdtIRaYCLVvNxvY67ti7WzV2EHlWHF7+GGEfUKFxU3d5HpacX4s+/WV21DxL7Prae/YlQ1CuBQCCcgGE2v73nmoQ+459PGDtzT/L0D/5T/TgDDBZmUwnhnZWtZs680EQnHLZqt0jbreLboeStxq22kvXREH2cJwN+JwnWazhIVqizu9Wz+3Xdjzmb7OTLY3xVuefHuEJlWHZ7cWvynOUQuPLuwfxPhTarEQgEwolWdxfRKXDRNRcH7n94QtLoFzclTX3nn5T314O+IR9CVlOduURG7JhnVrx1bIuH4I/NoXfA89v8Gm773E3QMuKXKHJ+O7r+HkXw4kmAzGrP8Kite3W9W3b75iJIHP/yjzgUaf8tEAgEAuEkCbM59XdnJNwxZFjisKlfJD3z1g8p874EfU0uhLaLdXdh3l2sv7tJPkrJt0O5t5Gsj7Vid38eBxmLz3Pb9YLt7iT8Iu/uelHtezwut+O9x+C4Oi/E5/2sLNsJnXqN/oj93mn2nEAgEE7iprrAxaHATf17JA5++r2kibPrkl//vFlbzsNs2PpXc4lMpHGuJFq92wQfS7n/Moq+PScEsU4U3OlxMU8CZFa9T509qlveuk/otHfb+eKonJUTYFvuOHueUQLJLy+GwIU33M1+1WS3EwgEwt9QmM0199+c8ODjrySOm1WQPHPxf2tmmE04m43DCWE2ElKXKfhjaNG3R613hMKPUu5tVP9ez416PYeNL+98t69bS1ssu31LYYu6sRASxzxfEwgEks3fL9ntBAKB8DcZZnPRLZcn9HhkcsLDM7KSX3j/X5WPNoOxqdBuqsMlMpEOeQ+Cd9jybqXuJnzx8WNfq4+X3P2eF/WYxIJ3q3ExRc79cWLnfVS3u0vhi6TvGFdjdntJc8qSbZB415DX+K+YNqsRCATC3xrkYTYXXndewr2jHk4c9cKazlPf/ouyYA3oXx2AUBaSOw+zYRvi3LV1T2veiqp1E7oXwXc8oXeEand3wste12G/S9R4VEOdjNjFEwP3x5mz/xahG6bd3vnZBf8XOPWSq/kvkKJeCQQC4W8Z8rp78KyuibcO6Zc4dMrHSZPmHlHmLGvVV+3hSXWc3FtCO6x5dxmh+3XPFx8TQpeRdjx1cwfxxvE5ZITvUNcy9S5R7Y77fDrpHQ1ylkLfWtSsfnUAkoY9s/dX+8shEAgEwgkYZnPDg3d1GjDxraTHX69IfuWT/9O+yIbgtlJO7jurWsJI7tt9uuS9rHpfG96LUOMn/7YQdDQRt6MUIKpv8bUk3fL255I4ANHBM2Z93bLbt5U0pyzcAAk3P/A0+xVRMxyBQCAQ2thU1zlw5d3XJjz42ItJ42btTX7po/9Ul2wFI72YZ8ybdXeW4x7rcAfdSElSdr/fc52PHU1zXFzqPM6ThqgTB/com/t5sjAba1xtM9+sljRpzl8DAaWb+XuhZjgCgUAgtDvMJiFw4Y2XJPQc+3jCw9M3d37u3X9SP9gQCbPBpLqdrO4em9ylBC9rnIt1AtAWpd82Im9vmI2frS/rqJcF3tj5+Rls9rxZXZ0LCf0nbGS/BYp6JRAIBEKHNtWdctmZCXcNG5448rllSZPn/aDM/xL0tbkQysKkukjd3d4EF4vcY9rzfra4n53/yx3xzr57NtSJo2tWdvvWkpbkuSshcNXdw9jPnex2AoFAIByzprouXcKBWwb27DTkmfcTn3yzPmX25836yl0QyjSb6nZGmurYkpiYyt0kuLjs+nga8I5eucer7P3IPS7LXkiHw+52Lb0Ikh6b9VMgEOhq/w4IBAKBQPgF6u5K4Pr7/tip/5OvJk54tTD55cX/o322HYIZJXbdPZxdgfvd5WE2cVnzLtVub5IrkTS4yWvt7Rtt8z85aBeBi7fFHeqsu73kZ2X5Tkjs9fDH7CdLdjuBQCAQfrUwm8vuuCLhgfFTkh6ZuaPziwv/VV2UDsHNhTypjtXdK5pD20tjB9nEbdM7CT5eW9yfeH8hO98idNNu17eWQPKsJZB48XX38h8xbVYjEAgEwvFQdz//mm6B+0Y/kjj6hbWdpy74O+XddWB8lWc21TGCR3LnYTZtOWQqXppm53/obSb3jrDoI69nd7hjQxxGvW4qhMSHX6xjrgcH2e0EAoFAOM7q7mdeekrg9qEDOg2btiTp6blfp8xd3qqv3sc2xIl1d6lyj4fgfaNqZapbTtjRNrpAwDGUvp+179kJb2a3G9tKmpVPt0On7kNns58XRb0SCAQC4fgPsznVCNzQ/+5Og55+K/GJ2ZUpr37ys74sB0K4IQ7JfReG2ZS3sLp7WwleqtythrtiSd09otS9aujyOr07CMd5EuE1zua8z7LbMeq1GDo/9+7PgTMvu5b9iKLLGQQCgUAgHNdNdcmBK7pfn9DviekJ42ftS57x4X+pn2yD4BYxzKYN8+4xau+6RMXb98VMt3OrdT8XwN9+tyNf2Za14mZ1fR4kDJ+yX/i5kN1OIBAIhBMBgxOlYTaX/eHSQO9Hn0h6+KX0zs+998/qBxshuAmb6iohdWdVayqvuwPLmW8XsZvE6jUelyna7F7z8TJlHn0i4Bs6Y9XP0W7PLG1O+WATJNzUZzL/0VAzHIFAIBBOpqa6c39zVuCe4SMTRz23PGny/B+Vt1eDsW4/hDHMZpcw77691CbuuMfi4qnFx2yo8xqvs5yACMFL6+qsGY5vVkt65q1/DaScfoH98yAQCAQC4aRsqgt3Sw3cNrh3p6GTFyY9OadBefOLZn3lbhZmk7qzGlJ3VraEs8tbQpl8JI6TdITo41fykoAb636BuLn69pubj+PA+jna7WtyIWHAxE3s+3R/3wQCgUAgnMR1dzVwXZ9bOg186rXECa8XJ89a8j/a0iwIbS2F1Bwk96rWcE5k3j3uRjrp/YKN7qniRYL3r6c7lHoGdreXtqTMXwUJ13UfYX+/BAKBQCCc3JCSe1LgN92vDDz42NSER2dlJ7/44b9pi7dAML0IUnOq7Lp70CvMpo1NdVG3M2M100WPtbHbrH5e0KptKYbEx1+jqFcCgUAg/M1CVnfvFPjNjecn9Bg7NvGhl77qPG3B36vvrQNjQz6Ed1RC6q4qPJpDWaWtca2AjUfRm5eMqEVr3u6ql8ylb43Y7cqK3ZDY59FF7KunqFcCgUAg/I1DXnc/4+JTA3eNGNBpxLOfJD097xvlrRWtxpp9bENc6i6z7r6jnDXVcfVe2r66e5Sil3XRi6RudrdvLYXkVz+BwG9uuZN9vWS3EwgEAoEQI8zm1FONwE0Dunca/PT8pCffrEp5/bOf9eU7IbytDG15VO68qS7euntblLw7jY5nuLdom4sgcdysUlY2sL52AoFAIBAIbQizuabn9Qn9J76U+NiruckzFv2X9mkmhDJKWN29y67IvDuvvXeAand1txuZJc3KZ9shofuIZ/nXuZ6a4QgEAoFAOLowm1svDfQc92TCIzMykl9Y+M/ah5tYmE0qhtmY5B7OKgOMoo173t0xBifW14vRbm9Fu73zCwv/IRBIO8f8OkidEwgEAoHQYWE25/z+7IT7xoxMfOj5FZ2nvPOT+s4aCK47wJrqukTV3c2aOwu2KY1PpWN3+7YSNnueOOSpt9jnXE/qnEAgEAiEYxxmM6x3p+HTPkiaNOeg8uayFmPVHghvL2fk3mVXVUtqtrhExqf+LqrzzDLoPHPRnwLKGd34J6IwGQKBQCAQfrkwmxv73dpp4KTZiY/PLk555ZP/0b/IhvDWUuiyk5F7ayqG2aA17yJzdpup88LW0I6KFmXxFki496Ex/HOROicQCAQC4dcLs7mix1WBPo9PSxo3Kyf5pQ//Xfs4A0JbiqFLThWkWep9Z0VzanZ5czi7HC9bUnOqWrH5LnHo0wvZq1DMK4FAIBAIx1GYzXk3XJDQ65FHE0dPX9956jt/UeeuhODSLEjdkAdpmwqha3pRa3hpFigzF/1PQr/HX2QfRWROIBAIBMJxXHcPXtY1cEO/+xJ6jX82cejkTxOHT1mZNGLq8oReo6cEzr3uIvacaMVPIBAIBALhuA2zkYGUOYFAIBAIJwiQ3C2Ctw5m1VM3O4FAIBAIBAKBQCAQCAQCgUAgEAgEAoFAIBAIBAKBQCAQCAQCgUAgEAgEAoFAIBAIBAKBQCAQCAQCgUAgEAgEAoFAIBAIBAKBQCAQCAQCgUAgEAgEAoFAIBAIBAKBQCAQCAQCgUAgEAgEAoFAIBAIBAKBQCAQCAQCgUAgEAgEAoFAIBAIBAKBQCAQCAQCgUAgxlMCJQAAAJ5JREFUEAgEAoFAIBAIBAKBQCAQCAQCgUAgEAgEAoFAIBAIBAKBQCAQCAQCgUAgEAgEAoFAIBAIBAKBQCAQCAQCgUAgEAgEAoFAIBAIBAKBQCAQCAQCgUAgEAgEAoFAIBAIBAKBQCAQCAQCgUAgEAgEAoFAIBAIBAKBQCAQCAQCgUAgEAgEAoFAIBAIBAKBQCAQCAQCgUAgEAiEQDz4/66gfPpT7RHXAAAAAElFTkSuQmCC;rotation=0;" vertex="1" parent="1">
          <mxGeometry x="-1776" y="3373" width="873" height="873" as="geometry" />
        </mxCell>
        <mxCell id="MMg6F2xWOb4yAJsafZvW-33" value="d" style="swimlane;startSize=0;" vertex="1" parent="1">
          <mxGeometry x="215" y="2220" width="4765.4400000000005" height="2966.996666666668" as="geometry" />
        </mxCell>
        <mxCell id="MMg6F2xWOb4yAJsafZvW-34" value="&lt;font style=&quot;font-size: 65px;&quot;&gt;API GATEWAY&lt;/font&gt;" style="rounded=0;whiteSpace=wrap;html=1;rotation=0;fillColor=#FFFFFF;fillStyle=solid;fontStyle=1" vertex="1" parent="MMg6F2xWOb4yAJsafZvW-33">
          <mxGeometry x="-363" y="1367" width="728" height="344" as="geometry" />
        </mxCell>
        <mxCell id="MMg6F2xWOb4yAJsafZvW-37" value="News Feed&lt;br style=&quot;font-size: 53px;&quot;&gt;Service" style="whiteSpace=wrap;html=1;aspect=fixed;fontSize=53;fontStyle=1" vertex="1" parent="MMg6F2xWOb4yAJsafZvW-33">
          <mxGeometry x="1270" y="797" width="401" height="401" as="geometry" />
        </mxCell>
        <mxCell id="MMg6F2xWOb4yAJsafZvW-38" value="Tweet&lt;br style=&quot;font-size: 53px;&quot;&gt;Service" style="whiteSpace=wrap;html=1;aspect=fixed;fontSize=53;fontStyle=1" vertex="1" parent="MMg6F2xWOb4yAJsafZvW-33">
          <mxGeometry x="1289" y="1765" width="491" height="491" as="geometry" />
        </mxCell>
        <mxCell id="MMg6F2xWOb4yAJsafZvW-39" value="Search Service" style="whiteSpace=wrap;html=1;aspect=fixed;fontSize=53;fontStyle=1" vertex="1" parent="MMg6F2xWOb4yAJsafZvW-33">
          <mxGeometry x="1291" y="2303" width="478" height="478" as="geometry" />
        </mxCell>
        <mxCell id="MMg6F2xWOb4yAJsafZvW-12" value="" style="shape=image;verticalLabelPosition=bottom;labelBackgroundColor=default;verticalAlign=top;aspect=fixed;imageAspect=0;image=https://www.comp-web-pro.ru/wp-content/uploads/2019/05/kak-skryt-fakt-ispol-zovaniya-nginx-na-servere.png;" vertex="1" parent="MMg6F2xWOb4yAJsafZvW-33">
          <mxGeometry x="-8" y="5" width="382" height="382" as="geometry" />
        </mxCell>
        <mxCell id="MMg6F2xWOb4yAJsafZvW-36" value="User service" style="whiteSpace=wrap;html=1;aspect=fixed;fontSize=53;fontStyle=1" vertex="1" parent="MMg6F2xWOb4yAJsafZvW-33">
          <mxGeometry x="1285" y="253" width="348" height="348" as="geometry" />
        </mxCell>
        <mxCell id="MMg6F2xWOb4yAJsafZvW-31" value="" style="shape=image;verticalLabelPosition=bottom;labelBackgroundColor=default;verticalAlign=top;aspect=fixed;imageAspect=0;image=https://data.korusconsulting.ru/upload/iblock/308/Apache-Kafka.png;" vertex="1" parent="MMg6F2xWOb4yAJsafZvW-33">
          <mxGeometry x="1936" y="1256" width="789.81" height="439" as="geometry" />
        </mxCell>
        <mxCell id="MMg6F2xWOb4yAJsafZvW-5" value="" style="shape=image;verticalLabelPosition=bottom;labelBackgroundColor=default;verticalAlign=top;aspect=fixed;imageAspect=0;image=https://www.oursky.com/assets/img/tech__redis.png;rotation=0;" vertex="1" parent="MMg6F2xWOb4yAJsafZvW-33">
          <mxGeometry x="2053" y="919" width="476.45" height="268" as="geometry" />
        </mxCell>
        <mxCell id="MMg6F2xWOb4yAJsafZvW-41" value="" style="shape=image;verticalLabelPosition=bottom;labelBackgroundColor=default;verticalAlign=top;aspect=fixed;imageAspect=0;image=https://logosdownload.com/logo/elastic-logo-big.png;" vertex="1" parent="MMg6F2xWOb4yAJsafZvW-33">
          <mxGeometry x="2351" y="2217" width="1160" height="580" as="geometry" />
        </mxCell>
        <mxCell id="MMg6F2xWOb4yAJsafZvW-42" value="" style="shape=image;verticalLabelPosition=bottom;labelBackgroundColor=default;verticalAlign=top;aspect=fixed;imageAspect=0;image=https://icon-library.com/images/postgres-icon/postgres-icon-25.jpg;" vertex="1" parent="MMg6F2xWOb4yAJsafZvW-33">
          <mxGeometry x="1859" y="41" width="485" height="485" as="geometry" />
        </mxCell>
        <mxCell id="MMg6F2xWOb4yAJsafZvW-43" value="" style="shape=image;verticalLabelPosition=bottom;labelBackgroundColor=default;verticalAlign=top;aspect=fixed;imageAspect=0;image=https://gitlab.com/uploads/-/system/project/avatar/42473435/minio_white.png;" vertex="1" parent="MMg6F2xWOb4yAJsafZvW-33">
          <mxGeometry x="60.00333333333583" y="2421.996666666668" width="612" height="518" as="geometry" />
        </mxCell>
        <mxCell id="MMg6F2xWOb4yAJsafZvW-45" value="" style="shape=image;verticalLabelPosition=bottom;labelBackgroundColor=default;verticalAlign=top;aspect=fixed;imageAspect=0;image=https://www.oursky.com/assets/img/tech__redis.png;rotation=0;" vertex="1" parent="MMg6F2xWOb4yAJsafZvW-33">
          <mxGeometry x="2313" y="1994" width="476.45" height="268" as="geometry" />
        </mxCell>
        <mxCell id="MMg6F2xWOb4yAJsafZvW-46" value="" style="shape=image;verticalLabelPosition=bottom;labelBackgroundColor=default;verticalAlign=top;aspect=fixed;imageAspect=0;image=https://www.oursky.com/assets/img/tech__redis.png;rotation=0;" vertex="1" parent="MMg6F2xWOb4yAJsafZvW-33">
          <mxGeometry x="1843" y="504" width="476.45" height="268" as="geometry" />
        </mxCell>
        <mxCell id="MMg6F2xWOb4yAJsafZvW-50" value="" style="endArrow=classic;html=1;rounded=0;strokeWidth=13;exitX=1.034;exitY=0.517;exitDx=0;exitDy=0;exitPerimeter=0;" edge="1" parent="MMg6F2xWOb4yAJsafZvW-33" source="MMg6F2xWOb4yAJsafZvW-36" target="MMg6F2xWOb4yAJsafZvW-46">
          <mxGeometry width="50" height="50" relative="1" as="geometry">
            <mxPoint x="2847" y="1555" as="sourcePoint" />
            <mxPoint x="2897" y="1505" as="targetPoint" />
          </mxGeometry>
        </mxCell>
        <mxCell id="MMg6F2xWOb4yAJsafZvW-51" value="" style="endArrow=classic;html=1;rounded=0;strokeWidth=13;exitX=1.006;exitY=0.497;exitDx=0;exitDy=0;exitPerimeter=0;" edge="1" parent="MMg6F2xWOb4yAJsafZvW-33" source="MMg6F2xWOb4yAJsafZvW-36" target="MMg6F2xWOb4yAJsafZvW-42">
          <mxGeometry width="50" height="50" relative="1" as="geometry">
            <mxPoint x="1628" y="473" as="sourcePoint" />
            <mxPoint x="1853" y="567" as="targetPoint" />
          </mxGeometry>
        </mxCell>
        <mxCell id="MMg6F2xWOb4yAJsafZvW-52" value="" style="endArrow=classic;html=1;rounded=0;strokeWidth=13;exitX=1.002;exitY=0.431;exitDx=0;exitDy=0;exitPerimeter=0;" edge="1" parent="MMg6F2xWOb4yAJsafZvW-33" source="MMg6F2xWOb4yAJsafZvW-37" target="MMg6F2xWOb4yAJsafZvW-5">
          <mxGeometry width="50" height="50" relative="1" as="geometry">
            <mxPoint x="1655" y="443" as="sourcePoint" />
            <mxPoint x="1853" y="536" as="targetPoint" />
          </mxGeometry>
        </mxCell>
        <mxCell id="MMg6F2xWOb4yAJsafZvW-53" value="" style="endArrow=classic;html=1;rounded=0;strokeWidth=13;exitX=1.017;exitY=0.485;exitDx=0;exitDy=0;exitPerimeter=0;" edge="1" parent="MMg6F2xWOb4yAJsafZvW-33" source="MMg6F2xWOb4yAJsafZvW-38">
          <mxGeometry width="50" height="50" relative="1" as="geometry">
            <mxPoint x="1682" y="980" as="sourcePoint" />
            <mxPoint x="2339" y="1897.699672759698" as="targetPoint" />
          </mxGeometry>
        </mxCell>
        <mxCell id="MMg6F2xWOb4yAJsafZvW-55" value="" style="endArrow=classic;html=1;rounded=0;strokeWidth=13;exitX=1.02;exitY=0.467;exitDx=0;exitDy=0;exitPerimeter=0;" edge="1" parent="MMg6F2xWOb4yAJsafZvW-33" source="MMg6F2xWOb4yAJsafZvW-39" target="MMg6F2xWOb4yAJsafZvW-41">
          <mxGeometry width="50" height="50" relative="1" as="geometry">
            <mxPoint x="1808" y="2023" as="sourcePoint" />
            <mxPoint x="2323" y="2102" as="targetPoint" />
          </mxGeometry>
        </mxCell>
        <mxCell id="MMg6F2xWOb4yAJsafZvW-56" value="" style="endArrow=classic;html=1;rounded=0;strokeWidth=13;exitX=1.02;exitY=0.467;exitDx=0;exitDy=0;exitPerimeter=0;" edge="1" parent="MMg6F2xWOb4yAJsafZvW-33">
          <mxGeometry width="50" height="50" relative="1" as="geometry">
            <mxPoint x="3462" y="2519" as="sourcePoint" />
            <mxPoint x="4034" y="2510" as="targetPoint" />
          </mxGeometry>
        </mxCell>
        <mxCell id="MMg6F2xWOb4yAJsafZvW-17" value="" style="shape=image;verticalLabelPosition=bottom;labelBackgroundColor=default;verticalAlign=top;aspect=fixed;imageAspect=0;image=https://wsofter.com/wp-content/uploads/2022/05/net_core_logo.svg.png;" vertex="1" parent="MMg6F2xWOb4yAJsafZvW-33">
          <mxGeometry x="4171" y="11" width="425" height="425" as="geometry" />
        </mxCell>
        <mxCell id="MMg6F2xWOb4yAJsafZvW-18" value="" style="shape=image;verticalLabelPosition=bottom;labelBackgroundColor=default;verticalAlign=top;aspect=fixed;imageAspect=0;image=https://zalinux.ru/wp-content/uploads/2017/04/docker3-1024x914.png;" vertex="1" parent="MMg6F2xWOb4yAJsafZvW-33">
          <mxGeometry x="3615" y="43" width="527.68" height="471" as="geometry" />
        </mxCell>
        <mxCell id="MMg6F2xWOb4yAJsafZvW-60" value="" style="endArrow=classic;html=1;rounded=0;strokeWidth=13;exitX=1.002;exitY=0.431;exitDx=0;exitDy=0;exitPerimeter=0;entryX=0.004;entryY=0.574;entryDx=0;entryDy=0;entryPerimeter=0;" edge="1" parent="MMg6F2xWOb4yAJsafZvW-33" target="MMg6F2xWOb4yAJsafZvW-37">
          <mxGeometry width="50" height="50" relative="1" as="geometry">
            <mxPoint x="358" y="1536" as="sourcePoint" />
            <mxPoint x="1280" y="1512" as="targetPoint" />
          </mxGeometry>
        </mxCell>
        <mxCell id="MMg6F2xWOb4yAJsafZvW-64" value="" style="shape=image;verticalLabelPosition=bottom;labelBackgroundColor=default;verticalAlign=top;aspect=fixed;imageAspect=0;image=https://www.oursky.com/assets/img/tech__mongo.png;" vertex="1" parent="MMg6F2xWOb4yAJsafZvW-33">
          <mxGeometry x="2344" y="1726" width="592" height="333" as="geometry" />
        </mxCell>
        <mxCell id="MMg6F2xWOb4yAJsafZvW-65" value="" style="shape=image;verticalLabelPosition=bottom;labelBackgroundColor=default;verticalAlign=top;aspect=fixed;imageAspect=0;image=https://www.oursky.com/assets/img/tech__mongo.png;" vertex="1" parent="MMg6F2xWOb4yAJsafZvW-33">
          <mxGeometry x="3999" y="2301" width="796.44" height="448" as="geometry" />
        </mxCell>
        <mxCell id="MMg6F2xWOb4yAJsafZvW-54" value="" style="endArrow=classic;html=1;rounded=0;strokeWidth=13;exitX=1.017;exitY=0.485;exitDx=0;exitDy=0;exitPerimeter=0;" edge="1" parent="1" target="MMg6F2xWOb4yAJsafZvW-45">
          <mxGeometry width="50" height="50" relative="1" as="geometry">
            <mxPoint x="2013" y="4233" as="sourcePoint" />
            <mxPoint x="2564" y="4128" as="targetPoint" />
          </mxGeometry>
        </mxCell>
        <mxCell id="MMg6F2xWOb4yAJsafZvW-58" value="&lt;font style=&quot;font-size: 65px;&quot;&gt;Frontend&lt;/font&gt;" style="rounded=0;whiteSpace=wrap;html=1;rotation=0;fillColor=#FFFFFF;fillStyle=solid;fontStyle=1" vertex="1" parent="1">
          <mxGeometry x="-1645" y="3010" width="728" height="344" as="geometry" />
        </mxCell>
        <mxCell id="MMg6F2xWOb4yAJsafZvW-59" value="" style="endArrow=classic;html=1;rounded=0;strokeWidth=13;exitX=1.002;exitY=0.431;exitDx=0;exitDy=0;exitPerimeter=0;" edge="1" parent="1" target="MMg6F2xWOb4yAJsafZvW-34">
          <mxGeometry width="50" height="50" relative="1" as="geometry">
            <mxPoint x="-1070" y="3793" as="sourcePoint" />
            <mxPoint x="-689" y="3844" as="targetPoint" />
          </mxGeometry>
        </mxCell>
        <mxCell id="MMg6F2xWOb4yAJsafZvW-61" value="" style="endArrow=classic;html=1;rounded=0;strokeWidth=13;exitX=1.002;exitY=0.431;exitDx=0;exitDy=0;exitPerimeter=0;entryX=-0.038;entryY=0.557;entryDx=0;entryDy=0;entryPerimeter=0;" edge="1" parent="1" target="MMg6F2xWOb4yAJsafZvW-36">
          <mxGeometry width="50" height="50" relative="1" as="geometry">
            <mxPoint x="583" y="3766" as="sourcePoint" />
            <mxPoint x="1497" y="3257" as="targetPoint" />
          </mxGeometry>
        </mxCell>
        <mxCell id="MMg6F2xWOb4yAJsafZvW-62" value="" style="endArrow=classic;html=1;rounded=0;strokeWidth=13;exitX=1.002;exitY=0.431;exitDx=0;exitDy=0;exitPerimeter=0;entryX=-0.022;entryY=0.398;entryDx=0;entryDy=0;entryPerimeter=0;" edge="1" parent="1" target="MMg6F2xWOb4yAJsafZvW-38">
          <mxGeometry width="50" height="50" relative="1" as="geometry">
            <mxPoint x="593" y="3776" as="sourcePoint" />
            <mxPoint x="1497" y="2677" as="targetPoint" />
          </mxGeometry>
        </mxCell>
        <mxCell id="MMg6F2xWOb4yAJsafZvW-63" value="" style="endArrow=classic;html=1;rounded=0;strokeWidth=13;exitX=1.002;exitY=0.431;exitDx=0;exitDy=0;exitPerimeter=0;entryX=-0.013;entryY=0.469;entryDx=0;entryDy=0;entryPerimeter=0;" edge="1" parent="1" target="MMg6F2xWOb4yAJsafZvW-39">
          <mxGeometry width="50" height="50" relative="1" as="geometry">
            <mxPoint x="603" y="3786" as="sourcePoint" />
            <mxPoint x="1503" y="4190" as="targetPoint" />
          </mxGeometry>
        </mxCell>
      </root>
    </mxGraphModel>
  </diagram>
</mxfile>
